<svg xmlns="http://www.w3.org/2000/svg" xmlns:svg="http://www.w3.org/2000/svg" xmlns:xlink="http://www.w3.org/1999/xlink" id="svg2980" width="64" height="64" version="1.1"><title id="title4553">ifc_project_tree</title><defs id="defs2982"><linearGradient id="linearGradient904"><stop id="stop900" offset="0" stop-color="#babdb6" stop-opacity="1"/><stop id="stop902" offset="1" stop-color="#fff" stop-opacity="1"/></linearGradient><linearGradient id="linearGradient896"><stop id="stop892" offset="0" stop-color="#888a85" stop-opacity="1"/><stop id="stop894" offset="1" stop-color="#fff" stop-opacity="1"/></linearGradient><linearGradient id="linearGradient1460"><stop id="stop1456" offset="0" stop-color="#888a85" stop-opacity="1"/><stop id="stop1458" offset="1" stop-color="#d3d7cf" stop-opacity="1"/></linearGradient><linearGradient id="linearGradient1452"><stop id="stop1448" offset="0" stop-color="#888a85" stop-opacity="1"/><stop id="stop1450" offset="1" stop-color="#fff" stop-opacity="1"/></linearGradient><linearGradient id="linearGradient1371"><stop id="stop1367" offset="0" stop-color="#c4a000" stop-opacity="1"/><stop id="stop1369" offset="1" stop-color="#fce94f" stop-opacity="1"/></linearGradient><linearGradient id="linearGradient1212"><stop id="stop1208" offset="0" stop-color="#9f8201" stop-opacity="1"/><stop id="stop1210" offset="1" stop-color="#fce94f" stop-opacity="1"/></linearGradient><linearGradient id="linearGradient966"><stop id="stop962" offset="0" stop-color="#c4a000" stop-opacity="1"/><stop id="stop964" offset="1" stop-color="#fce94f" stop-opacity="1"/></linearGradient><linearGradient id="linearGradient958"><stop id="stop954" offset="0" stop-color="#c4a000" stop-opacity="1"/><stop id="stop956" offset="1" stop-color="#fce94f" stop-opacity="1"/></linearGradient><linearGradient id="linearGradient1584"><stop id="stop1580" offset="0" stop-color="#c4a000" stop-opacity="1"/><stop id="stop1582" offset="1" stop-color="#fce94f" stop-opacity="1"/></linearGradient><linearGradient id="linearGradient3794"><stop id="stop3796" offset="0" stop-color="#000" stop-opacity="1"/><stop id="stop3798" offset="1" stop-color="#000" stop-opacity="0"/></linearGradient><linearGradient id="linearGradient3864"><stop id="stop3866" offset="0" stop-color="#71b2f8" stop-opacity="1"/><stop id="stop3868" offset="1" stop-color="#002795" stop-opacity="1"/></linearGradient><radialGradient id="radialGradient3800" cx="1" cy="45" r="41" fx="1" fy="45" gradientTransform="matrix(0.93348213,-2.2905276e-8,0,0.28687573,0.06651751,32.090592)" gradientUnits="userSpaceOnUse" xlink:href="#linearGradient3794"/><linearGradient id="linearGradient1586" x1="19.742" x2="16.631" y1="29.617" y2="5.665" gradientUnits="userSpaceOnUse" xlink:href="#linearGradient1584"/><linearGradient id="linearGradient960" x1="42.72" x2="38.798" y1="35.359" y2="12.301" gradientTransform="rotate(29.953188,22.410187,2.0303151)" gradientUnits="userSpaceOnUse" xlink:href="#linearGradient958"/><linearGradient id="linearGradient968" x1="38.753" x2="36.96" y1="11.986" y2="4.356" gradientTransform="matrix(0.86036595,0.4957957,-0.65446032,1.1357004,4.8924107,-11.874215)" gradientUnits="userSpaceOnUse" xlink:href="#linearGradient966"/><linearGradient id="linearGradient1017" x1="42.72" x2="38.798" y1="35.359" y2="12.301" gradientTransform="rotate(29.953188,22.410187,2.0303151)" gradientUnits="userSpaceOnUse" xlink:href="#linearGradient958"/><linearGradient id="linearGradient1214" x1="35.502" x2="25.338" y1="43.943" y2="20.854" gradientUnits="userSpaceOnUse" xlink:href="#linearGradient1212"/><linearGradient id="linearGradient1373" x1="103.49" x2="91.8" y1="57.973" y2="9.831" gradientUnits="userSpaceOnUse" xlink:href="#linearGradient1371"/><linearGradient id="linearGradient1403" x1="106.646" x2="80.061" y1="32.015" y2="27.381" gradientTransform="matrix(0.71299585,0,0,0.71299585,-38.159919,7.6652554)" gradientUnits="userSpaceOnUse" xlink:href="#linearGradient896"/><linearGradient id="linearGradient1454" x1="25.948" x2="17.873" y1="40.235" y2="37.064" gradientUnits="userSpaceOnUse" xlink:href="#linearGradient1452"/><linearGradient id="linearGradient1462" x1="33.904" x2="28.19" y1="37.44" y2="32.499" gradientUnits="userSpaceOnUse" xlink:href="#linearGradient1460"/><linearGradient id="linearGradient906" x1="34.812" x2="30.571" y1="13.297" y2="11.437" gradientUnits="userSpaceOnUse" xlink:href="#linearGradient904"/></defs><metadata id="metadata2985"/><g id="layer1"><g id="g1015" transform="matrix(1.4025327,0,0,1.4025327,-12.5084,-9.9751934)"><path id="path1108" fill="none" fill-opacity="1" fill-rule="nonzero" stroke="none" stroke-dasharray="none" stroke-linecap="round" stroke-linejoin="round" stroke-miterlimit="4" stroke-width=".169" d="M 33.762019,29.98086 C 25.043358,23.889681 17.89608,18.865025 17.879176,18.814958 c -0.01691,-0.05007 0.197559,-0.313039 0.476582,-0.584381 0.878355,-0.854175 1.765285,-1.182233 3.196257,-1.182233 1.536913,0 2.775433,0.302228 5.677307,1.385393 2.559942,0.955533 3.863647,1.258501 6.105455,1.418843 l 1.314957,0.09405 0.676355,0.42569 c 0.371999,0.23413 1.950871,1.249591 3.508603,2.256581 1.557732,1.006989 3.139841,2.027163 3.515804,2.267053 0.407256,0.259862 0.727776,0.530464 0.792951,0.669459 0.06018,0.128313 0.373111,0.88006 0.695442,1.670552 0.928392,2.276847 1.391575,2.997958 3.059536,4.763285 2.162232,2.288437 3.252103,3.90544 3.639217,5.399359 0.200416,0.773427 0.172894,1.821207 -0.06289,2.394268 -0.197991,0.481212 -0.696176,1.267387 -0.801293,1.264491 -0.03265,-9.27e-4 -7.192795,-4.985328 -15.91145,-11.076508 z" opacity="1"/><path id="path1265-5" fill="url(#linearGradient1403)" fill-opacity="1" stroke="#2e3436" stroke-dasharray="none" stroke-linecap="butt" stroke-linejoin="round" stroke-miterlimit="4" stroke-opacity="1" stroke-width="1.426" d="m 27.079201,14.206157 c -7.3491,5.068907 -9.808395,11.28394 -10.687974,17.868066 v 11.101568 l 31.24788,-0.190782 0.05433,-10.910786 c 0.06718,-7.621033 -5.002286,-12.874 -10.632294,-17.868066 z m 20.509768,28.922286 -31.112796,0.126725 -4.733346,3.761331 0.04177,3.636001 h 40.497334 v -3.889448 z"/><path id="path1220-87" fill="url(#linearGradient906)" fill-opacity="1" stroke="#2e3436" stroke-dasharray="none" stroke-linecap="butt" stroke-linejoin="round" stroke-miterlimit="4" stroke-opacity="1" stroke-width="1.426" d="m 27.239239,13.981979 c 1.23915,-5.8754621 8.21462,-5.4405771 9.55166,0 z"/><rect id="rect1431" width="9.003" height="10.223" x="17.367" y="32.418" fill="url(#linearGradient1454)" fill-opacity="1" fill-rule="nonzero" stroke="none" stroke-dasharray="none" stroke-linecap="round" stroke-linejoin="round" stroke-miterlimit="4" stroke-width="1.626" opacity="1"/><path id="path1216-1" fill="none" stroke="#fff" stroke-dasharray="none" stroke-linecap="butt" stroke-linejoin="miter" stroke-miterlimit="4" stroke-opacity="1" stroke-width="1.426" d="m 27.725189,15.641754 8.81324,0.003 c 6.940872,5.302711 9.686672,11.546987 9.674182,15.867818 l 0.01925,12.395919 4.609275,3.539053 0.0095,1.787896 -37.693861,-0.0023 0.0049,-1.597929 4.64051,-3.599752 0.113104,-12.478863 c 0.96778,-6.426734 3.59727,-11.70258 9.567,-15.618951 z"/><rect id="rect1431-2" width="10.44" height="10.223" x="26.796" y="32.629" fill="url(#linearGradient1462)" fill-opacity="1" fill-rule="nonzero" stroke="none" stroke-dasharray="none" stroke-linecap="round" stroke-linejoin="round" stroke-miterlimit="4" stroke-width="1.751" opacity="1"/><circle id="path1242-1" cx="21.529" cy="37.26" r="2.608" fill="#2e3436" fill-opacity="1" fill-rule="nonzero" stroke="none" stroke-dasharray="none" stroke-linecap="round" stroke-linejoin="round" stroke-miterlimit="4" stroke-width="4.079" opacity="1"/><circle id="path1242-8-2" cx="32.099" cy="37.294" r="2.608" fill="#2e3436" fill-opacity="1" fill-rule="nonzero" stroke="none" stroke-dasharray="none" stroke-linecap="round" stroke-linejoin="round" stroke-miterlimit="4" stroke-width="4.079" opacity="1"/><circle id="path1242-3-4" cx="42.299" cy="37.324" r="2.608" fill="#2e3436" fill-opacity="1" fill-rule="nonzero" stroke="none" stroke-dasharray="none" stroke-linecap="round" stroke-linejoin="round" stroke-miterlimit="4" stroke-width="4.079" opacity="1"/><path id="path1196-4-9" fill="none" stroke="#fff" stroke-dasharray="none" stroke-linecap="butt" stroke-linejoin="miter" stroke-miterlimit="4" stroke-opacity="1" stroke-width="1.377" d="M 17.506414,30.800931 H 46.472936"/><path id="path1192-1" fill="none" stroke="#2e3436" stroke-dasharray="none" stroke-linecap="butt" stroke-linejoin="miter" stroke-miterlimit="4" stroke-opacity="1" stroke-width="1.426" d="m 31.382129,14.083052 c -3.13613,4.970362 -4.81717,10.954296 -4.98681,17.991026 v 10.781139"/><path id="path1194-4" fill="none" stroke="#2e3436" stroke-dasharray="none" stroke-linecap="butt" stroke-linejoin="miter" stroke-miterlimit="4" stroke-opacity="1" stroke-width="1.426" d="m 33.300129,14.150434 c 2.58579,5.068087 4.38829,10.79545 4.52649,17.923644 l -0.15344,10.781139"/><path id="path1196-4" fill="none" stroke="#2e3436" stroke-dasharray="none" stroke-linecap="butt" stroke-linejoin="miter" stroke-miterlimit="4" stroke-opacity="1" stroke-width="1.426" d="m 16.575149,32.276223 h 31.07164"/><path id="path1196-4-2" fill="none" stroke="#2e3436" stroke-dasharray="none" stroke-linecap="butt" stroke-linejoin="miter" stroke-miterlimit="4" stroke-opacity="1" stroke-width="1.851" d="M 16.30258,43.183831 H 48.182521"/></g></g></svg>