<svg xmlns="http://www.w3.org/2000/svg" xmlns:svg="http://www.w3.org/2000/svg" xmlns:xlink="http://www.w3.org/1999/xlink" id="svg4198" width="48" height="48" version="1.1"><defs id="defs4200"><linearGradient id="linearGradient15218"><stop id="stop15220" offset="0" stop-color="#f0f0ef" stop-opacity="1"/><stop id="stop2269" offset=".599" stop-color="#e8e8e8" stop-opacity="1"/><stop id="stop2267" offset=".828" stop-color="#fff" stop-opacity="1"/><stop id="stop15222" offset="1" stop-color="#d8d8d3" stop-opacity="1"/></linearGradient><linearGradient id="linearGradient2259"><stop id="stop2261" offset="0" stop-color="#fff" stop-opacity="1"/><stop id="stop2263" offset="1" stop-color="#fff" stop-opacity="0"/></linearGradient><linearGradient id="linearGradient2224"><stop id="stop2226" offset="0" stop-color="#7c7c7c" stop-opacity="1"/><stop id="stop2228" offset="1" stop-color="#b8b8b8" stop-opacity="1"/></linearGradient><linearGradient id="linearGradient2230" x1="35.997" x2="33.665" y1="40.458" y2="37.771" gradientTransform="translate(6.161836,4.033411)" gradientUnits="userSpaceOnUse" xlink:href="#linearGradient2224"/><linearGradient id="linearGradient2251"><stop id="stop2253" offset="0" stop-color="#fff" stop-opacity="1"/><stop id="stop2255" offset="1" stop-color="#fff" stop-opacity="0"/></linearGradient><linearGradient id="linearGradient2257" x1="33.396" x2="34.17" y1="36.921" y2="38.07" gradientTransform="translate(6.161836,3.658411)" gradientUnits="userSpaceOnUse" xlink:href="#linearGradient2251"/><linearGradient id="linearGradient13651" x1="26.076" x2="30.811" y1="26.697" y2="42.007" gradientTransform="matrix(0.999421,0,0,1,5.991319,4.033411)" gradientUnits="userSpaceOnUse" xlink:href="#linearGradient2259"/><linearGradient id="linearGradient13653" x1="22.308" x2="35.785" y1="18.992" y2="39.498" gradientTransform="matrix(1.067236,0,0,0.989276,4.391684,4.035227)" gradientUnits="userSpaceOnUse" xlink:href="#linearGradient15218"/><linearGradient id="linearGradient3864"><stop id="stop3866" offset="0" stop-color="#71b2f8" stop-opacity="1"/><stop id="stop3868" offset="1" stop-color="#002795" stop-opacity="1"/></linearGradient><linearGradient id="linearGradient3682"><stop id="stop3684" offset="0" stop-color="#ff6d0f" stop-opacity="1"/><stop id="stop3686" offset="1" stop-color="#ff1000" stop-opacity="1"/></linearGradient><linearGradient id="linearGradient3864-9"><stop id="stop3866-1" offset="0" stop-color="#204a87" stop-opacity="1"/><stop id="stop3868-1" offset="1" stop-color="#729fcf" stop-opacity="1"/></linearGradient><linearGradient id="linearGradient3682-0"><stop id="stop3684-0" offset="0" stop-color="#a40000" stop-opacity="1"/><stop id="stop3686-0" offset="1" stop-color="#ef2929" stop-opacity="1"/></linearGradient><radialGradient id="radialGradient3817-5-3" cx="270.583" cy="33.9" r="19.571" fx="270.583" fy="33.9" gradientTransform="matrix(1.2361257,0.30001695,-0.83232803,3.3883821,-499.9452,-167.33108)" gradientUnits="userSpaceOnUse" xlink:href="#linearGradient3682-0-6"/><linearGradient id="linearGradient3682-0-6"><stop id="stop3684-0-7" offset="0" stop-color="#ff390f" stop-opacity="1"/><stop id="stop3686-0-5" offset="1" stop-color="#ff1000" stop-opacity="1"/></linearGradient><linearGradient id="linearGradient5060"><stop id="stop5062" offset="0" stop-color="#000" stop-opacity="1"/><stop id="stop5064" offset="1" stop-color="#000" stop-opacity="0"/></linearGradient><linearGradient id="linearGradient5048"><stop id="stop5050" offset="0" stop-color="#000" stop-opacity="0"/><stop id="stop5056" offset=".5" stop-color="#000" stop-opacity="1"/><stop id="stop5052" offset="1" stop-color="#000" stop-opacity="0"/></linearGradient><linearGradient id="linearGradient15662"><stop id="stop15664" offset="0" stop-color="#fff" stop-opacity="1"/><stop id="stop15666" offset="1" stop-color="#f8f8f8" stop-opacity="1"/></linearGradient><radialGradient id="aigrd3" cx="20.892" cy="64.568" r="5.257" fx="20.892" fy="64.568" gradientUnits="userSpaceOnUse"><stop id="stop15573" offset="0" stop-color="#F0F0F0"/><stop id="stop15575" offset="1" stop-color="#9a9a9a" stop-opacity="1"/></radialGradient><radialGradient id="aigrd2" cx="20.892" cy="114.568" r="5.256" fx="20.892" fy="114.568" gradientUnits="userSpaceOnUse"><stop id="stop15566" offset="0" stop-color="#F0F0F0"/><stop id="stop15568" offset="1" stop-color="#9a9a9a" stop-opacity="1"/></radialGradient><linearGradient id="linearGradient269"><stop id="stop270" offset="0" stop-color="#a3a3a3" stop-opacity="1"/><stop id="stop271" offset="1" stop-color="#4c4c4c" stop-opacity="1"/></linearGradient><linearGradient id="linearGradient259"><stop id="stop260" offset="0" stop-color="#fafafa" stop-opacity="1"/><stop id="stop261" offset="1" stop-color="#bbb" stop-opacity="1"/></linearGradient><radialGradient id="radialGradient4548" cx="24.307" cy="42.078" r="15.822" fx="24.307" fy="42.078" gradientTransform="matrix(1.000000,0.000000,0.000000,0.284916,0.000000,30.08928)" gradientUnits="userSpaceOnUse" xlink:href="#linearGradient5060"/><radialGradient id="radialGradient3023" cx="61.519" cy="132.286" r="29.037" fx="61.519" fy="132.286" gradientTransform="matrix(0,-0.1143588,0.5026551,1.8070519e-7,-11.472507,114.13954)" gradientUnits="userSpaceOnUse" xlink:href="#linearGradient2795"/><linearGradient id="linearGradient2795"><stop id="stop2797" offset="0" stop-color="#b8b8b8" stop-opacity=".498"/><stop id="stop2799" offset="1" stop-color="#7f7f7f" stop-opacity="0"/></linearGradient><linearGradient id="linearGradient3027" x1="150.961" x2="112.031" y1="192.352" y2="137.273" gradientTransform="matrix(0.30307123,0,0,0.3059972,-6.2026572,-4.4262311)" gradientUnits="userSpaceOnUse" xlink:href="#linearGradient4671"/><linearGradient id="linearGradient4671"><stop id="stop4673" offset="0" stop-color="#ffd43b" stop-opacity="1"/><stop id="stop4675" offset="1" stop-color="#ffe873" stop-opacity="1"/></linearGradient><linearGradient id="linearGradient3030" x1="26.649" x2="135.665" y1="20.604" y2="114.398" gradientTransform="matrix(0.562541,0,0,0.567972,-9.399749,-5.305317)" gradientUnits="userSpaceOnUse" xlink:href="#linearGradient4689"/><linearGradient id="linearGradient4689"><stop id="stop4691" offset="0" stop-color="#5a9fd4" stop-opacity="1"/><stop id="stop4693" offset="1" stop-color="#306998" stop-opacity="1"/></linearGradient><linearGradient id="linearGradient3063" x1="26.649" x2="135.665" y1="20.604" y2="114.398" gradientTransform="matrix(0.30307123,0,0,0.3059972,-6.2026572,-4.4262311)" gradientUnits="userSpaceOnUse" xlink:href="#linearGradient4689"/></defs><metadata id="metadata4203"/><g id="layer1"><g id="g12863" transform="matrix(1.2108584,0,0,1.2108584,-12.827654,-10.483764)"><path id="rect12413" fill="url(#linearGradient13653)" fill-opacity="1" fill-rule="evenodd" stroke="#888a85" stroke-dashoffset="0" stroke-linecap="butt" stroke-linejoin="miter" stroke-miterlimit="4" stroke-opacity="1" stroke-width="1" d="m 15.072946,10.500852 h 29.856385 c 0.31574,0 0.569926,0.253093 0.569926,0.567472 v 27.167362 c 0,2.476452 -6.87981,8.303087 -9.267932,8.303087 H 15.072946 c -0.31574,0 -0.569926,-0.253092 -0.569926,-0.567473 V 11.068324 c 0,-0.314379 0.254186,-0.567472 0.569926,-0.567472 z"/><rect id="rect15244" width="28.997" height="34.041" x="15.503" y="11.5" fill="none" fill-opacity="1" fill-rule="evenodd" stroke="url(#linearGradient13651)" stroke-dasharray="none" stroke-dashoffset="0" stroke-linecap="butt" stroke-linejoin="miter" stroke-miterlimit="4" stroke-opacity="1" stroke-width="1" opacity="1" rx="0" ry="0"/><path id="path2210" fill="url(#linearGradient2230)" fill-opacity="1" fill-rule="evenodd" stroke="#868a84" stroke-dasharray="none" stroke-dashoffset="0" stroke-linecap="butt" stroke-linejoin="miter" stroke-miterlimit="4" stroke-opacity="1" stroke-width="1" marker-end="none" marker-mid="none" marker-start="none" d="m 36.220918,46.536966 c 2.030418,0.329898 9.588793,-4.529929 9.284411,-8.497844 -1.563262,2.423097 -4.758522,1.286738 -8.86728,1.445748 0,0 0.395369,6.552096 -0.417131,7.052096 z" color="#000" display="inline" opacity="1" overflow="visible" visibility="visible" style="marker:none"/><path id="path2247" fill="none" fill-opacity="1" fill-rule="evenodd" stroke="url(#linearGradient2257)" stroke-dasharray="none" stroke-dashoffset="0" stroke-linecap="butt" stroke-linejoin="miter" stroke-miterlimit="4" stroke-opacity="1" stroke-width="1" marker-end="none" marker-mid="none" marker-start="none" d="m 37.671355,44.345464 c 1.369779,-0.683829 4.428249,-2.146465 5.72763,-4.027469 -1.596094,0.680055 -2.94781,0.209496 -5.702334,0.190405 0,0 0.162322,3.062094 -0.0253,3.837064 z" color="#000" display="inline" opacity=".369" overflow="visible" visibility="visible" style="marker:none"/></g><g id="layer1-5" transform="matrix(0.39306387,0,0,0.39306387,10.618422,10.861628)"><path id="path1948" fill="url(#linearGradient3063)" fill-opacity="1" d="m 31.461584,1.8789638 c -2.469461,0.011474 -4.827741,0.2220839 -6.902785,0.5892627 -6.112821,1.0799344 -7.222671,3.3403304 -7.222671,7.5088844 v 5.5053921 h 14.445341 v 1.835132 H 17.336128 11.914915 c -4.1982177,0 -7.8742982,2.523371 -9.0241292,7.323687 -1.3263152,5.502276 -1.3851452,8.935787 0,14.681047 1.0268266,4.276549 3.4790273,7.323686 7.6772442,7.323687 h 4.966638 v -6.599737 c 0,-4.76792 4.125318,-8.97362 9.024131,-8.973622 h 14.428506 c 4.016385,0 7.222672,-3.306959 7.222671,-7.340523 V 9.9771109 c 0,-3.9147689 -3.302552,-6.8555252 -7.222671,-7.5088844 C 36.505811,2.0551496 33.931046,1.867489 31.461584,1.8789638 Z m -7.811932,4.4278849 c 1.492104,0 2.710605,1.2384043 2.710605,2.7611137 -1e-6,1.5173126 -1.218501,2.7442786 -2.710605,2.7442786 -1.497455,0 -2.710607,-1.226966 -2.710607,-2.7442786 0,-1.5227082 1.213152,-2.7611137 2.710607,-2.7611137 z"/><path id="path1950" fill="url(#linearGradient3027)" fill-opacity="1" d="m 48.011435,17.317635 v 6.414539 c 0,4.973107 -4.216233,9.158818 -9.02413,9.158819 H 24.558799 c -3.95221,0 -7.222671,3.382557 -7.222671,7.340524 v 13.755061 c 0,3.914773 3.404164,6.217396 7.222671,7.340526 4.572583,1.344523 8.957451,1.587505 14.428506,0 3.636673,-1.052936 7.222672,-3.171974 7.222671,-7.340526 V 48.481187 H 31.781469 v -1.835131 h 14.428507 7.222673 c 4.19822,0 5.762648,-2.928347 7.222666,-7.323687 1.508151,-4.524934 1.44398,-8.87639 0,-14.681047 -1.037521,-4.179353 -3.019107,-7.323687 -7.222666,-7.323687 z M 39.896452,52.15145 c 1.497455,1e-6 2.710606,1.226966 2.710606,2.744276 -1e-6,1.522709 -1.213153,2.761117 -2.710606,2.761117 -1.492106,0 -2.710606,-1.238408 -2.710606,-2.761117 1e-6,-1.51731 1.218498,-2.744276 2.710606,-2.744276 z"/></g></g></svg>