<svg xmlns="http://www.w3.org/2000/svg" xmlns:svg="http://www.w3.org/2000/svg" xmlns:xlink="http://www.w3.org/1999/xlink" id="svg2980" width="64" height="64" version="1.1"><defs id="defs2982"><linearGradient id="linearGradient3864"><stop id="stop3866" offset="0" stop-color="#71b2f8" stop-opacity="1"/><stop id="stop3868" offset="1" stop-color="#002795" stop-opacity="1"/></linearGradient><radialGradient id="radialGradient3850" cx="51.329" cy="31.074" r="19.571" fx="51.329" fy="31.074" gradientTransform="matrix(0.6028459,1.0471639,-1.9794021,1.1395295,127.9588,-74.456907)" gradientUnits="userSpaceOnUse" xlink:href="#linearGradient3864"/><radialGradient id="radialGradient3699" cx="76.383" cy="94.37" r="19.467" fx="76.383" fy="94.37" gradientTransform="matrix(0.9818943,0.1894295,-0.4109427,2.1300924,40.163453,-121.11559)" gradientUnits="userSpaceOnUse" xlink:href="#linearGradient3377-6"/><linearGradient id="linearGradient3377"><stop id="stop3379" offset="0" stop-color="#faff2b" stop-opacity="1"/><stop id="stop3381" offset="1" stop-color="#fa0" stop-opacity="1"/></linearGradient><radialGradient id="radialGradient3701" cx="84.883" cy="77.043" r="19.467" fx="84.883" fy="77.043" gradientTransform="matrix(2.8492421,1.2585119,-0.4040415,0.9147407,-125.84131,-100.25805)" gradientUnits="userSpaceOnUse" xlink:href="#linearGradient3377"/><linearGradient id="linearGradient3007"><stop id="stop3009" offset="0" stop-color="#faff2b" stop-opacity="1"/><stop id="stop3011" offset="1" stop-color="#fa0" stop-opacity="1"/></linearGradient><radialGradient id="radialGradient3017" cx="84.883" cy="77.043" r="19.467" fx="84.883" fy="77.043" gradientTransform="matrix(2.8492421,1.2585119,-0.4040415,0.9147407,-125.84131,-100.25805)" gradientUnits="userSpaceOnUse" xlink:href="#linearGradient3377-6"/><radialGradient id="radialGradient3699-2" cx="76.383" cy="94.37" r="19.467" fx="76.383" fy="94.37" gradientTransform="matrix(0.9818943,0.1894295,-0.4109427,2.1300924,40.163453,-121.11559)" gradientUnits="userSpaceOnUse" xlink:href="#linearGradient3377-6"/><linearGradient id="linearGradient3377-6"><stop id="stop3379-2" offset="0" stop-color="#00afff" stop-opacity="1"/><stop id="stop3381-4" offset="1" stop-color="#0034ff" stop-opacity="1"/></linearGradient><radialGradient id="radialGradient3017-8" cx="84.883" cy="77.043" r="19.467" fx="84.883" fy="77.043" gradientTransform="matrix(2.8492421,1.2585119,-0.4040415,0.9147407,-125.84131,-100.25805)" gradientUnits="userSpaceOnUse" xlink:href="#linearGradient3377-6"/><linearGradient id="linearGradient3835"><stop id="stop3837" offset="0" stop-color="#faff2b" stop-opacity="1"/><stop id="stop3839" offset="1" stop-color="#fa0" stop-opacity="1"/></linearGradient><radialGradient id="radialGradient3844" cx="84.883" cy="77.043" r="19.467" fx="84.883" fy="77.043" gradientTransform="matrix(2.8492421,1.2585119,-0.4040415,0.9147407,-125.84131,-100.25805)" gradientUnits="userSpaceOnUse" xlink:href="#linearGradient3377-6"/><radialGradient id="radialGradient3699-7" cx="76.383" cy="94.37" r="19.467" fx="76.383" fy="94.37" gradientTransform="matrix(0.9818943,0.1894295,-0.4109427,2.1300924,40.163453,-121.11559)" gradientUnits="userSpaceOnUse" xlink:href="#linearGradient3377-6"/><linearGradient id="linearGradient3377-2"><stop id="stop3379-7" offset="0" stop-color="#faff2b" stop-opacity="1"/><stop id="stop3381-8" offset="1" stop-color="#fa0" stop-opacity="1"/></linearGradient><radialGradient id="radialGradient3017-6" cx="84.883" cy="77.043" r="19.467" fx="84.883" fy="77.043" gradientTransform="matrix(2.8492421,1.2585119,-0.4040415,0.9147407,-125.84131,-100.25805)" gradientUnits="userSpaceOnUse" xlink:href="#linearGradient3377-2"/><linearGradient id="linearGradient3835-1"><stop id="stop3837-0" offset="0" stop-color="#faff2b" stop-opacity="1"/><stop id="stop3839-9" offset="1" stop-color="#fa0" stop-opacity="1"/></linearGradient><radialGradient id="radialGradient3844-7" cx="84.883" cy="77.043" r="19.467" fx="84.883" fy="77.043" gradientTransform="matrix(2.8492421,1.2585119,-0.4040415,0.9147407,-125.84131,-100.25805)" gradientUnits="userSpaceOnUse" xlink:href="#linearGradient3377-6"/><radialGradient id="radialGradient4112" cx="86.837" cy="90.601" r="19.467" fx="86.837" fy="90.601" gradientTransform="matrix(-0.19157613,0.46621455,-1.1364164,-0.41904304,156.5648,24.076707)" gradientUnits="userSpaceOnUse" xlink:href="#linearGradient4032"/><linearGradient id="linearGradient4032"><stop id="stop4034" offset="0" stop-color="#71b2f8" stop-opacity="1"/><stop id="stop4036" offset="1" stop-color="#002795" stop-opacity="1"/></linearGradient><radialGradient id="radialGradient4114" cx="113.502" cy="65.849" r="19.467" fx="113.502" fy="65.849" gradientTransform="matrix(0.19036833,-0.61386357,1.99853,-0.19092801,-47.133199,165.45559)" gradientUnits="userSpaceOnUse" xlink:href="#linearGradient4032"/><linearGradient id="linearGradient3171"><stop id="stop3173" offset="0" stop-color="#71b2f8" stop-opacity="1"/><stop id="stop3175" offset="1" stop-color="#002795" stop-opacity="1"/></linearGradient><radialGradient id="radialGradient3180" cx="113.502" cy="65.849" r="19.467" fx="113.502" fy="65.849" gradientTransform="matrix(0.19036833,-0.61386357,1.99853,-0.19092801,-47.133199,165.45559)" gradientUnits="userSpaceOnUse" xlink:href="#linearGradient4032"/><radialGradient id="radialGradient4112-9" cx="86.837" cy="90.601" r="19.467" fx="86.837" fy="90.601" gradientTransform="matrix(-0.19157613,0.46621455,-1.1364164,-0.41904304,162.99236,26.56694)" gradientUnits="userSpaceOnUse" xlink:href="#linearGradient4032-7"/><linearGradient id="linearGradient4032-7"><stop id="stop4034-3" offset="0" stop-color="#71b2f8" stop-opacity="1"/><stop id="stop4036-6" offset="1" stop-color="#002795" stop-opacity="1"/></linearGradient><radialGradient id="radialGradient4114-3" cx="113.502" cy="65.849" r="19.467" fx="113.502" fy="65.849" gradientTransform="matrix(0.19036833,-0.61386357,1.99853,-0.19092801,-47.133199,165.45559)" gradientUnits="userSpaceOnUse" xlink:href="#linearGradient4032-7"/><linearGradient id="linearGradient3171-9"><stop id="stop3173-7" offset="0" stop-color="#71b2f8" stop-opacity="1"/><stop id="stop3175-5" offset="1" stop-color="#002795" stop-opacity="1"/></linearGradient><radialGradient id="radialGradient3180-6" cx="113.502" cy="65.849" r="19.467" fx="113.502" fy="65.849" gradientTransform="matrix(0.19036833,-0.61386357,1.99853,-0.19092801,-47.133199,165.45559)" gradientUnits="userSpaceOnUse" xlink:href="#linearGradient4032-7"/><radialGradient id="radialGradient4112-7" cx="86.837" cy="90.601" r="19.467" fx="86.837" fy="90.601" gradientTransform="matrix(-0.19157613,0.46621455,-1.1364164,-0.41904304,156.5648,24.076707)" gradientUnits="userSpaceOnUse" xlink:href="#linearGradient4032-8"/><linearGradient id="linearGradient4032-8"><stop id="stop4034-4" offset="0" stop-color="#71b2f8" stop-opacity="1"/><stop id="stop4036-3" offset="1" stop-color="#002795" stop-opacity="1"/></linearGradient><radialGradient id="radialGradient4114-9" cx="113.502" cy="65.849" r="19.467" fx="113.502" fy="65.849" gradientTransform="matrix(0.19036833,-0.61386357,1.99853,-0.19092801,-47.133199,165.45559)" gradientUnits="userSpaceOnUse" xlink:href="#linearGradient4032-8"/><linearGradient id="linearGradient3171-1"><stop id="stop3173-0" offset="0" stop-color="#71b2f8" stop-opacity="1"/><stop id="stop3175-3" offset="1" stop-color="#002795" stop-opacity="1"/></linearGradient><radialGradient id="radialGradient3180-9" cx="113.502" cy="65.849" r="19.467" fx="113.502" fy="65.849" gradientTransform="matrix(0.19036833,-0.61386357,1.99853,-0.19092801,-47.133199,165.45559)" gradientUnits="userSpaceOnUse" xlink:href="#linearGradient4032-8"/><linearGradient id="linearGradient3822" x1="154.135" x2="165.616" y1="33.267" y2="46.43" gradientUnits="userSpaceOnUse" xlink:href="#linearGradient4032-0"/><linearGradient id="linearGradient4032-0"><stop id="stop4034-37" offset="0" stop-color="#71b2f8" stop-opacity="1"/><stop id="stop4036-1" offset="1" stop-color="#002795" stop-opacity="1"/></linearGradient><radialGradient id="radialGradient3703" cx="132.705" cy="90.193" r="19.467" fx="132.705" fy="90.193" gradientTransform="matrix(-0.08162339,1.3949072,-1.1572569,-0.26963374,245.22773,-105.44363)" gradientUnits="userSpaceOnUse" xlink:href="#linearGradient4032-0"/><linearGradient id="linearGradient3284"><stop id="stop3286" offset="0" stop-color="#71b2f8" stop-opacity="1"/><stop id="stop3288" offset="1" stop-color="#002795" stop-opacity="1"/></linearGradient><radialGradient id="radialGradient3294" cx="132.705" cy="90.193" r="19.467" fx="132.705" fy="90.193" gradientTransform="matrix(-0.08162339,1.3949072,-1.1572569,-0.26963374,245.22773,-105.44363)" gradientUnits="userSpaceOnUse" xlink:href="#linearGradient4032-0"/><linearGradient id="linearGradient4029" x1="45" x2="50" y1="34" y2="59" gradientUnits="userSpaceOnUse" xlink:href="#linearGradient4023"/><linearGradient id="linearGradient4023"><stop id="stop4025" offset="0" stop-color="#8ae234" stop-opacity="1"/><stop id="stop4027" offset="1" stop-color="#4e9a06" stop-opacity="1"/></linearGradient><linearGradient id="linearGradient3783" x1="53.897" x2="50" y1="51.18" y2="38" gradientTransform="translate(-16,0)" gradientUnits="userSpaceOnUse" xlink:href="#linearGradient3777"/><linearGradient id="linearGradient3777"><stop id="stop3779" offset="0" stop-color="#204a87" stop-opacity="1"/><stop id="stop3781" offset="1" stop-color="#3465a4" stop-opacity="1"/></linearGradient><linearGradient id="linearGradient3773" x1="22.117" x2="20" y1="55.718" y2="40" gradientTransform="translate(-16,0)" gradientUnits="userSpaceOnUse" xlink:href="#linearGradient3767"/><linearGradient id="linearGradient3767"><stop id="stop3769" offset="0" stop-color="#3465a4" stop-opacity="1"/><stop id="stop3771" offset="1" stop-color="#729fcf" stop-opacity="1"/></linearGradient><linearGradient id="linearGradient3807-3" x1="110" x2="85" y1="35" y2="35" gradientTransform="matrix(0.45833337,0,0,0.51724135,-28.625003,1.4482735)" gradientUnits="userSpaceOnUse" spreadMethod="reflect" xlink:href="#linearGradient3801-6"/><linearGradient id="linearGradient3801-6"><stop id="stop3803-7" offset="0" stop-color="#204a87" stop-opacity="1"/><stop id="stop3805-5" offset="1" stop-color="#729fcf" stop-opacity="1"/></linearGradient><linearGradient id="linearGradient3807-3-9-3" x1="110" x2="85" y1="35" y2="35" gradientTransform="matrix(0.45833337,0,0,0.51724135,7.374996,33.448275)" gradientUnits="userSpaceOnUse" spreadMethod="reflect" xlink:href="#linearGradient3801-6-1-6"/><linearGradient id="linearGradient3801-6-1-6"><stop id="stop3803-7-2-7" offset="0" stop-color="#c4a000" stop-opacity="1"/><stop id="stop3805-5-7-5" offset="1" stop-color="#fce94f" stop-opacity="1"/></linearGradient><linearGradient id="linearGradient3774"><stop id="stop3776" offset="0" stop-color="#4e9a06" stop-opacity="1"/><stop id="stop3778" offset="1" stop-color="#8ae234" stop-opacity="1"/></linearGradient><radialGradient id="radialGradient3808" cx="20.803" cy="18.627" r="27.085" fx="20.803" fy="18.627" gradientTransform="matrix(0.66666671,0.70000004,-1.3510775,1.2867404,32.100634,-19.902858)" gradientUnits="userSpaceOnUse" xlink:href="#linearGradient3600"/><linearGradient id="linearGradient3600"><stop id="stop3602" offset="0" stop-color="#729fcf" stop-opacity="1"/><stop id="stop3604" offset="1" stop-color="#204a87" stop-opacity="1"/></linearGradient><linearGradient id="linearGradient4316" x1="288.112" x2="372.525" y1="358.158" y2="7.542" gradientTransform="matrix(-0.51964051,0,0,0.50042191,1386.3532,982.21378)" gradientUnits="userSpaceOnUse" xlink:href="#linearGradient3774"/></defs><metadata id="metadata2985"/><g id="layer1"><g id="g3205" transform="translate(37.818182,31.454545)"><path id="path2994-3-3" fill="#729fcf" stroke="#0b1521" stroke-dashoffset="20.4" stroke-linecap="round" stroke-linejoin="round" stroke-miterlimit="4.5" stroke-opacity="1" stroke-width="2" d="m 25.000001,24.86206 c 0,2.28532 -4.924867,4.13794 -11,4.13794 C 7.924868,29 3,27.14738 3,24.86206 l -1e-6,-17.7241305 22.000001,0 z"/><path id="path2994-3-6-5" fill="url(#linearGradient3807-3)" fill-opacity="1" stroke="#729fcf" stroke-dashoffset="20.4" stroke-linecap="round" stroke-linejoin="round" stroke-miterlimit="4.5" stroke-opacity="1" stroke-width="2" d="m 23,24 c 0,2.07756 -5.999802,3.01587 -9,3.01587 -3,0 -9,-0.93831 -9,-3.01587 l -1e-6,-15.6551715 18.000001,0 z"/><path id="path2994-3-6-9-6" fill="none" stroke="#729fcf" stroke-dashoffset="20.4" stroke-linecap="round" stroke-linejoin="round" stroke-miterlimit="4.5" stroke-opacity="1" stroke-width="2" d="M 23,11.000001 C 21,13 17,13.351648 14,13.351648 11,13.351648 7,13 5,11.000001"/><ellipse id="path2994-2" cx="-35" cy="25" fill="#729fcf" stroke="#0b1521" stroke-dasharray="none" stroke-dashoffset="20.4" stroke-linecap="round" stroke-linejoin="round" stroke-miterlimit="4.5" stroke-opacity="1" stroke-width="3.594" rx="21" ry="7" transform="matrix(0.52380955,0,0,0.59113297,32.333335,-7.640393)"/></g><g id="g3192" transform="translate(-1.2727273,0.54545455)"><path id="path2993" fill="#729fcf" stroke="#0b1521" stroke-linecap="butt" stroke-linejoin="round" stroke-opacity="1" stroke-width="2" d="M 3,35 21,39 37,35 21,31 Z"/><path id="path2995" fill="url(#linearGradient3783)" fill-opacity="1" stroke="#0b1521" stroke-linecap="butt" stroke-linejoin="round" stroke-opacity="1" stroke-width="2" d="m 37,35 0,20 -16,6 0,-22 z"/><path id="path3825" fill="url(#linearGradient3773)" fill-opacity="1" fill-rule="evenodd" stroke="#0b1521" stroke-dasharray="none" stroke-dashoffset="0" stroke-linecap="butt" stroke-linejoin="round" stroke-miterlimit="4" stroke-opacity="1" stroke-width="2" d="M 3,35 21,39 21,61 3,57 Z" display="inline" enable-background="accumulate" overflow="visible" visibility="visible" style="marker:none"/><path id="path3765" fill="none" stroke="#729fcf" stroke-linecap="butt" stroke-linejoin="miter" stroke-opacity="1" stroke-width="2" d="m 5,37.42772 0.0087,17.919116 14.008671,3.268799 -0.0087,-17.933614 z"/><path id="path3775" fill="none" stroke="#3465a4" stroke-linecap="butt" stroke-linejoin="miter" stroke-opacity="1" stroke-width="2" d="m 23.01243,40.433833 -0.01226,17.535301 12.001105,-4.300993 3.6e-4,-15.867363 z"/></g><g id="g4179" transform="matrix(0.43860007,0,0,0.43860007,0.28477583,0.09133667)"><circle id="path2826" cx="31.636" cy="30.364" r="26.182" fill="url(#radialGradient3808)" fill-opacity="1" fill-rule="evenodd" stroke="#0b1521" stroke-width="1.806" color="#000" display="inline" enable-background="accumulate" overflow="visible" transform="matrix(1.1076389,0,0,1.1076389,-3.0416672,-1.6319442)" visibility="visible" style="marker:none"/><circle id="path2826-4" cx="31.636" cy="30.364" r="26.182" fill="none" stroke="#729fcf" stroke-dasharray="none" stroke-miterlimit="4" stroke-width="8.844" color="#000" display="inline" enable-background="accumulate" overflow="visible" transform="matrix(1.03125,0,0,1.03125,-0.62500046,0.68750048)" visibility="visible" style="marker:none"/><circle id="path2826-5" cx="31.636" cy="30.364" r="26.182" fill="none" stroke="#0b1521" stroke-dasharray="none" stroke-miterlimit="4" stroke-width="4.117" color="#000" display="inline" enable-background="accumulate" overflow="visible" transform="matrix(1.1076389,0,0,1.1076389,-3.0416672,-1.631944)" visibility="visible" style="marker:none"/></g><g id="g4310" transform="matrix(0.1618532,0,0,0.15917038,-152.87601,-154.29279)"><path id="path4312" fill="#8ae234" fill-opacity="1" stroke="#172a04" stroke-dasharray="none" stroke-miterlimit="4" stroke-opacity="1" stroke-width="15.576" d="m 1145.5648,1074.1543 c 18.5937,-18.383 48.2169,-28.9064 88.8688,-31.5737 l 0,-37.4326 c 0,-4.0003 1.9294,-6.80966 5.7868,-8.43006 4.0547,-1.61639 7.5171,-0.95178 10.3849,2.00121 l 75.9581,73.15065 c 1.8799,1.8121 2.8184,3.9543 2.8184,6.4303 0,2.4767 -0.9389,4.6185 -2.8184,6.429 l -75.9602,73.1502 c -1.7833,1.81 -4.0064,2.7148 -6.6772,2.7148 -1.1865,0 -2.4222,-0.2382 -3.7083,-0.7141 -3.8572,-1.6204 -5.7882,-4.4273 -5.7882,-8.4296 l 0,-35.8618 c -15.9228,1.2386 -29.1503,3.7387 -39.6881,7.5008 -10.5331,3.7627 -18.9637,9.0247 -25.2946,15.7879 -14.738,15.7158 -19.9806,42.6214 -15.7274,80.7237 0.1953,2.4775 -0.9389,4.0963 -3.4125,4.858 -0.2967,0.097 -0.7414,0.142 -1.3349,0.142 -1.9778,0 -3.361,-0.8095 -4.154,-2.4285 l -2.9667,-5.7148 c -1.3832,-2.6676 -3.3858,-6.9784 -6.007,-12.9313 -2.6194,-5.9556 -4.9969,-11.9071 -7.1237,-17.8612 -2.1269,-5.9515 -4.0298,-12.5235 -5.7119,-19.7147 -1.6805,-7.194 -2.5219,-13.5508 -2.5219,-19.074 0,-32.0039 8.3606,-56.2428 25.078,-72.7222 z" opacity="1"/><path id="path4314" fill="url(#linearGradient4316)" fill-opacity="1" stroke="none" stroke-dasharray="none" stroke-miterlimit="4" stroke-opacity="1" stroke-width="34.753" d="m 1252.6459,1025.0625 c 18.4441,17.7617 37.1632,35.1962 55.3062,53.3235 -19.0906,18.0067 -37.542,36.7844 -56.7747,54.6184 -0.018,-12.2743 -0.087,-24.5491 0.032,-36.8231 -26.4463,1.6409 -53.9694,3.575 -77.8197,17.2303 -17.0095,9.5803 -28.4884,27.8106 -34.5388,47.088 -3.5743,-21.5969 -1.2897,-45.3408 10.607,-63.6609 11.0273,-16.9013 29.5358,-25.7267 47.629,-30.3404 14.7839,-4.3279 30.2561,-4.0127 45.1276,-7.7257 7.8392,-4.3982 10.4187,-14.9284 9.2176,-23.8416 -0.062,-3.7919 -0.2886,-7.6325 -0.4323,-11.451 0.5488,0.5275 1.0977,1.055 1.6465,1.5825 z" opacity="1"/></g></g></svg>