<svg xmlns="http://www.w3.org/2000/svg" xmlns:svg="http://www.w3.org/2000/svg" xmlns:xlink="http://www.w3.org/1999/xlink" id="svg5821" width="64" height="64" version="1.1"><defs id="defs5823"><linearGradient id="linearGradient6349"><stop id="stop6351" offset="0" stop-color="#000" stop-opacity="1"/><stop id="stop6353" offset="1" stop-color="#000" stop-opacity="0"/></linearGradient><linearGradient id="linearGradient3377"><stop id="stop3379" offset="0" stop-color="#0019a3" stop-opacity="1"/><stop id="stop3381" offset="1" stop-color="#0069ff" stop-opacity="1"/></linearGradient><linearGradient id="linearGradient3383" x1="901.188" x2="1267.906" y1="1190.875" y2="1190.875" gradientTransform="matrix(-1,0,0,1,2199.356,0)" gradientUnits="userSpaceOnUse" xlink:href="#linearGradient3377"/><radialGradient id="radialGradient6355" cx="1103.64" cy="1424.447" r="194.406" fx="1103.64" fy="1424.447" gradientTransform="matrix(-1.4307499,-1.3605156e-7,-1.202713e-8,0.1264801,2674.7488,1244.2826)" gradientUnits="userSpaceOnUse" xlink:href="#linearGradient6349"/><linearGradient id="linearGradient3791-6"><stop id="stop3793-7" offset="0" stop-color="#204a87" stop-opacity="1"/><stop id="stop3795-5" offset="1" stop-color="#729fcf" stop-opacity="1"/></linearGradient><linearGradient id="linearGradient3820" x1="939.988" x2="893.257" y1="1097.512" y2="989.777" gradientUnits="userSpaceOnUse" xlink:href="#linearGradient3791-6"/><linearGradient id="linearGradient3791-0"><stop id="stop3793-6" offset="0" stop-color="#204a87" stop-opacity="1"/><stop id="stop3795-2" offset="1" stop-color="#729fcf" stop-opacity="1"/></linearGradient><linearGradient id="linearGradient3896" x1="939.988" x2="893.257" y1="1097.512" y2="989.777" gradientUnits="userSpaceOnUse" xlink:href="#linearGradient3791-0"/><linearGradient id="linearGradient3791-2"><stop id="stop3793-9" offset="0" stop-color="#204a87" stop-opacity="1"/><stop id="stop3795-3" offset="1" stop-color="#729fcf" stop-opacity="1"/></linearGradient><linearGradient id="linearGradient3896-1" x1="939.988" x2="893.257" y1="1097.512" y2="989.777" gradientUnits="userSpaceOnUse" xlink:href="#linearGradient3791-2"/><linearGradient id="linearGradient3774"><stop id="stop3776" offset="0" stop-color="#4e9a06" stop-opacity="1"/><stop id="stop3778" offset="1" stop-color="#8ae234" stop-opacity="1"/></linearGradient><linearGradient id="linearGradient4234" x1="1121.315" x2="1062.83" y1="1297.5" y2="1107.422" gradientTransform="matrix(0.99999995,0,0,1.0769231,-1.6476784,-89.65025)" gradientUnits="userSpaceOnUse" xlink:href="#linearGradient3791-2"/><linearGradient id="linearGradient4249" x1="1121.315" x2="1062.83" y1="1297.5" y2="1107.422" gradientTransform="matrix(0.99999995,0,0,1.0769231,-1.6476784,-89.65025)" gradientUnits="userSpaceOnUse" xlink:href="#linearGradient3791-2"/><linearGradient id="linearGradient4257" x1="1121.315" x2="1062.83" y1="1297.5" y2="1107.422" gradientTransform="matrix(0.99999995,0,0,1.0769231,-1.6476784,-89.65025)" gradientUnits="userSpaceOnUse" xlink:href="#linearGradient3791-2"/><linearGradient id="linearGradient5137" x1="288.112" x2="372.525" y1="358.158" y2="7.542" gradientTransform="matrix(-0.51964051,0,0,0.50042191,1386.3532,982.21378)" gradientUnits="userSpaceOnUse" xlink:href="#linearGradient3774"/></defs><g id="layer1"><g id="g3360" transform="matrix(0.1367863,0,0,0.1367863,-119.15519,-134.86962)"><g id="g4239" transform="matrix(0.89189188,0,0,0.89189188,3.6791971,61.741231)"><rect id="rect4224" width="255.874" height="255.874" x="988.076" y="1051.784" fill="#729fcf" fill-opacity="1" stroke="#0b1521" stroke-dasharray="none" stroke-linejoin="round" stroke-miterlimit="4" stroke-opacity="1" stroke-width="24.59" opacity="1"/><rect id="rect4226" width="204.699" height="204.699" x="1013.663" y="1077.371" fill="url(#linearGradient4234)" fill-opacity="1" stroke="none" stroke-dasharray="none" stroke-linejoin="round" stroke-miterlimit="4" stroke-opacity="1" stroke-width="14.621" opacity="1"/></g><g id="g4243" opacity="1" transform="matrix(0.89189188,0,0,0.89189188,106.02863,171.40134)"><rect id="rect4245" width="255.874" height="255.874" x="988.076" y="1051.784" fill="#729fcf" fill-opacity="1" stroke="#0b1521" stroke-dasharray="none" stroke-linejoin="round" stroke-miterlimit="4" stroke-opacity="1" stroke-width="24.59" opacity="1"/><rect id="rect4247" width="204.699" height="204.699" x="1013.663" y="1077.371" fill="url(#linearGradient4249)" fill-opacity="1" stroke="none" stroke-dasharray="none" stroke-linejoin="round" stroke-miterlimit="4" stroke-opacity="1" stroke-width="14.621" opacity="1"/></g><g id="g4251" opacity="1" transform="matrix(0.89189188,0,0,0.89189188,215.68873,273.75077)"><rect id="rect4253" width="255.874" height="255.874" x="988.076" y="1051.784" fill="#729fcf" fill-opacity="1" stroke="#0b1521" stroke-dasharray="none" stroke-linejoin="round" stroke-miterlimit="4" stroke-opacity="1" stroke-width="24.59" opacity="1"/><rect id="rect4255" width="204.699" height="204.699" x="1013.663" y="1077.371" fill="url(#linearGradient4257)" fill-opacity="1" stroke="none" stroke-dasharray="none" stroke-linejoin="round" stroke-miterlimit="4" stroke-opacity="1" stroke-width="14.621" opacity="1"/></g><g id="g4218" transform="matrix(1.2405632,0,0,1.2405632,-322.70498,-237.15777)"><path id="path4228" fill="#8ae234" fill-opacity="1" stroke="#172a04" stroke-dasharray="none" stroke-miterlimit="4" stroke-opacity="1" stroke-width="14.733" d="m 1145.5648,1074.1543 c 18.5937,-18.383 48.2169,-28.9064 88.8688,-31.5737 l 0,-37.4326 c 0,-4.0003 1.9294,-6.80966 5.7868,-8.43006 4.0547,-1.61639 7.5171,-0.95178 10.3849,2.00121 l 75.9581,73.15065 c 1.8799,1.8121 2.8184,3.9543 2.8184,6.4303 0,2.4767 -0.9389,4.6185 -2.8184,6.429 l -75.9602,73.1502 c -1.7833,1.81 -4.0064,2.7148 -6.6772,2.7148 -1.1865,0 -2.4222,-0.2382 -3.7083,-0.7141 -3.8572,-1.6204 -5.7882,-4.4273 -5.7882,-8.4296 l 0,-35.8618 c -15.9228,1.2386 -29.1503,3.7387 -39.6881,7.5008 -10.5331,3.7627 -18.9637,9.0247 -25.2946,15.7879 -14.738,15.7158 -19.9806,42.6214 -15.7274,80.7237 0.1953,2.4775 -0.9389,4.0963 -3.4125,4.858 -0.2967,0.097 -0.7414,0.142 -1.3349,0.142 -1.9778,0 -3.361,-0.8095 -4.154,-2.4285 l -2.9667,-5.7148 c -1.3832,-2.6676 -3.3858,-6.9784 -6.007,-12.9313 -2.6194,-5.9556 -4.9969,-11.9071 -7.1237,-17.8612 -2.1269,-5.9515 -4.0298,-12.5235 -5.7119,-19.7147 -1.6805,-7.194 -2.5219,-13.5508 -2.5219,-19.074 0,-32.0039 8.3606,-56.2428 25.078,-72.7222 z" opacity="1"/><path id="path5135" fill="url(#linearGradient5137)" fill-opacity="1" stroke="none" stroke-dasharray="none" stroke-miterlimit="4" stroke-opacity="1" stroke-width="34.753" d="m 1252.6459,1025.0625 c 18.4441,17.7617 37.1632,35.1962 55.3062,53.3235 -19.0906,18.0067 -37.542,36.7844 -56.7747,54.6184 -0.018,-12.2743 -0.087,-24.5491 0.032,-36.8231 -26.4463,1.6409 -53.9694,3.575 -77.8197,17.2303 -17.0095,9.5803 -28.4884,27.8106 -34.5388,47.088 -3.5743,-21.5969 -1.2897,-45.3408 10.607,-63.6609 11.0273,-16.9013 29.5358,-25.7267 47.629,-30.3404 14.7839,-4.3279 30.2561,-4.0127 45.1276,-7.7257 7.8392,-4.3982 10.4187,-14.9284 9.2176,-23.8416 -0.062,-3.7919 -0.2886,-7.6325 -0.4323,-11.451 0.5488,0.5275 1.0977,1.055 1.6465,1.5825 z" opacity="1"/></g></g></g><metadata id="metadata3357"/></svg>