<svg xmlns="http://www.w3.org/2000/svg" xmlns:svg="http://www.w3.org/2000/svg" xmlns:xlink="http://www.w3.org/1999/xlink" id="svg2" width="64" height="64" version="1.1" viewBox="0 0 64 64"><defs id="defs4"><marker id="marker4732" orient="auto" overflow="visible" refX="0" refY="0"><path id="path4734" fill="#0f0" fill-opacity="1" fill-rule="evenodd" stroke="#00ff08" stroke-linejoin="round" stroke-opacity="1" stroke-width=".625" d="M 8.7185878,4.0337352 -2.2072895,0.01601326 8.7185884,-4.0017078 c -1.7454984,2.3720609 -1.7354408,5.6174519 -6e-7,8.035443 z" transform="matrix(-1.1,0,0,-1.1,-1.1,0)"/></marker><marker id="Arrow2Lstart" orient="auto" overflow="visible" refX="0" refY="0"><path id="path4174" fill="#000" fill-opacity="1" fill-rule="evenodd" stroke="#000" stroke-linejoin="round" stroke-opacity="1" stroke-width=".625" d="M 8.7185878,4.0337352 -2.2072895,0.01601326 8.7185884,-4.0017078 c -1.7454984,2.3720609 -1.7354408,5.6174519 -6e-7,8.035443 z" transform="matrix(1.1,0,0,1.1,1.1,0)"/></marker><marker id="Arrow1Lstart" orient="auto" overflow="visible" refX="0" refY="0"><path id="path4156" fill="#000" fill-opacity="1" fill-rule="evenodd" stroke="#000" stroke-opacity="1" stroke-width="1pt" d="M 0,0 5,-5 -12.5,0 5,5 0,0 z" transform="matrix(0.8,0,0,0.8,10,0)"/></marker><radialGradient id="radialGradient4081-3" cx="16.481" cy="23.519" r="6" fx="16.481" fy="23.519" gradientTransform="matrix(0.63761699,0.70479955,-0.91978898,0.75319585,38.522094,989.88125)" gradientUnits="userSpaceOnUse" xlink:href="#linearGradient4067-6"/><linearGradient id="linearGradient4067-6"><stop id="stop4069-7" offset="0" stop-color="#888a85" stop-opacity="1"/><stop id="stop4071-5" offset="1" stop-color="#2e3436" stop-opacity="1"/></linearGradient><linearGradient id="linearGradient6349"><stop id="stop6351" offset="0" stop-color="#000" stop-opacity="1"/><stop id="stop6353" offset="1" stop-color="#000" stop-opacity="0"/></linearGradient><linearGradient id="linearGradient3377"><stop id="stop3379" offset="0" stop-color="#0019a3" stop-opacity="1"/><stop id="stop3381" offset="1" stop-color="#0069ff" stop-opacity="1"/></linearGradient><linearGradient id="linearGradient3383" x1="901.188" x2="1267.906" y1="1190.875" y2="1190.875" gradientTransform="matrix(-1,0,0,1,2199.356,0)" gradientUnits="userSpaceOnUse" xlink:href="#linearGradient3377"/><radialGradient id="radialGradient6355" cx="1103.64" cy="1424.447" r="194.406" fx="1103.64" fy="1424.447" gradientTransform="matrix(-1.4307499,-1.3605156e-7,-1.202713e-8,0.1264801,2674.7488,1244.2826)" gradientUnits="userSpaceOnUse" xlink:href="#linearGradient6349"/><linearGradient id="linearGradient3782" x1="33.053" x2="23.483" y1="73.677" y2="19.131" gradientUnits="userSpaceOnUse" xlink:href="#linearGradient3776"/><linearGradient id="linearGradient3776"><stop id="stop3778" offset="0" stop-color="#c00" stop-opacity="1"/><stop id="stop3780" offset="1" stop-color="#ef2929" stop-opacity="1"/></linearGradient><radialGradient id="radialGradient6355-2" cx="1103.64" cy="1424.447" r="194.406" fx="1103.64" fy="1424.447" gradientTransform="matrix(-1.4307499,-1.3605156e-7,-1.202713e-8,0.1264801,2674.7488,1244.2826)" gradientUnits="userSpaceOnUse" xlink:href="#linearGradient6349"/><marker id="marker4732-7" orient="auto" overflow="visible" refX="0" refY="0"><path id="path4734-5" fill="#0f0" fill-opacity="1" fill-rule="evenodd" stroke="#00ff08" stroke-linejoin="round" stroke-opacity="1" stroke-width=".625" d="M 8.7185878,4.0337352 -2.2072895,0.01601326 8.7185884,-4.0017078 c -1.7454984,2.3720609 -1.7354408,5.6174519 -6e-7,8.035443 z" transform="matrix(-1.1,0,0,-1.1,-1.1,0)"/></marker><marker id="Arrow2Lstart-3" orient="auto" overflow="visible" refX="0" refY="0"><path id="path4174-5" fill="#000" fill-opacity="1" fill-rule="evenodd" stroke="#000" stroke-linejoin="round" stroke-opacity="1" stroke-width=".625" d="M 8.7185878,4.0337352 -2.2072895,0.01601326 8.7185884,-4.0017078 c -1.7454984,2.3720609 -1.7354408,5.6174519 -6e-7,8.035443 z" transform="matrix(1.1,0,0,1.1,1.1,0)"/></marker><marker id="Arrow1Lstart-6" orient="auto" overflow="visible" refX="0" refY="0"><path id="path4156-2" fill="#000" fill-opacity="1" fill-rule="evenodd" stroke="#000" stroke-opacity="1" stroke-width="1pt" d="M 0,0 5,-5 -12.5,0 5,5 0,0 z" transform="matrix(0.8,0,0,0.8,10,0)"/></marker><marker id="marker4732-75" orient="auto" overflow="visible" refX="0" refY="0"><path id="path4734-3" fill="#0f0" fill-opacity="1" fill-rule="evenodd" stroke="#00ff08" stroke-linejoin="round" stroke-opacity="1" stroke-width=".625" d="M 8.7185878,4.0337352 -2.2072895,0.01601326 8.7185884,-4.0017078 c -1.7454984,2.3720609 -1.7354408,5.6174519 -6e-7,8.035443 z" transform="matrix(-1.1,0,0,-1.1,-1.1,0)"/></marker><marker id="Arrow2Lstart-5" orient="auto" overflow="visible" refX="0" refY="0"><path id="path4174-6" fill="#000" fill-opacity="1" fill-rule="evenodd" stroke="#000" stroke-linejoin="round" stroke-opacity="1" stroke-width=".625" d="M 8.7185878,4.0337352 -2.2072895,0.01601326 8.7185884,-4.0017078 c -1.7454984,2.3720609 -1.7354408,5.6174519 -6e-7,8.035443 z" transform="matrix(1.1,0,0,1.1,1.1,0)"/></marker><marker id="Arrow1Lstart-2" orient="auto" overflow="visible" refX="0" refY="0"><path id="path4156-9" fill="#000" fill-opacity="1" fill-rule="evenodd" stroke="#000" stroke-opacity="1" stroke-width="1pt" d="M 0,0 5,-5 -12.5,0 5,5 0,0 z" transform="matrix(0.8,0,0,0.8,10,0)"/></marker></defs><metadata id="metadata7"/><g id="layer1" transform="translate(0,-988.36216)"><rect id="rect1044" width="4" height="30" x="27.917" y="992.693" fill="#897e7e" fill-opacity="1" stroke="#403c3d" stroke-dasharray="none" stroke-linecap="round" stroke-linejoin="round" stroke-miterlimit="4" stroke-opacity="1" stroke-width="2" rx="0" ry="0"/><rect id="rect1044-0" width="4" height="30" x="1019.693" y="-58.917" fill="#897e7e" fill-opacity="1" stroke="#403c3d" stroke-dasharray="none" stroke-linecap="round" stroke-linejoin="round" stroke-miterlimit="4" stroke-opacity="1" stroke-width="2" rx="0" ry="0" transform="rotate(90)"/><rect id="rect1044-0-6" width="4" height="30" x="742.424" y="700.729" fill="#897e7e" fill-opacity="1" stroke="#403c3d" stroke-dasharray="none" stroke-linecap="round" stroke-linejoin="round" stroke-miterlimit="4" stroke-opacity="1" stroke-width="2" rx="0" ry="0" transform="rotate(45.129409)"/><circle id="path11841-1" cx="29.917" cy="1021.693" r="5" fill="url(#radialGradient4081-3)" fill-opacity="1" fill-rule="nonzero" stroke="#000" stroke-width="2"/><path id="path1076" fill="none" stroke="#403c3d" stroke-dasharray="none" stroke-linecap="round" stroke-linejoin="round" stroke-miterlimit="4" stroke-opacity="1" stroke-width="4" d="m 38.916894,998.69252 v 14.00008 h 16"/><path id="path1078" fill="none" stroke="#c00" stroke-dasharray="none" stroke-linecap="round" stroke-linejoin="round" stroke-miterlimit="4" stroke-opacity="1" stroke-width="2" d="m 38.916894,998.69252 v 14.00008 h 16"/><path id="path1076-2" fill="none" stroke="#403c3d" stroke-dasharray="none" stroke-linecap="round" stroke-linejoin="round" stroke-miterlimit="4" stroke-opacity="1" stroke-width="4" d="M 53,1032.3622 H 34 l -11,12"/><path id="path1078-6" fill="none" stroke="#3465a4" stroke-dasharray="none" stroke-linecap="round" stroke-linejoin="round" stroke-miterlimit="4" stroke-opacity="1" stroke-width="2" d="m 23,1044.3622 11,-12 h 19"/><path id="path1076-2-1" fill="none" stroke="#403c3d" stroke-dasharray="none" stroke-linecap="round" stroke-linejoin="round" stroke-miterlimit="4" stroke-opacity="1" stroke-width="4" d="m 19.916894,998.6926 v 18 l -12.0000003,12"/><path id="path1078-6-8" fill="none" stroke="#73d216" stroke-dasharray="none" stroke-linecap="round" stroke-linejoin="round" stroke-miterlimit="4" stroke-opacity="1" stroke-width="2" d="m 7.9168937,1028.6926 12.0000003,-12 v -18"/></g></svg>