<svg xmlns="http://www.w3.org/2000/svg" xmlns:freecad="http://www.freecadweb.org/wiki/index.php?title=Svg_Namespace" width="1189" height="841" version="1.1" viewBox="0 0 1189 841"><g id="orientation-border" fill="none" stroke="#000" stroke-linecap="miter" stroke-miterlimit="4" stroke-width=".25"><path d="m 6,6,h 1177"/><path d="m 6,5.875,v 829.25"/><path d="m 1183,5.875,v 829.25"/><path d="m 6,835,h 515.0625"/><path d="m 668.0625,835,h 515.0625"/><path d="m 79.5625,6 v 4"/><path d="m 153.125,6 v 4"/><path d="m 226.6875,6 v 4"/><path d="m 300.25,6 v 4"/><path d="m 373.8125,6 v 4"/><path d="m 447.375,6 v 4"/><path d="m 520.9375,6 v 4"/><path d="m 594.5,6 v 4"/><path d="m 668.0625,6 v 4"/><path d="m 741.625,6 v 4"/><path d="m 815.1875,6 v 4"/><path d="m 888.75,6 v 4"/><path d="m 962.3125,6 v 4"/><path d="m 1035.875,6 v 4"/><path d="m 1109.4375,6 v 4"/><path d="m 6,75.0835 h 4"/><path d="m 6,144.1668 h 4"/><path d="m 6,213.2501 h 4"/><path d="m 6,282.3334 h 4"/><path d="m 6,351.4167 h 4"/><path d="m 6,420.5 h 4"/><path d="m 6,489.5833 h 4"/><path d="m 6,558.6666 h 4"/><path d="m 6,627.7499 h 4"/><path d="m 6,696.8332 h 4"/><path d="m 6,765.9165 h 4"/><path d="m 1179,75.0835 h 4"/><path d="m 1179,144.1668 h 4"/><path d="m 1179,213.2501 h 4"/><path d="m 1179,282.3334 h 4"/><path d="m 1179,351.4167 h 4"/><path d="m 1179,420.5 h 4"/><path d="m 1179,489.5833 h 4"/><path d="m 1179,558.6666 h 4"/><path d="m 1179,627.7499 h 4"/><path d="m 1179,696.8332 h 4"/><path d="m 1179,765.9165 h 4"/><path d="m 79.5625,831 v 4"/><path d="m 153.125,831 v 4"/><path d="m 226.6875,831 v 4"/><path d="m 300.25,831 v 4"/><path d="m 373.8125,831 v 4"/><path d="m 447.375,831 v 4"/><path d="m 520.9375,831 v 4"/><path d="m 594.5,831 v 4"/><path d="m 668.0625,831 v 4"/><path d="m 741.625,831 v 4"/><path d="m 815.1875,831 v 4"/><path d="m 888.75,831 v 4"/><path d="m 962.3125,831 v 4"/><path d="m 1035.875,831 v 4"/><path d="m 1109.4375,831 v 4"/></g><g id="orientation-text" fill="#000" font-family="tahoma" font-size="3.5" text-anchor="start" xml:space="preserve"><text x="42.781" y="9">1</text><text x="116.344" y="9">2</text><text x="189.906" y="9">3</text><text x="263.469" y="9">4</text><text x="337.031" y="9">5</text><text x="410.594" y="9">6</text><text x="484.156" y="9">7</text><text x="557.719" y="9">8</text><text x="631.281" y="9">9</text><text x="704.844" y="9">10</text><text x="778.406" y="9">11</text><text x="851.969" y="9">12</text><text x="925.531" y="9">13</text><text x="999.094" y="9">14</text><text x="1072.656" y="9">15</text><text x="1146.219" y="9">16</text><text x="7" y="40.542">A</text><text x="7" y="109.625">B</text><text x="7" y="178.708">C</text><text x="7" y="247.792">D</text><text x="7" y="316.875">E</text><text x="7" y="385.958">F</text><text x="7" y="455.041">G</text><text x="7" y="524.125">H</text><text x="7" y="593.208">I</text><text x="7" y="662.291">J</text><text x="7" y="731.375">K</text><text x="7" y="800.458">L</text><text x="1180" y="40.542">A</text><text x="1180" y="109.625">B</text><text x="1180" y="178.708">C</text><text x="1180" y="247.792">D</text><text x="1180" y="316.875">E</text><text x="1180" y="385.958">F</text><text x="1180" y="455.041">G</text><text x="1180" y="524.125">H</text><text x="1180" y="593.208">I</text><text x="1180" y="662.291">J</text><text x="1180" y="731.375">K</text><text x="1180" y="800.458">L</text><text x="42.781" y="834">1</text><text x="116.344" y="834">2</text><text x="189.906" y="834">3</text><text x="263.469" y="834">4</text><text x="337.031" y="834">5</text><text x="410.594" y="834">6</text><text x="484.156" y="834">7</text><text x="704.844" y="834">10</text><text x="778.406" y="834">11</text><text x="851.969" y="834">12</text><text x="925.531" y="834">13</text><text x="999.094" y="834">14</text><text x="1072.656" y="834">15</text><text x="1146.219" y="834">16</text></g><g id="drawing-border" fill="none" stroke="#000" stroke-linecap="miter" stroke-miterlimit="4" stroke-width=".5"><rect width="1169" height="821" x="10" y="10"/></g><g id="titleblock-structure" fill="none" stroke="#000" stroke-linecap="miter" stroke-miterlimit="4" stroke-width=".5"><rect width="180" height="56" x="999" y="775"/><path d="m 999,782 h 80"/><path d="m 999,789 h 80"/><path d="m 999,796 h 80"/><path d="m 999,803 h 130"/><path d="m 999,810 h 80"/><path d="m 999,817 h 80"/><path d="m 999,824 h 80"/><path d="m 1009,775 v 28"/><path d="m 1019,775 v 28"/><path d="m 1035,775 v 28"/><path d="m 1051,775 v 56"/><path d="m 1063,775 v 56"/><path d="m 1079,775 v 56"/><path d="m 1129,775 v 56"/><path d="m 1011,803 v 28"/><path d="m 1023,803 v 28"/><path d="m 1039,803 v 28"/><path d="m 1079,813 h 50"/><path d="m 1079,822 h 50"/><path d="m 1129,790 h 50"/><path d="m 1129,811 h 50"/><path d="m 1085,813 v 9"/><path d="m 1092,813 v 9"/><path d="m 1098,813 v 9"/><path d="m 1105,803 v 19"/><path d="m 1117,803 v 19"/></g><g id="titleblock-text-non-editable" fill="#000" font-family="HYSWLongFangSong" font-size="5" text-anchor="start" xml:space="preserv e"><text x="1001" y="808">设计</text><text x="1012" y="808">(签名)</text><text x="1024" y="808">(年月日)</text><text x="1040" y="808">标准化</text><text x="1052" y="808">(签名)</text><text x="1064" y="808">(年月日)</text><text x="1041.5" y="822">制图</text><text x="1001" y="822">审核</text><text x="1001" y="829">工艺</text><text x="1041.5" y="829">批准</text><text x="1084" y="809">阶段标记</text><text x="1107" y="809">重量</text><text x="1119" y="809">比例</text><text x="1084" y="828">共</text><text x="1096" y="828">张</text><text x="1104" y="828">第</text><text x="1118" y="828">张</text><text x="1000.5" y="801">标记</text><text x="1010.5" y="801">处数</text><text x="1023" y="801">分区</text><text x="1035" y="801">更</text><text x="1038" y="801">改</text><text x="1041" y="801">文</text><text x="1044" y="801">件</text><text x="1047" y="801">号</text><text x="1053.5" y="801">签名</text><text x="1064" y="801">(年月日)</text><text style="kerning:-.5" x="1130" y="821" font-size="3.5" word-spacing="-.5">图纸幅面: A0</text><text style="kerning:-.5" x="1130" y="825" font-size="3.5" word-spacing="-.5">中国国标图纸贡献者</text><text style="kerning:-.5" x="1130" y="829" font-size="3.5" word-spacing="-.5">李峰 felix@95839.com</text></g><g id="titleblock-text-editable" fill="#000" font-family="HYSWLongFangSong" font-size="5" text-anchor="start" xml:space="preserve"><text x="993" y="815" freecad:editable="AUTHOR_NAME"><tspan>设计人</tspan></text><text x="1045" y="822" freecad:editable="DRAWING_NAME"><tspan>制图人</tspan></text><text x="1045" y="829" freecad:editable="APPROVER_NAME"><tspan>批准人</tspan></text><text x="1005" y="829" freecad:editable="CRAFTS_NAME"><tspan>评审人</tspan></text><text x="1005" y="822" freecad:editable="CHECKED_NAME"><tspan>审核人</tspan></text><text x="1081" y="828" freecad:editable="TOTAL_SHEETS"><tspan>99</tspan></text><text x="1103" y="828" freecad:editable="OF_SHEET"><tspan>1</tspan></text><text x="1111" y="819" freecad:editable="SCALE"><tspan>M x:x</tspan></text><text x="1099" y="819" freecad:editable="WEIGHT"><tspan>重量</tspan></text><text style="text-align:center" x="1059" y="815" fill="#000" font-family="HYSWLongFangSong" font-size="3.5" text-anchor="start" freecad:editable="DATE-1"><tspan>YYYY-MM-DD</tspan></text><text style="text-align:center" x="1019" y="815" fill="#000" font-family="HYSWLongFangSong" font-size="3.5" text-anchor="start" freecad:editable="DATE-2"><tspan>YYYY-MM-DD</tspan></text><text x="1123" y="779.5" freecad:editable="COMPANYNAME"><tspan>(单位名称/单位代号)</tspan></text><text x="1123" y="784.5" freecad:editable="COMPANYADDR"><tspan>(单位地址)</tspan></text><text x="1123" y="789.5" freecad:editable="COMPANYPHONE"><tspan>(单位电话/电邮)</tspan></text><text x="1085" y="789" freecad:editable="MATERIALMARK"><tspan>(材料标记)</tspan></text><text x="1123" y="795" freecad:editable="PROJECT_TITLE"><tspan>(项目标题)</tspan></text><text x="1123" y="800" freecad:editable="SUBTITLE"><tspan>(子项目标题)</tspan></text><text x="1123" y="805" freecad:editable="PARTNAME"><tspan>(零件名称)</tspan></text><text x="1123" y="810" freecad:editable="VERSION"><tspan>(版本号)</tspan></text><text x="1123" y="816" freecad:editable="PART_CODE_NAME"><tspan>(图样代号)</tspan></text><text x="992" y="773" freecad:editable="COPYRIGHT"><tspan>未经图纸所有人允许，请勿向第三方透漏此图纸任何信息！本图纸内容受《中华人民共和国版权法》保护。</tspan></text></g><g stroke="#000" stroke-width=".25"><line x1="1157" x2="1167" y1="826" y2="826" stroke-dasharray="2.75 .25 .25 .25 2.75 .25 .25 .25"/><line x1="1169" x2="1179" y1="826" y2="826" stroke-dasharray="2.75 .25 .25 .25 2.75 .25 .25 .25"/><line x1="1174" x2="1174" y1="821" y2="831" stroke-dasharray="2.75 .25 .25 .25 2.75 .25 .25 .25"/></g><g fill="none" stroke="#000" stroke-width=".25"><polygon points="1158 824 1166 822 1166 831 1158 828"/><circle cx="1174" cy="826" r="2"/><circle cx="1174" cy="826" r="4"/></g><g id="center-line" stroke="#000" stroke-width=".5"><line x1="594.5" x2="594.5" y1="826" y2="835"/><line x1="594.5" x2="594.5" y1="6" y2="15"/><line x1="6" x2="15" y1="420.5" y2="420.5"/><line x1="1174" x2="1183" y1="420.5" y2="420.5"/></g><g id="cut-marker" fill="#000" stroke="#000" stroke-width="2"><line x1="0" x2="10" y1="0" y2="0"/><line x1="0" x2="0" y1="0" y2="10"/><line x1="1179" x2="1189" y1="0" y2="0"/><line x1="1189" x2="1189" y1="0" y2="10"/><line x1="0" x2="0" y1="831" y2="841"/><line x1="0" x2="10" y1="841" y2="841"/><line x1="1179" x2="1189" y1="841" y2="841"/><line x1="1189" x2="1189" y1="831" y2="841"/></g><g id="metric-marker" stroke="#000" stroke-width=".5"><line x1="594.5" x2="594.5" y1="831" y2="841"/><line x1="544.5" x2="644.5" y1="835" y2="835"/><line x1="544.5" x2="544.5" y1="831" y2="835.25"/><line x1="554.5" x2="554.5" y1="831" y2="835.25"/><line x1="564.5" x2="564.5" y1="831" y2="835.25"/><line x1="574.5" x2="574.5" y1="831" y2="835.25"/><line x1="584.5" x2="584.5" y1="831" y2="835.25"/><line x1="604.5" x2="604.5" y1="831" y2="835.25"/><line x1="614.5" x2="614.5" y1="831" y2="835.25"/><line x1="624.5" x2="624.5" y1="831" y2="835.25"/><line x1="634.5" x2="634.5" y1="831" y2="835.25"/><line x1="644.5" x2="644.5" y1="831" y2="835.25"/></g><g id="direction-marker" fill="none" stroke="#000" stroke-width=".5"><polygon points="590 828 599 828 594.5 834"/></g></svg>