<svg xmlns="http://www.w3.org/2000/svg" xmlns:freecad="http://www.freecadweb.org/wiki/index.php?title=Svg_Namespace" width="841mm" height="594mm" version="1.1" viewBox="0 0 841 594"><g id="orientation-border" fill="none" stroke="#000" stroke-linecap="miter" stroke-miterlimit="4" stroke-width=".25"><path d="m 6,6,h 829"/><path d="m 6,5.875,v 582.25"/><path d="m 835,5.875,v 582.25"/><path d="m 6,588,h 336.2"/><path d="m 478.791,588,h 356.225"/><path d="m 68.42,6 v 4"/><path d="m 136.83,6 v 4"/><path d="m 205.23,6 v 4"/><path d="m 273.67,6 v 4"/><path d="m 342.08,6 v 4"/><path d="m 410.5,6 v 4"/><path d="m 478.916,6 v 4"/><path d="m 547.333,6 v 4"/><path d="m 615.75,6 v 4"/><path d="m 684.166,6 v 4"/><path d="m 752.583,6 v 4"/><path d="m 6,64.2 h 4"/><path d="m 6,122.4 h 4"/><path d="m 6,180.6 h 4"/><path d="m 6,238.8 h 4"/><path d="m 6,297 h 4"/><path d="m 6,355.2 h 4"/><path d="m 6,413.4 h 4"/><path d="m 6,471.6 h 4"/><path d="m 6,529.8 h 4"/><path d="m 831,64.2 h 4"/><path d="m 831,122.4 h 4"/><path d="m 831,180.6 h 4"/><path d="m 831,238.8 h 4"/><path d="m 831,297 h 4"/><path d="m 831,355.2 h 4"/><path d="m 831,413.4 h 4"/><path d="m 831,471.6 h 4"/><path d="m 831,529.8 h 4"/><path d="m 68.42,584 v 4"/><path d="m 136.83,584 v 4"/><path d="m 205.23,584 v 4"/><path d="m 273.67,584 v 4"/><path d="m 342.08,584 v 4"/><path d="m 478.916,584 v 4"/><path d="m 547.333,584 v 4"/><path d="m 615.75,584 v 4"/><path d="m 684.166,584 v 4"/><path d="m 752.583,584 v 4"/></g><g id="orientation-text" fill="#000" font-family="tahoma" font-size="3.5" text-anchor="start" xml:space="preserve"><text x="37.2" y="9">1</text><text x="101.6" y="9">2</text><text x="169.6" y="9">3</text><text x="238.02" y="9">4</text><text x="306.44" y="9">5</text><text x="374.86" y="9">6</text><text x="443.28" y="9">7</text><text x="511.7" y="9">8</text><text x="580.12" y="9">9</text><text x="648.54" y="9">10</text><text x="716.96" y="9">11</text><text x="785.38" y="9">12</text><text x="7" y="35.1">A</text><text x="7" y="93.3">B</text><text x="7" y="151.5">C</text><text x="7" y="209.7">D</text><text x="7" y="267.9">E</text><text x="7" y="326.1">F</text><text x="7" y="384.3">G</text><text x="7" y="442.5">H</text><text x="7" y="500.7">I</text><text x="7" y="558.9">J</text><text x="832" y="35.1">A</text><text x="832" y="93.3">B</text><text x="832" y="151.5">C</text><text x="832" y="209.7">D</text><text x="832" y="267.9">E</text><text x="832" y="326.1">F</text><text x="832" y="384.3">G</text><text x="832" y="442.5">H</text><text x="832" y="500.7">I</text><text x="832" y="558.9">J</text><text x="37.2" y="587">1</text><text x="101.6" y="587">2</text><text x="169.6" y="587">3</text><text x="238.02" y="587">4</text><text x="306.44" y="587">5</text><text x="511.7" y="587">8</text><text x="580.12" y="587">9</text><text x="648.54" y="587">10</text><text x="716.96" y="587">11</text><text x="785.38" y="587">12</text></g><g id="drawing-border" fill="none" stroke="#000" stroke-linecap="miter" stroke-miterlimit="4" stroke-width=".5"><rect width="821" height="574" x="10" y="10"/></g><g id="titleblock-structure" fill="none" stroke="#000" stroke-linecap="miter" stroke-miterlimit="4" stroke-width=".5"><rect width="180" height="56" x="651" y="528"/><path d="m 651,535 h 80"/><path d="m 651,542 h 80"/><path d="m 651,549 h 80"/><path d="m 651,556 h 130"/><path d="m 651,563 h 80"/><path d="m 651,570 h 80"/><path d="m 651,577 h 80"/><path d="m 661,528 v 28"/><path d="m 671,528 v 28"/><path d="m 687,528 v 28"/><path d="m 703,528 v 56"/><path d="m 715,528 v 56"/><path d="m 731,528 v 56"/><path d="m 781,528 v 56"/><path d="m 663,556 v 28"/><path d="m 675,556 v 28"/><path d="m 691,556 v 28"/><path d="m 731,566 h 50"/><path d="m 731,575 h 50"/><path d="m 781,543 h 50"/><path d="m 781,564 h 50"/><path d="m 737.5,566 v 9"/><path d="m 744,566 v 9"/><path d="m 750.5,566 v 9"/><path d="m 757,556 v 19"/><path d="m 769,556 v 19"/></g><g id="titleblock-text-non-editable" fill="#000" font-family="HYSWLongFangSong" font-size="5" text-anchor="start" xml:space="preserv e"><text x="653" y="561">设计</text><text x="664" y="561">(签名)</text><text x="676" y="561">(年月日)</text><text x="692" y="561">标准化</text><text x="704" y="561">(签名)</text><text x="716" y="561">(年月日)</text><text x="693.5" y="575">制图</text><text x="653" y="575">审核</text><text x="653" y="582">工艺</text><text x="693.5" y="582">批准</text><text x="736" y="562">阶段标记</text><text x="759" y="562">重量</text><text x="771" y="562">比例</text><text x="736" y="581">共</text><text x="748" y="581">张</text><text x="756" y="581">第</text><text x="770" y="581">张</text><text x="652.5" y="554">标记</text><text x="662.5" y="554">处数</text><text x="675" y="554">分区</text><text x="687" y="554">更</text><text x="690" y="554">改</text><text x="693" y="554">文</text><text x="696" y="554">件</text><text x="699" y="554">号</text><text x="705.5" y="554">签名</text><text x="716" y="554">(年月日)</text><text style="kerning:-.5" x="782" y="574" font-size="3.5" word-spacing="-.5">图纸幅面：A1</text><text style="kerning:-.5" x="782" y="578" font-size="3.5" word-spacing="-.5">中国国标图纸贡献者</text><text style="kerning:-.5" x="782" y="582" font-size="3.5" word-spacing="-.5">李峰 felix@95839.com</text></g><g id="titleblock-text-editable" fill="#000" font-family="HYSWLongFangSong" font-size="5" text-anchor="start" xml:space="preserve"><text x="645" y="568" freecad:editable="AUTHOR_NAME"><tspan>设计人</tspan></text><text x="697" y="575" freecad:editable="DRAWING_NAME"><tspan>制图人</tspan></text><text x="697" y="582" freecad:editable="APPROVER_NAME"><tspan>批准人</tspan></text><text x="656.5" y="582" freecad:editable="CRAFTS_NAME"><tspan>评审人</tspan></text><text x="657" y="575" freecad:editable="CHECKED_NAME"><tspan>审核人</tspan></text><text x="733" y="581" freecad:editable="TOTAL_SHEETS"><tspan>99</tspan></text><text x="755" y="581" freecad:editable="OF_SHEET"><tspan>1</tspan></text><text x="763" y="572" freecad:editable="SCALE"><tspan>M x:x</tspan></text><text x="751" y="572" freecad:editable="WEIGHT"><tspan>重量</tspan></text><text style="text-align:center" x="711" y="568" fill="#000" font-family="HYSWLongFangSong" font-size="3.5" text-anchor="start" freecad:editable="DATE-1"><tspan>YYYY-MM-DD</tspan></text><text style="text-align:center" x="671" y="568" fill="#000" font-family="HYSWLongFangSong" font-size="3.5" text-anchor="start" freecad:editable="DATE-2"><tspan>YYYY-MM-DD</tspan></text><text x="775" y="532.5" freecad:editable="COMPANYNAME"><tspan>(单位名称/单位代号)</tspan></text><text x="775" y="537.5" freecad:editable="COMPANYADDR"><tspan>(单位地址)</tspan></text><text x="775" y="542.5" freecad:editable="COMPANYPHONE"><tspan>(单位电话/电邮)</tspan></text><text x="737" y="542" freecad:editable="MATERIALMARK"><tspan>(材料标记)</tspan></text><text x="775" y="548" freecad:editable="PROJECT_TITLE"><tspan>(项目标题)</tspan></text><text x="775" y="553" freecad:editable="SUBTITLE"><tspan>(子项目标题)</tspan></text><text x="775" y="558" freecad:editable="PARTNAME"><tspan>(零件名称)</tspan></text><text x="775" y="563" freecad:editable="VERSION"><tspan>(版本号)</tspan></text><text x="775" y="569" freecad:editable="PART_CODE_NAME"><tspan>(图样代号)</tspan></text><text x="644" y="526" freecad:editable="COPYRIGHT"><tspan>未经图纸所有人允许，请勿向第三方透漏此图纸任何信息！本图纸内容受《中华人民共和国版权法》保护。</tspan></text></g><g stroke="#000" stroke-width=".945"><line x1="809" x2="819" y1="579" y2="579" stroke-dasharray="2.75 .25 .25 .25 2.75 .25 .25 .25"/><line x1="821" x2="831" y1="579" y2="579" stroke-dasharray="2.75 .25 .25 .25 2.75 .25 .25 .25"/><line x1="826" x2="826" y1="574" y2="584" stroke-dasharray="2.75 .25 .25 .25 2.75 .25 .25 .25"/></g><g fill="none" stroke="#000" stroke-width=".945"><polygon points="810 577 818 575 818 583 810 581"/><circle cx="826" cy="579" r="2"/><circle cx="826" cy="579" r="4"/></g><g id="center-line" stroke="#000" stroke-width="1.89"><line x1="410.5" x2="410.5" y1="579" y2="584"/><line x1="410.5" x2="410.5" y1="6" y2="15"/><line x1="6" x2="15" y1="297" y2="297"/><line x1="826" x2="835" y1="297" y2="297"/></g><g id="cut-marker" fill="#000" stroke="#000" stroke-width="2"><line x1="0" x2="10" y1="0" y2="0"/><line x1="0" x2="0" y1="0" y2="10"/><line x1="841" x2="841" y1="0" y2="0"/><line x1="841" x2="841" y1="0" y2="10"/><line x1="0" x2="0" y1="584" y2="594"/><line x1="0" x2="10" y1="594" y2="594"/><line x1="831" x2="841" y1="594" y2="594"/><line x1="841" x2="841" y1="584" y2="594"/></g><g id="metric-marker" stroke="#000" stroke-width="1.89"><line x1="410.5" x2="410.5" y1="584" y2="594"/><line x1="360.5" x2="460.5" y1="588" y2="588"/><line x1="360.5" x2="360.5" y1="584" y2="588.25"/><line x1="370.5" x2="370.5" y1="584" y2="588.25"/><line x1="380.5" x2="380.5" y1="584" y2="588.25"/><line x1="390.5" x2="390.5" y1="584" y2="588.25"/><line x1="400.5" x2="400.5" y1="584" y2="588.25"/><line x1="420.5" x2="420.5" y1="584" y2="588.25"/><line x1="430.5" x2="430.5" y1="584" y2="588.25"/><line x1="440.5" x2="440.5" y1="584" y2="588.25"/><line x1="450.5" x2="450.5" y1="584" y2="588.25"/><line x1="460.5" x2="460.5" y1="584" y2="588.25"/></g><g id="direction-marker" fill="none" stroke="#000" stroke-width=".5"><polygon points="406.5 581 415 581 410.5 587"/></g></svg>