<svg xmlns="http://www.w3.org/2000/svg" xmlns:freecad="http://www.freecadweb.org/wiki/index.php?title=Svg_Namespace" width="594" height="420" version="1.1" viewBox="0 0 594 420"><g id="orientation-border" fill="none" stroke="#000" stroke-linecap="miter" stroke-miterlimit="4" stroke-width=".25"><path d="m 6,6,h 582"/><path d="m 6,5.875,v 408.25"/><path d="m 588,5.875,v 408.25"/><path d="m 6,414,h 231.725"/><path d="m 356.4,414,h 231.725"/><path d="m 59.4,6 v 4"/><path d="m 118.8,6 v 4"/><path d="m 178.2,6 v 4"/><path d="m 237.6,6 v 4"/><path d="m 297,6 v 4"/><path d="m 356.4,6 v 4"/><path d="m 415.8,6 v 4"/><path d="m 475.2,6 v 4"/><path d="m 534.6,6 v 4"/><path d="m 6,52.5 h 4"/><path d="m 6,105 h 4"/><path d="m 6,157.5 h 4"/><path d="m 6,210 h 4"/><path d="m 6,262.5 h 4"/><path d="m 6,315 h 4"/><path d="m 6,367.5 h 4"/><path d="m 584,52.5 h 4"/><path d="m 584,105 h 4"/><path d="m 584,157.5 h 4"/><path d="m 584,210 h 4"/><path d="m 584,262.5 h 4"/><path d="m 584,315 h 4"/><path d="m 584,367.5 h 4"/><path d="m 59.4,410 v 4"/><path d="m 118.8,410 v 4"/><path d="m 178.2,410 v 4"/><path d="m 237.6,410 v 4"/><path d="m 356.4,410 v 4"/><path d="m 415.8,410 v 4"/><path d="m 475.2,410 v 4"/><path d="m 534.6,410 v 4"/></g><g id="orientation-text" fill="#000" font-family="tahoma" font-size="3.5" text-anchor="start" xml:space="preserve"><text x="29.7" y="9">1</text><text x="89.1" y="9">2</text><text x="148.5" y="9">3</text><text x="207.9" y="9">4</text><text x="267.3" y="9">5</text><text x="326.7" y="9">6</text><text x="386.1" y="9">7</text><text x="445.5" y="9">8</text><text x="504.9" y="9">9</text><text x="564.3" y="9">10</text><text x="7" y="26.25">A</text><text x="7" y="78.75">B</text><text x="7" y="131.25">C</text><text x="7" y="183.75">D</text><text x="7" y="236.25">E</text><text x="7" y="288.75">F</text><text x="7" y="341.25">G</text><text x="7" y="393.75">H</text><text x="585" y="26.25">A</text><text x="585" y="78.75">B</text><text x="585" y="131.25">C</text><text x="585" y="183.75">D</text><text x="585" y="236.25">E</text><text x="585" y="288.75">F</text><text x="585" y="341.25">G</text><text x="585" y="393.75">H</text><text x="29.7" y="413">1</text><text x="89.1" y="413">2</text><text x="148.5" y="413">3</text><text x="207.9" y="413">4</text><text x="386.1" y="413">7</text><text x="445.5" y="413">8</text><text x="504.9" y="413">9</text><text x="564.3" y="413">10</text></g><g id="drawing-border" fill="none" stroke="#000" stroke-linecap="miter" stroke-miterlimit="4" stroke-width=".5"><rect width="574" height="400" x="10" y="10"/></g><g id="titleblock-structure" fill="none" stroke="#000" stroke-linecap="miter" stroke-miterlimit="4" stroke-width=".5"><rect width="180" height="56" x="404" y="354"/><path d="m 404,361 h 80"/><path d="m 404,368 h 80"/><path d="m 404,375 h 80"/><path d="m 404,382 h 130"/><path d="m 404,389 h 80"/><path d="m 404,396 h 80"/><path d="m 404,403 h 80"/><path d="m 414,354 v 28"/><path d="m 424,354 v 28"/><path d="m 440,354 v 28"/><path d="m 456,354 v 56"/><path d="m 468,354 v 56"/><path d="m 484,354 v 56"/><path d="m 534,354 v 56"/><path d="m 416,382 v 28"/><path d="m 428,382 v 28"/><path d="m 444,382 v 28"/><path d="m 484,392 h 50"/><path d="m 484,401 h 50"/><path d="m 534,369 h 50"/><path d="m 534,390 h 50"/><path d="m 490.5,392 v 9"/><path d="m 497,392 v 9"/><path d="m 503.5,392 v 9"/><path d="m 510,382 v 19"/><path d="m 522,382 v 19"/></g><g id="titleblock-text-non-editable" fill="#000" font-family="HYSWLongFangSong" font-size="5" text-anchor="start" xml:space="preserve"><text x="406" y="387">设计</text><text x="417" y="387">(签名)</text><text x="429" y="387">(年月日)</text><text x="445" y="387">标准化</text><text x="457" y="387">(签名)</text><text x="469" y="387">(年月日)</text><text x="446.5" y="401">制图</text><text x="406" y="401">审核</text><text x="406" y="408">工艺</text><text x="446.5" y="408">批准</text><text x="489" y="388">阶段标记</text><text x="512" y="388">重量</text><text x="524" y="388">比例</text><text x="489" y="407">共</text><text x="501" y="407">张</text><text x="509" y="407">第</text><text x="523" y="407">张</text><text x="405.5" y="380">标记</text><text x="415.5" y="380">处数</text><text x="428" y="380">分区</text><text x="440" y="380">更</text><text x="443" y="380">改</text><text x="446" y="380">文</text><text x="449" y="380">件</text><text x="452" y="380">号</text><text x="458.5" y="380">签名</text><text x="469" y="380">(年月日)</text><text style="kerning:-.5" x="535" y="400" font-size="3.5" word-spacing="-.5">图纸幅面: A2</text><text style="kerning:-.5" x="535" y="404" font-size="3.5" word-spacing="-.5">中国国标图纸贡献者</text><text style="kerning:-.5" x="535" y="408" font-size="3.5" word-spacing="-.5">李峰 felix@95839.com</text></g><g id="titleblock-text-editable" fill="#000" font-family="HYSWLongFangSong" font-size="5" text-anchor="start" xml:space="preserve"><text x="398" y="394" freecad:editable="AUTHOR_NAME"><tspan>设计人</tspan></text><text x="450" y="401" freecad:editable="DRAWING_NAME"><tspan>制图人</tspan></text><text x="450" y="408" freecad:editable="APPROVER_NAME"><tspan>批准人</tspan></text><text x="409.5" y="408" freecad:editable="CRAFTS_NAME"><tspan>评审人</tspan></text><text x="410" y="401" freecad:editable="CHECKED_NAME"><tspan>审核人</tspan></text><text x="486" y="407" freecad:editable="TOTAL_SHEETS"><tspan>99</tspan></text><text x="508" y="407" freecad:editable="OF_SHEET"><tspan>1</tspan></text><text x="516" y="398" freecad:editable="SCALE"><tspan>M x:x</tspan></text><text x="504" y="398" freecad:editable="WEIGHT"><tspan>重量</tspan></text><text style="text-align:center" x="464" y="394" fill="#000" font-family="HYSWLongFangSong" font-size="3.5" text-anchor="start" freecad:editable="DATE-1"><tspan>YYYY-MM-DD</tspan></text><text style="text-align:center" x="424" y="394" fill="#000" font-family="HYSWLongFangSong" font-size="3.5" text-anchor="start" freecad:editable="DATE-2"><tspan>YYYY-MM-DD</tspan></text><text x="528" y="358.5" freecad:editable="COMPANYNAME"><tspan>(单位名称/单位代号)</tspan></text><text x="528" y="363.5" freecad:editable="COMPANYADDR"><tspan>(单位地址)</tspan></text><text x="528" y="368.5" freecad:editable="COMPANYPHONE"><tspan>(单位电话/电邮)</tspan></text><text x="490" y="368" freecad:editable="MATERIALMARK"><tspan>(材料标记)</tspan></text><text x="528" y="374" freecad:editable="PROJECT_TITLE"><tspan>(项目标题)</tspan></text><text x="528" y="379" freecad:editable="SUBTITLE"><tspan>(子项目标题)</tspan></text><text x="528" y="384" freecad:editable="PARTNAME"><tspan>(零件名称)</tspan></text><text x="528" y="389" freecad:editable="VERSION"><tspan>(版本号)</tspan></text><text x="528" y="396" freecad:editable="PART_CODE_NAME"><tspan>(图样代号)</tspan></text><text x="397" y="352" freecad:editable="COPYRIGHT"><tspan>未经图纸所有人允许，请勿向第三方透漏此图纸任何信息！本图纸内容受《中华人民共和国版权法》保护。</tspan></text></g><g stroke="#000" stroke-width=".25"><line x1="562" x2="572" y1="405" y2="405" stroke-dasharray="2.75 .25 .25 .25 2.75 .25 .25 .25"/><line x1="574" x2="584" y1="405" y2="405" stroke-dasharray="2.75 .25 .25 .25 2.75 .25 .25 .25"/><line x1="579" x2="579" y1="400" y2="410" stroke-dasharray="2.75 .25 .25 .25 2.75 .25 .25 .25"/></g><g fill="none" stroke="#000" stroke-width=".25"><polygon points="563 403 571 401 571 409 563 407"/><circle cx="579" cy="405" r="2"/><circle cx="579" cy="405" r="4"/></g><g id="center-line" stroke="#000" stroke-width=".5"><line x1="297" x2="297" y1="405" y2="414"/><line x1="297" x2="297" y1="6" y2="15"/><line x1="6" x2="15" y1="210" y2="210"/><line x1="579" x2="588" y1="210" y2="210"/></g><g id="cut-marker" fill="#000" stroke="#000" stroke-width="2"><line x1="0" x2="10" y1="0" y2="0"/><line x1="0" x2="0" y1="0" y2="10"/><line x1="584" x2="594" y1="0" y2="0"/><line x1="594" x2="594" y1="0" y2="10"/><line x1="0" x2="0" y1="410" y2="420"/><line x1="0" x2="10" y1="420" y2="420"/><line x1="584" x2="594" y1="420" y2="420"/><line x1="594" x2="594" y1="410" y2="420"/></g><g stroke="#000" stroke-width=".5"><line x1="297" x2="297" y1="410" y2="420"/><line x1="247" x2="347" y1="414" y2="414"/><line x1="247" x2="247" y1="410" y2="414.25"/><line x1="257" x2="257" y1="410" y2="414.25"/><line x1="267" x2="267" y1="410" y2="414.25"/><line x1="277" x2="277" y1="410" y2="414.25"/><line x1="287" x2="287" y1="410" y2="414.25"/><line x1="307" x2="307" y1="410" y2="414.25"/><line x1="317" x2="317" y1="410" y2="414.25"/><line x1="327" x2="327" y1="410" y2="414.25"/><line x1="337" x2="337" y1="410" y2="414.25"/><line x1="347" x2="347" y1="410" y2="414.25"/></g><g id="direction-marker" fill="none" stroke="#000" stroke-width=".5"><polygon points="292.5 407 301.5 407 297 413"/></g></svg>