<svg xmlns="http://www.w3.org/2000/svg" xmlns:freecad="http://www.freecadweb.org/wiki/index.php?title=Svg_Namespace" width="420" height="297" version="1.1" viewBox="0 0 420 297"><g id="orienation-border" fill="none" stroke="#000" stroke-linecap="miter" stroke-miterlimit="4" stroke-width=".25"><path d="m 6,6 h 408"/><path d="m 6,5.875 v 285.125"/><path d="m 414,5.875 v 285.125"/><path d="m 6,291.125 h 151.625"/><path d="m 262.375,291.125 h 151.75"/><path d="m 52.5,6 v 4"/><path d="m 105,6 v 4"/><path d="m 157.5,6 v 4"/><path d="m 210,6 v 4"/><path d="m 262.5,6 v 4"/><path d="m 315,6 v 4"/><path d="m 367.5,6 v 4"/><path d="m 6,49.5 h 4"/><path d="m 6,99 h 4"/><path d="m 6,148.5 h 4"/><path d="m 6,198 h 4"/><path d="m 6,247.5 h 4"/><path d="m 410,49.5 h 4"/><path d="m 410,99 h 4"/><path d="m 410,148.5 h 4"/><path d="m 410,198 h 4"/><path d="m 410,247.5 h 4"/><path d="m 52.5,287 v 4"/><path d="m 105,287 v 4"/><path d="m 157.5,287 v 4"/><path d="m 262.5,287 v 4"/><path d="m 315,287 v 4"/><path d="m 367.5,287 v 4"/></g><g id="orientation-text" fill="#000" font-family="tahoma" font-size="3.5" text-anchor="start" xml:space="preserve"><text x="26.25" y="9.25">1</text><text x="78.75" y="9.25">2</text><text x="131.25" y="9.25">3</text><text x="183.75" y="9.25">4</text><text x="236.25" y="9.25">5</text><text x="288.75" y="9.25">6</text><text x="341.25" y="9.25">7</text><text x="393.75" y="9.25">8</text><text x="7" y="24.75">A</text><text x="7" y="74.25">B</text><text x="7" y="123.75">C</text><text x="7" y="173.25">D</text><text x="7" y="222.75">E</text><text x="7" y="272.25">F</text><text x="411" y="24.75">A</text><text x="411" y="74.25">B</text><text x="411" y="123.75">C</text><text x="411" y="173.25">D</text><text x="411" y="222.75">E</text><text x="411" y="272.25">F</text><text x="26.25" y="290.25">1</text><text x="78.75" y="290.25">2</text><text x="131.25" y="290.25">3</text><text x="288.75" y="290.25">6</text><text x="341.25" y="290.25">7</text><text x="393.75" y="290.25">8</text></g><g id="drawing-border" fill="none" stroke="#000" stroke-linecap="miter" stroke-miterlimit="4" stroke-width=".5"><rect width="400" height="277" x="10" y="10"/></g><g id="titleblock-structure" fill="none" stroke="#000" stroke-linecap="miter" stroke-miterlimit="4" stroke-width=".5"><rect width="180" height="56" x="230" y="231"/><path d="m 230,238 h 80"/><path d="m 230,245 h 80"/><path d="m 230,252 h 80"/><path d="m 230,259 h 130"/><path d="m 230,266 h 80"/><path d="m 230,273 h 80"/><path d="m 230,280 h 80"/><path d="m 240,231 v 28"/><path d="m 250,231 v 28"/><path d="m 266,231 v 28"/><path d="m 282,231 v 56"/><path d="m 294,231 v 56"/><path d="m 310,231 v 56"/><path d="m 360,231 v 56"/><path d="m 242,259 v 28"/><path d="m 254,259 v 28"/><path d="m 270,259 v 28"/><path d="m 310,269 h 50"/><path d="m 310,278 h 50"/><path d="m 360,246 h 50"/><path d="m 360,267 h 50"/><path d="m 316.5,269 v 9"/><path d="m 323,269 v 9"/><path d="m 329.5,269 v 9"/><path d="m 336,259 v 19"/><path d="m 348,259 v 19"/></g><g id="titleblock-text-non-editable" fill="#000" font-family="HYSWLongFangSong" font-size="5" text-anchor="start" xml:space="preserve"><text x="232" y="264">设计</text><text x="243" y="264">(签名)</text><text x="255" y="264">(年月日)</text><text x="271" y="264">标准化</text><text x="283" y="264">(签名)</text><text x="295" y="264">(年月日)</text><text x="272.5" y="278">制图</text><text x="232" y="278">审核</text><text x="232" y="285">工艺</text><text x="272.5" y="285">批准</text><text x="315" y="265">阶段标记</text><text x="338" y="265">重量</text><text x="350" y="265">比例</text><text x="315" y="284">共</text><text x="327" y="284">张</text><text x="335" y="284">第</text><text x="349" y="284">张</text><text x="231.5" y="257">标记</text><text x="241.5" y="257">处数</text><text x="254" y="257">分区</text><text x="266" y="257">更</text><text x="269" y="257">改</text><text x="272" y="257">文</text><text x="275" y="257">件</text><text x="278" y="257">号</text><text x="284.5" y="257">签名</text><text x="295" y="257">(年月日)</text><text style="kerning:-.5" x="361" y="278" font-size="3.5" word-spacing="-.5">图纸幅面: A3</text><text style="kerning:-.5" x="361" y="282" font-size="3.5" word-spacing="-.5">中国国标图纸贡献者</text><text style="kerning:-.5" x="361" y="286" font-size="3.5" word-spacing="-.5">李峰 felix@95839.com</text></g><g id="titleblock-text-editable" fill="#000" font-family="HYSWLongFangSong" font-size="5" text-anchor="start" xml:space="preserve"><text x="224" y="271" freecad:editable="AUTHOR_NAME"><tspan>设计人</tspan></text><text x="235.5" y="278" freecad:editable="CHECKED_NAME"><tspan>审核人</tspan></text><text x="235.5" y="285" freecad:editable="CRAFTS_NAME"><tspan>评审人</tspan></text><text x="275.5" y="278" freecad:editable="DRAWING_NAME"><tspan>制图人</tspan></text><text x="275.5" y="285" freecad:editable="APPROVER_NAME"><tspan>批准人</tspan></text><text x="313" y="284" freecad:editable="TOTAL_SHEETS"><tspan>99</tspan></text><text x="333.5" y="284" freecad:editable="OF_SHEET"><tspan>1</tspan></text><text x="342" y="275" freecad:editable="SCALE"><tspan>M x:x</tspan></text><text x="330" y="275" freecad:editable="WEIGHT"><tspan>重量</tspan></text><text style="text-align:center" x="288.5" y="270.5" fill="#000" font-family="HYSWLongFangSong" font-size="3.5" text-anchor="start" freecad:editable="DATE-1"><tspan>YYYY-MM-DD</tspan></text><text style="text-align:center" x="248.5" y="270.5" fill="#000" font-family="HYSWLongFangSong" font-size="3.5" text-anchor="start" freecad:editable="DATE-2"><tspan>YYYY-MM-DD</tspan></text><text x="353.5" y="235" freecad:editable="COMPANYNAME"><tspan>(单位名称/单位代号)</tspan></text><text x="353.5" y="240" freecad:editable="COMPANYADDR"><tspan>(单位地址)</tspan></text><text x="353.5" y="245" freecad:editable="COMPANYPHONE"><tspan>(单位电话/电邮)</tspan></text><text x="335" y="246" text-anchor="middle" freecad:editable="MATERIALMARK"><tspan>(材料标记)</tspan></text><text x="353.5" y="250.5" freecad:editable="PROJECT_TITLE"><tspan>(项目标题)</tspan></text><text x="353.5" y="255.5" freecad:editable="SUBTITLE"><tspan>(子项目标题)</tspan></text><text x="353.5" y="260.5" freecad:editable="PARTNAME"><tspan>(零件名称)</tspan></text><text x="353.5" y="265.5" freecad:editable="VERSION"><tspan>(版本号)</tspan></text><text x="354" y="273" freecad:editable="PART_CODE_NAME"><tspan>(图样代号)</tspan></text><text x="223" y="229" freecad:editable="COPYRIGHT"><tspan>未经图纸所有人允许，请勿向第三方透漏此图纸任何信息！本图纸内容受《中华人民共和国版权法》保护。</tspan></text></g><g stroke="#000" stroke-width=".25"><line x1="388" x2="398" y1="282" y2="282" stroke-dasharray="2.75 .25 .25 .25 2.75 .25 .25 .25"/><line x1="400" x2="410" y1="282" y2="282" stroke-dasharray="2.75 .25 .25 .25 2.75 .25 .25 .25"/><line x1="405" x2="405" y1="277" y2="287" stroke-dasharray="2.75 .25 .25 .25 2.75 .25 .25 .25"/></g><g fill="none" stroke="#000" stroke-width=".25"><polygon points="389 280 397 278 397 286 389 284"/><circle cx="405" cy="282" r="2"/><circle cx="405" cy="282" r="4"/></g><g id="center-line" stroke="#000" stroke-width=".5"><line x1="210" x2="210" y1="291" y2="282"/><line x1="210" x2="210" y1="6" y2="15"/><line x1="6" x2="15" y1="148.5" y2="148.5"/><line x1="414" x2="405" y1="148.5" y2="148.5"/></g><g stroke="#000" stroke-width="2"><line x1="0" x2="0" y1="0" y2="10"/><line x1="0" x2="10" y1="0" y2="0"/><line x1="0" x2="0" y1="287" y2="297"/><line x1="0" x2="10" y1="297" y2="297"/><line x1="410" x2="420" y1="0" y2="0"/><line x1="420" x2="420" y1="0" y2="10"/><line x1="410" x2="420" y1="297" y2="297"/><line x1="420" x2="420" y1="297" y2="287"/></g><g id="metric-mark" stroke="#000" stroke-width=".5"><line x1="210" x2="210" y1="287" y2="297"/><line x1="160" x2="260" y1="291.125" y2="291.125"/><line x1="160" x2="160" y1="287" y2="291.25"/><line x1="170" x2="170" y1="287" y2="291"/><line x1="180" x2="180" y1="287" y2="291"/><line x1="190" x2="190" y1="287" y2="291"/><line x1="200" x2="200" y1="287" y2="291"/><line x1="220" x2="220" y1="287" y2="291"/><line x1="230" x2="230" y1="287" y2="291"/><line x1="240" x2="240" y1="287" y2="291"/><line x1="250" x2="250" y1="287" y2="291"/><line x1="260" x2="260" y1="287" y2="291.25"/></g><g id="direction-marker" fill="none" stroke="#000" stroke-width=".5"><polygon points="205.5 284 214.5 284 210 290"/></g></svg>