<svg xmlns="http://www.w3.org/2000/svg" xmlns:freecad="http://www.freecadweb.org/wiki/index.php?title=Svg_Namespace" width="297" height="210" version="1.1" viewBox="0 0 297 210"><g id="orienation-border" fill="none" stroke="#000" stroke-linecap="miter" stroke-miterlimit="4" stroke-width=".25"><path d="m 6,6 h 285"/><path d="m 6,5.875 v 198.125"/><path d="m 291,5.875 v 198.125"/><path d="m 6,204 h 47.625"/><path d="m 237.5,204 h 53.625"/><path d="m 53.5,6 v 4"/><path d="m 101,6 v 4"/><path d="m 148.5,6 v 4"/><path d="m 190,6 v 4"/><path d="m 237.5,6 v 4"/><path d="m 6,55.5 h 4"/><path d="m 6,105 h 4"/><path d="m 6,154.5 h 4"/><path d="m 287,55.5 h 4"/><path d="m 287,105 h 4"/><path d="m 287,154.5 h 4"/><path d="m 53.5,200 v 4"/><path d="m 237.5,200 v 4"/></g><g id="orientation-text" fill="#000" font-family="tahoma" font-size="3.5" text-anchor="start" xml:space="preserve"><text x="29.75" y="9.25">1</text><text x="77.25" y="9.25">2</text><text x="124.75" y="9.25">3</text><text x="172.25" y="9.25">4</text><text x="219.75" y="9.25">5</text><text x="267.25" y="9.25">6</text><text x="7" y="30.75">A</text><text x="7" y="80.25">B</text><text x="7" y="129.75">C</text><text x="7" y="179.25">D</text><text x="288" y="30.75">A</text><text x="288" y="80.25">B</text><text x="288" y="129.75">C</text><text x="288" y="179.25">D</text><text x="24" y="203.5">1</text><text x="260" y="203.5">6</text></g><g id="drawing-border" fill="none" stroke="#000" stroke-linecap="miter" stroke-miterlimit="4" stroke-width=".5"><rect width="277" height="190" x="10" y="10"/></g><g id="titleblock-structure" fill="none" stroke="#000" stroke-linecap="miter" stroke-miterlimit="4" stroke-width=".5"><rect width="180" height="56" x="107" y="144"/><path d="m 107,151 h 80"/><path d="m 107,158 h 80"/><path d="m 107,165 h 80"/><path d="m 107,172 h 130"/><path d="m 107,179 h 80"/><path d="m 107,186 h 80"/><path d="m 107,193 h 80"/><path d="m 117,144 v 28"/><path d="m 127,144 v 28"/><path d="m 143,144 v 28"/><path d="m 159,144 v 56"/><path d="m 171,144 v 56"/><path d="m 187,144 v 56"/><path d="m 237,144 v 56"/><path d="m 119,172 v 28"/><path d="m 131,172 v 28"/><path d="m 147,172 v 28"/><path d="m 187,182 h 50"/><path d="m 187,191 h 50"/><path d="m 237,159 h 50"/><path d="m 237,180 h 50"/><path d="m 193.5,182 v 9"/><path d="m 200,182 v 9"/><path d="m 206.5,182 v 9"/><path d="m 213,172 v 19"/><path d="m 225,172 v 19"/></g><g id="titleblock-text-non-editable" fill="#000" font-family="HYSWLongFangSong" font-size="5" text-anchor="start" xml:space="preserve"><text x="109" y="177">设计</text><text x="120" y="177">(签名)</text><text x="132" y="177">(年月日)</text><text x="148" y="177">标准化</text><text x="160" y="177">(签名)</text><text x="172" y="177">(年月日)</text><text x="149.5" y="191">制图</text><text x="109" y="191">审核</text><text x="109" y="198">工艺</text><text x="149.5" y="198">批准</text><text x="192" y="178">阶段标记</text><text x="215" y="178">重量</text><text x="227" y="178">比例</text><text x="192" y="197">共</text><text x="204" y="197">张</text><text x="212" y="197">第</text><text x="226" y="197">张</text><text x="108.5" y="170">标记</text><text x="118.5" y="170">处数</text><text x="131" y="170">分区</text><text x="143" y="170">更</text><text x="146" y="170">改</text><text x="149" y="170">文</text><text x="152" y="170">件</text><text x="155" y="170">号</text><text x="161.5" y="170">签名</text><text x="172" y="170">(年月日)</text><text style="kerning:-.5" x="237.5" y="191.5" font-size="3.5" word-spacing="-.5">图纸幅面：A4</text><text style="kerning:-.5" x="237.5" y="195.5" font-size="3.5" word-spacing="-.5">中国国标图纸贡献者</text><text style="kerning:-.5" x="237.5" y="199" font-size="3.5" word-spacing="-.5">李峰 felix@95839.com</text></g><g style="text-align:center" id="titleblock-text-editable" fill="#000" font-family="HYSWLongFangSong" font-size="5" text-anchor="start" xml:space="preserve"><text x="101" y="183.5" freecad:editable="AUTHOR_NAME"><tspan>设计人</tspan></text><text x="152.5" y="191" freecad:editable="DRAWING_NAME"><tspan>制图人</tspan></text><text x="112.5" y="191" freecad:editable="CHECKED_NAME"><tspan>审核人</tspan></text><text x="152.5" y="198" freecad:editable="APPROVER_NAME"><tspan>批准人</tspan></text><text x="112.5" y="198" freecad:editable="CRAFTS_NAME"><tspan>评审人</tspan></text><text x="189" y="197" freecad:editable="TOTAL_SHEETS"><tspan>99</tspan></text><text x="210" y="197" freecad:editable="OF_SHEET"><tspan>1</tspan></text><text x="219" y="188" freecad:editable="SCALE"><tspan>M x:x</tspan></text><text x="207" y="188" freecad:editable="WEIGHT"><tspan>重量</tspan></text><text style="text-align:center" x="167" y="183.5" fill="#000" font-size="3.5" text-anchor="start" freecad:editable="DATE-1"><tspan>YYYY-MM-DD</tspan></text><text style="text-align:center" x="127" y="183.5" fill="#000" font-family="HYSWLongFangSong" font-size="3.5" text-anchor="start" freecad:editable="DATE-2"><tspan>YYYY-MM-DD</tspan></text><text x="230.5" y="148.5" freecad:editable="COMPANYNAME"><tspan>(单位名称/单位代号)</tspan></text><text x="230.5" y="153.5" freecad:editable="COMPANYADDR"><tspan>(单位地址)</tspan></text><text x="230.5" y="158.5" freecad:editable="COMPANYPHONE"><tspan>(单位电话/电邮)</tspan></text><text x="212" y="160" text-anchor="middle" freecad:editable="MATERIALMARK"><tspan>(材料标记)</tspan></text><text x="230.5" y="163.5" freecad:editable="PROJECT_TITLE"><tspan>(项目标题)</tspan></text><text x="230.5" y="168.5" freecad:editable="SUBTITLE"><tspan>(子项目标题)</tspan></text><text x="230.5" y="173.5" freecad:editable="PARTNAME"><tspan>(零件名称)</tspan></text><text x="230.5" y="178.5" freecad:editable="VERSION"><tspan>(版本号)</tspan></text><text x="230.5" y="185" freecad:editable="PART_CODE_NAME"><tspan>(图样代号)</tspan></text><text x="100" y="142" freecad:editable="COPYRIGHT"><tspan>未经图纸所有人允许，请勿向第三方透漏此图纸任何信息！本图纸内容受《中华人民共和国版权法》保护。</tspan></text></g><g stroke="#000" stroke-width=".25"><line x1="265" x2="275" y1="195" y2="195" stroke-dasharray="2.75 .25 .25 .25 2.75 .25 .25 .25"/><line x1="277" x2="287" y1="195" y2="195" stroke-dasharray="2.75 .25 .25 .25 2.75 .25 .25 .25"/><line x1="282" x2="282" y1="190" y2="200" stroke-dasharray="2.75 .25 .25 .25 2.75 .25 .25 .25"/></g><g fill="none" stroke="#000" stroke-width=".25"><polygon points="266 193 274 191 274 199 266 197"/><circle cx="282" cy="195" r="2"/><circle cx="282" cy="195" r="4"/></g><g id="center-line" stroke="#000" stroke-width=".5"><line x1="148.5" x2="148.5" y1="6" y2="15"/><line x1="6" x2="15" y1="105" y2="105"/><line x1="282" x2="291" y1="105" y2="105"/></g><g stroke="#000" stroke-width="2"><line x1="0" x2="0" y1="0" y2="10"/><line x1="0" x2="10" y1="0" y2="0"/><line x1="0" x2="0" y1="200" y2="210"/><line x1="0" x2="10" y1="210" y2="210"/><line x1="287" x2="297" y1="0" y2="0"/><line x1="297" x2="297" y1="0" y2="10"/><line x1="287" x2="297" y1="210" y2="210"/><line x1="297" x2="297" y1="210" y2="200"/></g><g id="metric-mark" stroke="#000" stroke-width=".5"><line x1="148.5" x2="148.5" y1="200" y2="210"/><line x1="98.5" x2="198.5" y1="204" y2="204"/><line x1="98.5" x2="98.5" y1="200" y2="204.125"/><line x1="108.5" x2="108.5" y1="200" y2="204.25"/><line x1="118.5" x2="118.5" y1="200" y2="204.25"/><line x1="128.5" x2="128.5" y1="200" y2="204.25"/><line x1="138.5" x2="138.5" y1="200" y2="204.25"/><line x1="158.5" x2="158.5" y1="200" y2="204.25"/><line x1="168.5" x2="168.5" y1="200" y2="204.25"/><line x1="178.5" x2="178.5" y1="200" y2="204.25"/><line x1="188.5" x2="188.5" y1="200" y2="204.25"/><line x1="198.5" x2="198.5" y1="200" y2="204.25"/></g><g id="direction-marker" fill="none" stroke="#000" stroke-width=".5"><polygon points="292.5 407 301.5 407 297 413"/></g></svg>