<svg xmlns="http://www.w3.org/2000/svg" xmlns:svg="http://www.w3.org/2000/svg" xmlns:xlink="http://www.w3.org/1999/xlink" id="svg5821" width="64" height="64" version="1.1"><defs id="defs5823"><linearGradient id="linearGradient6349"><stop id="stop6351" offset="0" stop-color="#000" stop-opacity="1"/><stop id="stop6353" offset="1" stop-color="#000" stop-opacity="0"/></linearGradient><linearGradient id="linearGradient3377"><stop id="stop3379" offset="0" stop-color="#0019a3" stop-opacity="1"/><stop id="stop3381" offset="1" stop-color="#0069ff" stop-opacity="1"/></linearGradient><linearGradient id="linearGradient3383" x1="901.188" x2="1267.906" y1="1190.875" y2="1190.875" gradientTransform="matrix(-1,0,0,1,2199.356,0)" gradientUnits="userSpaceOnUse" xlink:href="#linearGradient3377"/><radialGradient id="radialGradient6355" cx="1103.64" cy="1424.447" r="194.406" fx="1103.64" fy="1424.447" gradientTransform="matrix(-1.4307499,-1.3605156e-7,-1.202713e-8,0.1264801,2674.7488,1244.2826)" gradientUnits="userSpaceOnUse" xlink:href="#linearGradient6349"/><linearGradient id="linearGradient3791-6"><stop id="stop3793-7" offset="0" stop-color="#204a87" stop-opacity="1"/><stop id="stop3795-5" offset="1" stop-color="#729fcf" stop-opacity="1"/></linearGradient><linearGradient id="linearGradient3820" x1="939.988" x2="893.257" y1="1097.512" y2="989.777" gradientUnits="userSpaceOnUse" xlink:href="#linearGradient3791-6"/><linearGradient id="linearGradient3791-0"><stop id="stop3793-6" offset="0" stop-color="#204a87" stop-opacity="1"/><stop id="stop3795-2" offset="1" stop-color="#729fcf" stop-opacity="1"/></linearGradient><linearGradient id="linearGradient3896" x1="939.988" x2="893.257" y1="1097.512" y2="989.777" gradientUnits="userSpaceOnUse" xlink:href="#linearGradient3791-0"/><linearGradient id="linearGradient3791-2"><stop id="stop3793-9" offset="0" stop-color="#204a87" stop-opacity="1"/><stop id="stop3795-3" offset="1" stop-color="#729fcf" stop-opacity="1"/></linearGradient><linearGradient id="linearGradient3896-1" x1="939.988" x2="893.257" y1="1097.512" y2="989.777" gradientUnits="userSpaceOnUse" xlink:href="#linearGradient3791-2"/><linearGradient id="linearGradient3836"><stop id="stop3838" offset="0" stop-color="#3465a4" stop-opacity="1"/><stop id="stop3840" offset="1" stop-color="#729fcf" stop-opacity="1"/></linearGradient><linearGradient id="linearGradient3144-6"><stop id="stop3146-9" offset="0" stop-color="#fff" stop-opacity="1"/><stop id="stop3148-2" offset="1" stop-color="#fff" stop-opacity="0"/></linearGradient><radialGradient id="radialGradient3688" cx="225.264" cy="672.797" r="34.345" fx="225.264" fy="672.797" gradientTransform="matrix(1,0,0,0.6985294,0,202.82863)" gradientUnits="userSpaceOnUse" xlink:href="#linearGradient3144-6"/><linearGradient id="linearGradient3864-0-0"><stop id="stop3866-5-7" offset="0" stop-color="#0619c0" stop-opacity="1"/><stop id="stop3868-7-6" offset="1" stop-color="#379cfb" stop-opacity="1"/></linearGradient><linearGradient id="linearGradient3377-3"><stop id="stop3379-6" offset="0" stop-color="#fa0" stop-opacity="1"/><stop id="stop3381-7" offset="1" stop-color="#faff2b" stop-opacity="1"/></linearGradient><linearGradient id="linearGradient5048"><stop id="stop5050" offset="0" stop-color="#000" stop-opacity="0"/><stop id="stop5056" offset=".5" stop-color="#000" stop-opacity="1"/><stop id="stop5052" offset="1" stop-color="#000" stop-opacity="0"/></linearGradient><radialGradient id="aigrd2" cx="20.892" cy="114.568" r="5.256" fx="20.892" fy="114.568" gradientUnits="userSpaceOnUse"><stop id="stop15566" offset="0" stop-color="#F0F0F0"/><stop id="stop15568" offset="1" stop-color="#9a9a9a" stop-opacity="1"/></radialGradient><radialGradient id="aigrd3" cx="20.892" cy="64.568" r="5.257" fx="20.892" fy="64.568" gradientUnits="userSpaceOnUse"><stop id="stop15573" offset="0" stop-color="#F0F0F0"/><stop id="stop15575" offset="1" stop-color="#9a9a9a" stop-opacity="1"/></radialGradient><linearGradient id="linearGradient15662"><stop id="stop15664" offset="0" stop-color="#fff" stop-opacity="1"/><stop id="stop15666" offset="1" stop-color="#f8f8f8" stop-opacity="1"/></linearGradient><radialGradient id="radialGradient4452" cx="33.967" cy="35.737" r="86.708" fx="33.967" fy="35.737" gradientTransform="matrix(0.96049297,0,0,1.041132,-52.144249,-702.33158)" gradientUnits="userSpaceOnUse" xlink:href="#linearGradient259"/><linearGradient id="linearGradient259"><stop id="stop260" offset="0" stop-color="#fafafa" stop-opacity="1"/><stop id="stop261" offset="1" stop-color="#bbb" stop-opacity="1"/></linearGradient><radialGradient id="radialGradient4454" cx="8.824" cy="3.756" r="37.752" fx="8.824" fy="3.756" gradientTransform="matrix(0.96827297,0,0,1.032767,-48.790699,-701.68513)" gradientUnits="userSpaceOnUse" xlink:href="#linearGradient269"/><linearGradient id="linearGradient269"><stop id="stop270" offset="0" stop-color="#a3a3a3" stop-opacity="1"/><stop id="stop271" offset="1" stop-color="#4c4c4c" stop-opacity="1"/></linearGradient><linearGradient id="linearGradient4095"><stop id="stop4097" offset="0" stop-color="#005bff" stop-opacity="1"/><stop id="stop4099" offset="1" stop-color="#c1e3f7" stop-opacity="1"/></linearGradient><linearGradient id="linearGradient4253" x1="394.158" x2="434.739" y1="185.13" y2="140.227" gradientTransform="matrix(0.94231826,0,0,0.94231826,23.727549,8.8262536)" gradientUnits="userSpaceOnUse" xlink:href="#linearGradient4247"/><linearGradient id="linearGradient4247"><stop id="stop4249" offset="0" stop-color="#2e8207" stop-opacity="1"/><stop id="stop4251" offset="1" stop-color="#52ff00" stop-opacity="1"/></linearGradient><linearGradient id="linearGradient3922" x1="11.39" x2="54.51" y1="453.55" y2="485.54" gradientTransform="matrix(1.050705,0.0195272,0.0195272,1.0567846,61.906432,41.415953)" gradientUnits="userSpaceOnUse" xlink:href="#linearGradient3836"/><linearGradient id="linearGradient1217" x1="11.39" x2="54.51" y1="453.55" y2="485.54" gradientTransform="matrix(1.050705,0.0195272,0.0195272,1.0567846,61.906432,41.415953)" gradientUnits="userSpaceOnUse" xlink:href="#linearGradient3836"/><linearGradient id="linearGradient1233" x1="11.39" x2="54.51" y1="453.55" y2="485.54" gradientTransform="matrix(1.050705,0.0195272,0.0195272,1.0567846,61.906432,41.415953)" gradientUnits="userSpaceOnUse" xlink:href="#linearGradient3836"/><linearGradient id="linearGradient1241" x1="11.39" x2="54.51" y1="453.55" y2="485.54" gradientTransform="matrix(1.050705,0.0195272,0.0195272,1.0567846,61.906432,41.415953)" gradientUnits="userSpaceOnUse" xlink:href="#linearGradient3836"/><linearGradient id="linearGradient1259" x1="11.39" x2="54.51" y1="453.55" y2="485.54" gradientTransform="matrix(1.050705,0.0195272,0.0195272,1.0567846,61.906432,41.415953)" gradientUnits="userSpaceOnUse" xlink:href="#linearGradient3836"/><linearGradient id="linearGradient4972" x1="11.39" x2="54.51" y1="453.55" y2="485.54" gradientTransform="matrix(1.050705,0.0195272,0.0195272,1.0567846,61.906432,41.415953)" gradientUnits="userSpaceOnUse" xlink:href="#linearGradient3836"/><linearGradient id="linearGradient4980" x1="11.39" x2="54.51" y1="453.55" y2="485.54" gradientTransform="matrix(1.050705,0.0195272,0.0195272,1.0567846,61.906432,41.415953)" gradientUnits="userSpaceOnUse" xlink:href="#linearGradient3836"/></defs><g id="layer1"><g id="g3360" transform="matrix(0.1367863,0,0,0.1367863,-119.15519,-134.86962)"><g id="g3906" stroke="#3465a4" stroke-width=".81" transform="matrix(-1.0281913,-0.88047731,0.88051744,-1.0281444,734.46171,1854.2651)"><path id="path4250" fill="#3465a4" fill-opacity="1" stroke="#0b1521" stroke-dasharray="none" stroke-miterlimit="4" stroke-opacity="1" stroke-width="10.801" d="m 147.07465,535.89484 a 48.571431,48.571431 0 1 1 -97.14285,0 48.571431,48.571431 0 1 1 97.14285,0 z"/><path id="path4250-7" fill="url(#linearGradient3922)" fill-opacity="1" stroke="#729fcf" stroke-dasharray="none" stroke-miterlimit="4" stroke-opacity="1" stroke-width="10.801" d="m 136.22359,535.86575 a 37.80547,37.803747 49.467268 1 1 -75.60894,-0.002 37.80547,37.803747 49.467268 0 1 75.60894,0.002 z"/></g><g id="g1215" stroke="#3465a4" stroke-width=".81" transform="matrix(-1.0281913,-0.88047731,0.88051744,-1.0281444,891.57365,1854.2651)"><path id="path1211" fill="#3465a4" fill-opacity="1" stroke="#0b1521" stroke-dasharray="none" stroke-miterlimit="4" stroke-opacity="1" stroke-width="10.801" d="m 147.07465,535.89484 a 48.571431,48.571431 0 1 1 -97.14285,0 48.571431,48.571431 0 1 1 97.14285,0 z"/><path id="path1213" fill="url(#linearGradient1217)" fill-opacity="1" stroke="#729fcf" stroke-dasharray="none" stroke-miterlimit="4" stroke-opacity="1" stroke-width="10.801" d="m 136.22359,535.86575 a 37.80547,37.803747 49.467268 1 1 -75.60894,-0.002 37.80547,37.803747 49.467268 0 1 75.60894,0.002 z"/></g><g id="g1231" stroke="#3465a4" stroke-width=".81" transform="matrix(-1.0281913,-0.88047731,0.88051744,-1.0281444,650.32142,1707.8349)"><path id="path1227" fill="#3465a4" fill-opacity="1" stroke="#0b1521" stroke-dasharray="none" stroke-miterlimit="4" stroke-opacity="1" stroke-width="10.801" d="m 147.07465,535.89484 a 48.571431,48.571431 0 1 1 -97.14285,0 48.571431,48.571431 0 1 1 97.14285,0 z"/><path id="path1229" fill="url(#linearGradient1233)" fill-opacity="1" stroke="#729fcf" stroke-dasharray="none" stroke-miterlimit="4" stroke-opacity="1" stroke-width="10.801" d="m 136.22359,535.86575 a 37.80547,37.803747 49.467268 1 1 -75.60894,-0.002 37.80547,37.803747 49.467268 0 1 75.60894,0.002 z"/></g><g id="g1239" stroke="#3465a4" stroke-width=".81" transform="matrix(-1.0281913,-0.88047731,0.88051744,-1.0281444,650.32142,2007.5725)"><path id="path1235" fill="#3465a4" fill-opacity="1" stroke="#0b1521" stroke-dasharray="none" stroke-miterlimit="4" stroke-opacity="1" stroke-width="10.801" d="m 147.07465,535.89484 a 48.571431,48.571431 0 1 1 -97.14285,0 48.571431,48.571431 0 1 1 97.14285,0 z"/><path id="path1237" fill="url(#linearGradient1241)" fill-opacity="1" stroke="#729fcf" stroke-dasharray="none" stroke-miterlimit="4" stroke-opacity="1" stroke-width="10.801" d="m 136.22359,535.86575 a 37.80547,37.803747 49.467268 1 1 -75.60894,-0.002 37.80547,37.803747 49.467268 0 1 75.60894,0.002 z"/></g><g id="g1257" stroke="#3465a4" stroke-width=".81" transform="matrix(-1.0281913,-0.88047731,0.88051744,-1.0281444,577.21468,1854.2651)"><path id="path1253" fill="#3465a4" fill-opacity="1" stroke="#0b1521" stroke-dasharray="none" stroke-miterlimit="4" stroke-opacity="1" stroke-width="10.801" d="m 147.07465,535.89484 a 48.571431,48.571431 0 1 1 -97.14285,0 48.571431,48.571431 0 1 1 97.14285,0 z"/><path id="path1255" fill="url(#linearGradient1259)" fill-opacity="1" stroke="#729fcf" stroke-dasharray="none" stroke-miterlimit="4" stroke-opacity="1" stroke-width="10.801" d="m 136.22359,535.86575 a 37.80547,37.803747 49.467268 1 1 -75.60894,-0.002 37.80547,37.803747 49.467268 0 1 75.60894,0.002 z"/></g><g id="g4970" stroke="#3465a4" stroke-width=".81" transform="matrix(-1.0281913,-0.88047731,0.88051744,-1.0281444,818.46691,1707.8349)"><path id="path4966" fill="#3465a4" fill-opacity="1" stroke="#0b1521" stroke-dasharray="none" stroke-miterlimit="4" stroke-opacity="1" stroke-width="10.801" d="m 147.07465,535.89484 a 48.571431,48.571431 0 1 1 -97.14285,0 48.571431,48.571431 0 1 1 97.14285,0 z"/><path id="path4968" fill="url(#linearGradient4972)" fill-opacity="1" stroke="#729fcf" stroke-dasharray="none" stroke-miterlimit="4" stroke-opacity="1" stroke-width="10.801" d="m 136.22359,535.86575 a 37.80547,37.803747 49.467268 1 1 -75.60894,-0.002 37.80547,37.803747 49.467268 0 1 75.60894,0.002 z"/></g><g id="g4978" stroke="#3465a4" stroke-width=".81" transform="matrix(-1.0281913,-0.88047731,0.88051744,-1.0281444,818.46691,2007.5725)"><path id="path4974" fill="#3465a4" fill-opacity="1" stroke="#0b1521" stroke-dasharray="none" stroke-miterlimit="4" stroke-opacity="1" stroke-width="10.801" d="m 147.07465,535.89484 a 48.571431,48.571431 0 1 1 -97.14285,0 48.571431,48.571431 0 1 1 97.14285,0 z"/><path id="path4976" fill="url(#linearGradient4980)" fill-opacity="1" stroke="#729fcf" stroke-dasharray="none" stroke-miterlimit="4" stroke-opacity="1" stroke-width="10.801" d="m 136.22359,535.86575 a 37.80547,37.803747 49.467268 1 1 -75.60894,-0.002 37.80547,37.803747 49.467268 0 1 75.60894,0.002 z"/></g></g></g><metadata id="metadata3357"/></svg>