<svg xmlns="http://www.w3.org/2000/svg" xmlns:svg="http://www.w3.org/2000/svg" xmlns:xlink="http://www.w3.org/1999/xlink" id="svg2985" width="64" height="64" version="1.1"><title id="title3745">Mesh_Flip_Normals</title><defs id="defs2987"><linearGradient id="linearGradient3924"><stop id="stop3926" offset="0" stop-color="#729fcf" stop-opacity="1"/><stop id="stop3928" offset="1" stop-color="#729fcf" stop-opacity="0"/></linearGradient><linearGradient id="linearGradient3916"><stop id="stop3918" offset="0" stop-color="#729fcf" stop-opacity="1"/><stop id="stop3920" offset="1" stop-color="#729fcf" stop-opacity="0"/></linearGradient><radialGradient id="radialGradient3705" cx="147.057" cy="83.989" r="19.467" fx="147.057" fy="83.989" gradientTransform="matrix(1.2966028,0.17711231,-0.14092861,1.0317094,-32.689929,-29.109274)" gradientUnits="userSpaceOnUse" xlink:href="#linearGradient4387"/><linearGradient id="linearGradient4387"><stop id="stop4389" offset="0" stop-color="#71b2f8" stop-opacity="1"/><stop id="stop4391" offset="1" stop-color="#002795" stop-opacity="1"/></linearGradient><radialGradient id="radialGradient3703" cx="131.482" cy="93.557" r="19.467" fx="131.482" fy="93.557" gradientTransform="matrix(0.52711064,1.8158874,-1.4534843,0.42191331,203.23405,-187.6583)" gradientUnits="userSpaceOnUse" xlink:href="#linearGradient4387"/><linearGradient id="linearGradient6321"><stop id="stop6323" offset="0" stop-color="#71b2f8" stop-opacity="1"/><stop id="stop6325" offset="1" stop-color="#002795" stop-opacity="1"/></linearGradient><radialGradient id="radialGradient3692" cx="45.883" cy="28.87" r="19.467" fx="45.883" fy="28.87" gradientTransform="translate(-0.23443224,0.23443198)" gradientUnits="userSpaceOnUse" xlink:href="#linearGradient3377"/><linearGradient id="linearGradient3377"><stop id="stop3379" offset="0" stop-color="#faff2b" stop-opacity="1"/><stop id="stop3381" offset="1" stop-color="#fa0" stop-opacity="1"/></linearGradient><linearGradient id="linearGradient3377-3"><stop id="stop3379-8" offset="0" stop-color="#faff2b" stop-opacity="1"/><stop id="stop3381-3" offset="1" stop-color="#fa0" stop-opacity="1"/></linearGradient><radialGradient id="radialGradient6347" cx="45.883" cy="28.87" r="19.467" fx="45.883" fy="28.87" gradientTransform="translate(-0.23443224,0.23443198)" gradientUnits="userSpaceOnUse" xlink:href="#linearGradient3377"/><radialGradient id="radialGradient6412" cx="45.883" cy="28.87" r="19.467" fx="45.883" fy="28.87" gradientTransform="matrix(0.67067175,0,0,0.64145918,-63.380792,0.83845403)" gradientUnits="userSpaceOnUse" xlink:href="#linearGradient3377-3"/><radialGradient id="radialGradient6412-7" cx="45.883" cy="28.87" r="19.467" fx="45.883" fy="28.87" gradientTransform="matrix(0.67067175,0,0,0.64145918,-87.325356,-15.679193)" gradientUnits="userSpaceOnUse" xlink:href="#linearGradient3377-3-9"/><linearGradient id="linearGradient3377-3-9"><stop id="stop3379-8-0" offset="0" stop-color="#faff2b" stop-opacity="1"/><stop id="stop3381-3-5" offset="1" stop-color="#fa0" stop-opacity="1"/></linearGradient><linearGradient id="linearGradient3922" x1="43" x2="58" y1="13" y2="34" gradientUnits="userSpaceOnUse" xlink:href="#linearGradient3916"/><linearGradient id="linearGradient3930" x1="43" x2="55" y1="49" y2="34" gradientUnits="userSpaceOnUse" xlink:href="#linearGradient3924"/></defs><metadata id="metadata2990"/><g id="layer1"><path id="path3820-6-0" fill="#3465a4" stroke="none" stroke-linecap="round" stroke-linejoin="round" stroke-opacity="1" stroke-width="2" d="m 33,15 10,-10 0,6 c 0,0 17,0 17,24 0,20 -17,20 -17,20 l 0,6 -10,-10 10,-10 0,6 C 43,47 53,47 53,35 53,19 43,19 43,19 l 0,6 z"/><path id="path3030" fill="#73d216" stroke="none" stroke-linecap="butt" stroke-linejoin="miter" stroke-opacity="1" stroke-width="1" d="M 11,19 41,35 7,47 z"/><path id="path3818" fill="none" stroke="#8ae234" stroke-dasharray="none" stroke-linecap="butt" stroke-linejoin="miter" stroke-miterlimit="4" stroke-opacity="1" stroke-width="2" d="M 11.141811,21.345066 36.015056,34.623601 9.4290944,44.03764 12.706409,21.47935"/><path id="path3030-3" fill="none" stroke="#172a04" stroke-dasharray="none" stroke-linecap="round" stroke-linejoin="round" stroke-miterlimit="4" stroke-opacity="1" stroke-width="2" d="M 11,19 41,35 7,47 z"/><g id="g3931" transform="translate(-19.586948,-2.6850777)"><rect id="rect3848-9" width="5" height="20" x="36" y="16" fill="#888a85" fill-opacity="1" stroke="none"/><path id="path3855-1" fill="#888a85" fill-opacity="1" stroke="none" d="m 99.26795,15.196153 -14.5359,0 L 92,2.6076946 z" transform="matrix(-0.89381012,0,0,0.64358296,120.72669,6.220015)"/><rect id="rect3848-3-2" width="4" height="20" x="35.992" y="16" fill="#888a85" stroke="#000" stroke-dasharray="none" stroke-linecap="round" stroke-linejoin="round" stroke-miterlimit="4" stroke-opacity="1" stroke-width="2"/><path id="path3855-5-7" fill="#888a85" stroke="#000" stroke-dasharray="none" stroke-linecap="round" stroke-linejoin="round" stroke-miterlimit="4" stroke-opacity="1" stroke-width="2.744" d="m 99.26795,15.196153 -14.5359,0 L 92,2.6076946 z" transform="matrix(-0.82554287,0,0,0.64358296,113.94227,6.220015)"/><rect id="rect3899-0" width="2" height="2.7" x="36.992" y="14.5" fill="#888a85" stroke="none"/></g><path id="path3840" fill="none" stroke="#729fcf" stroke-linecap="butt" stroke-linejoin="miter" stroke-opacity="1" stroke-width="2" d="M 42.867204,7.9504952 34.626466,16.208292"/><path id="path3840-7" fill="none" stroke="#729fcf" stroke-linecap="butt" stroke-linejoin="miter" stroke-opacity="1" stroke-width="2" d="m 42.84881,44.007343 -8.189337,8.149421"/><path id="path3932" fill="none" stroke="#729fcf" stroke-linecap="butt" stroke-linejoin="miter" stroke-opacity="1" stroke-width="2" d="m 44,13 c -3,0 -3,-1 -3,-3"/><path id="path3820-6" fill="none" stroke="#0b1521" stroke-linecap="round" stroke-linejoin="round" stroke-opacity="1" stroke-width="2" d="m 33,15 10,-10 0,6 c 0,0 17,0 17,24 0,20 -17,20 -17,20 l 0,6 -10,-10 10,-10 0,6 C 43,47 53,47 53,35 53,19 43,19 43,19 l 0,6 z"/><path id="path3912" fill="none" stroke="url(#linearGradient3930)" stroke-linecap="butt" stroke-linejoin="miter" stroke-opacity="1" stroke-width="2" d="m 43,49 c 0,0 12,0 12,-15"/><path id="path3914" fill="none" stroke="url(#linearGradient3922)" stroke-linecap="butt" stroke-linejoin="miter" stroke-opacity="1" stroke-width="2" d="m 43,13 c 0,0 15,0 15,21"/><path id="path3932-2" fill="none" stroke="#729fcf" stroke-linecap="butt" stroke-linejoin="miter" stroke-opacity="1" stroke-width="2" d="m 44,49 c -3,0 -3,-1 -3,-3"/></g></svg>