<svg xmlns="http://www.w3.org/2000/svg" xmlns:svg="http://www.w3.org/2000/svg" xmlns:xlink="http://www.w3.org/1999/xlink" id="svg2" width="64" height="64" version="1.1"><defs id="defs4"><marker id="TriangleOutS" orient="auto" overflow="visible" refX="0" refY="0"><path id="path4211" fill-rule="evenodd" stroke="#000" stroke-width="1pt" d="M 5.77,0.0 L -2.88,5.0 L -2.88,-5.0 L 5.77,0.0 z" transform="scale(0.2)"/></marker><marker id="TriangleInS" orient="auto" overflow="visible" refX="0" refY="0"><path id="path4202" fill-rule="evenodd" stroke="#000" stroke-width="1pt" d="M 5.77,0.0 L -2.88,5.0 L -2.88,-5.0 L 5.77,0.0 z" transform="scale(-0.2)"/></marker><linearGradient id="linearGradient3857"><stop id="stop3859" offset="0" stop-color="#ce5c00" stop-opacity="1"/><stop id="stop3861" offset="1" stop-color="#fcaf3e" stop-opacity="1"/></linearGradient><marker id="TriangleOutM" orient="auto" overflow="visible" refX="0" refY="0"><path id="path3966" fill-rule="evenodd" stroke="#000" stroke-width="1pt" d="m 5.77,0 -8.65,5 0,-10 8.65,5 z" transform="scale(0.4,0.4)"/></marker><marker id="TriangleInM" orient="auto" overflow="visible" refX="0" refY="0"><path id="path3957" fill-rule="evenodd" stroke="#000" stroke-width="1pt" d="m 5.77,0 -8.65,5 0,-10 8.65,5 z" transform="scale(-0.4,-0.4)"/></marker><marker id="TriangleOutL" orient="auto" overflow="visible" refX="0" refY="0"><path id="path3963" fill-rule="evenodd" stroke="#000" stroke-width="1pt" d="m 5.77,0 -8.65,5 0,-10 8.65,5 z" transform="scale(0.8,0.8)"/></marker><marker id="Arrow1Lend" orient="auto" overflow="visible" refX="0" refY="0"><path id="path3824" fill-rule="evenodd" stroke="#000" stroke-width="1pt" d="M 0,0 5,-5 -12.5,0 5,5 0,0 z" transform="matrix(-0.8,0,0,-0.8,-10,0)"/></marker><marker id="TriangleInL" orient="auto" overflow="visible" refX="0" refY="0"><path id="path3954" fill-rule="evenodd" stroke="#000" stroke-width="1pt" d="m 5.77,0 -8.65,5 0,-10 8.65,5 z" transform="scale(-0.8,-0.8)"/></marker><marker id="Arrow2Lstart" orient="auto" overflow="visible" refX="0" refY="0"><path id="path3839" fill-rule="evenodd" stroke-linejoin="round" stroke-width=".625" d="M 8.7185878,4.0337352 -2.2072895,0.01601326 8.7185884,-4.0017078 c -1.7454984,2.3720609 -1.7354408,5.6174519 -6e-7,8.035443 z" transform="matrix(1.1,0,0,1.1,1.1,0)"/></marker><marker id="Arrow1Lstart" orient="auto" overflow="visible" refX="0" refY="0"><path id="path3821" fill-rule="evenodd" stroke="#000" stroke-width="1pt" d="M 0,0 5,-5 -12.5,0 5,5 0,0 z" transform="matrix(0.8,0,0,0.8,10,0)"/></marker><linearGradient id="linearGradient3863" x1="27" x2="33" y1="1004.362" y2="1036.362" gradientUnits="userSpaceOnUse" xlink:href="#linearGradient3857"/><linearGradient id="linearGradient10861-3" x1="28" x2="36" y1="1006.362" y2="1036.362" gradientTransform="translate(-1.000002,-1)" gradientUnits="userSpaceOnUse" xlink:href="#linearGradient4029"/><linearGradient id="linearGradient4029"><stop id="stop4031" offset="0" stop-color="#06989a" stop-opacity="1"/><stop id="stop4033" offset="1" stop-color="#16d0d2" stop-opacity="1"/></linearGradient><linearGradient id="linearGradient3837-6" x1="24" x2="34" y1="994.362" y2="1046.362" gradientTransform="translate(-1.000002,-1)" gradientUnits="userSpaceOnUse" xlink:href="#linearGradient3995"/><linearGradient id="linearGradient3995"><stop id="stop3997" offset="0" stop-color="#16d0d2" stop-opacity="1"/><stop id="stop3999" offset="1" stop-color="#34e0e2" stop-opacity="1"/></linearGradient></defs><metadata id="metadata7"/><g id="layer1" transform="translate(0,-988.36218)"><g id="g7108" transform="matrix(-1,0,0,-1,64.000002,2040.7244)"><g id="g1576" transform="translate(1.0000027,1.0000164)"><rect id="rect7087-7" width="58" height="58" x="2" y="990.362" fill="url(#linearGradient3837-6)" fill-opacity="1" fill-rule="nonzero" stroke="#302b00" stroke-dasharray="none" stroke-dashoffset="0" stroke-linecap="round" stroke-linejoin="round" stroke-miterlimit="4" stroke-opacity="1" stroke-width="2" color="#000" display="inline" enable-background="accumulate" overflow="visible" visibility="visible" style="marker:none"/><rect id="rect7087-3-5" width="54" height="54" x="4" y="992.362" fill="none" fill-opacity="1" fill-rule="nonzero" stroke="#34e0e2" stroke-dasharray="none" stroke-dashoffset="0" stroke-linecap="round" stroke-linejoin="miter" stroke-miterlimit="4" stroke-opacity="1" stroke-width="2" color="#000" display="inline" enable-background="accumulate" overflow="visible" visibility="visible" style="marker:none"/><rect id="rect2985-3" width="34" height="34" x="14" y="1002.362" fill="url(#linearGradient10861-3)" fill-opacity="1" fill-rule="nonzero" stroke="#06989a" stroke-dasharray="none" stroke-dashoffset="0" stroke-linecap="round" stroke-linejoin="round" stroke-miterlimit="4" stroke-opacity="1" stroke-width="2" color="#000" display="inline" enable-background="accumulate" overflow="visible" visibility="visible" style="marker:none"/><path id="path3041-5" fill="none" stroke="#000" stroke-dasharray="4 8" stroke-dashoffset="10" stroke-linecap="round" stroke-linejoin="round" stroke-miterlimit="4" stroke-opacity="1" stroke-width="4" d="m 15.000002,1041.3622 h 18 v 0 -43.99998 h -18" color="#000" display="inline" enable-background="accumulate" overflow="visible" visibility="visible" style="marker:none"/><path id="path3018-6" fill="#000" stroke="none" d="m 18.000002,992.36222 v 9.99998 l -9,-4.99998 z"/><path id="path3018-1-2" fill="#000" stroke="none" d="m 18.000002,1036.3622 v 10 l -8.99998,-5 z"/></g></g></g></svg>