<svg xmlns="http://www.w3.org/2000/svg" xmlns:svg="http://www.w3.org/2000/svg" xmlns:xlink="http://www.w3.org/1999/xlink" id="svg3085" width="64" height="64" version="1.1"><defs id="defs3087"><linearGradient id="linearGradient5062"><stop id="stop5058" offset="0" stop-color="#729fcf" stop-opacity="1"/><stop id="stop5060" offset="1" stop-color="#204a87" stop-opacity="1"/></linearGradient><linearGradient id="linearGradient3836-0"><stop id="stop5008" offset="0" stop-color="#c4a000" stop-opacity="1"/><stop id="stop5010" offset="1" stop-color="#fce94f" stop-opacity="1"/></linearGradient><linearGradient id="linearGradient7597"><stop id="stop7599" offset="0" stop-color="#000003" stop-opacity="1"/><stop id="stop7601" offset="1" stop-color="#000003" stop-opacity="0"/></linearGradient><linearGradient id="linearGradient3893"><stop id="stop3895" offset="0" stop-color="#fff" stop-opacity="1"/><stop id="stop3897" offset="1" stop-color="#fff" stop-opacity="0"/></linearGradient><linearGradient id="linearGradient7603" x1="15.715" x2="34.136" y1="22.299" y2="22.299" gradientUnits="userSpaceOnUse" xlink:href="#linearGradient7597"/><linearGradient id="linearGradient3836-0-3"><stop id="stop3838-2" offset="0" stop-color="#c4a000" stop-opacity="1"/><stop id="stop3840-5" offset="1" stop-color="#fce94f" stop-opacity="1"/></linearGradient><linearGradient id="linearGradient5064" x1="33.056" x2="42.195" y1="43.596" y2="57.417" gradientUnits="userSpaceOnUse" xlink:href="#linearGradient5062"/><linearGradient id="linearGradient5088" x1="43.818" x2="59.806" y1="11.684" y2="11.684" gradientUnits="userSpaceOnUse" xlink:href="#linearGradient5062"/><linearGradient id="linearGradient145" x1="43.818" x2="59.806" y1="11.684" y2="11.684" gradientUnits="userSpaceOnUse" xlink:href="#linearGradient5062"/><linearGradient id="linearGradient147" x1="33.056" x2="42.195" y1="43.596" y2="57.417" gradientUnits="userSpaceOnUse" xlink:href="#linearGradient5062"/></defs><metadata id="metadata3090"/><g id="g1408" transform="translate(0.7215538)"><g id="g160" transform="translate(-2.0000038,0.02224975)"><g id="g99" transform="translate(-6.453345,3.6020461)"><g id="g69" transform="matrix(0.80580263,0,0,1.0043282,21.56152,-1.2500985)"><g id="g77" transform="rotate(-18.828224,43.203466,21.149696)"><path id="path3061" fill="#d3d7cf" stroke="#2e3436" stroke-linecap="butt" stroke-linejoin="miter" stroke-opacity="1" stroke-width="2" d="M 40.599427,54.421192 34.803871,52.868278 50.204445,7.8977836 56,9.450698 Z"/><path id="path3063" fill="none" stroke="#fff" stroke-linecap="butt" stroke-linejoin="miter" stroke-opacity="1" stroke-width="2" d="M 37.073312,52.126013 51.798712,9.675315"/></g></g><g id="g65" transform="matrix(0.8,0,0,0.8,19.213591,-2.6460262)"><path id="path4250-71" fill="none" stroke="#2e2900" stroke-dasharray="none" stroke-miterlimit="4" stroke-opacity="1" stroke-width="2" d="M 44.970374,5.822785 A 8.993818,8.9934077 0.02042283 1 1 58.632785,17.5224 8.993818,8.9934077 0.02042283 1 1 44.970374,5.822785 Z"/><path id="path4250-7-3" fill="url(#linearGradient5088)" fill-opacity="1" stroke="#729fcf" stroke-dasharray="none" stroke-miterlimit="4" stroke-opacity="1" stroke-width="2" d="M 46.49299,7.133747 A 6.9999997,7.0000001 0 1 1 57.126578,16.240159 6.9999997,7.0000001 0 0 1 46.49299,7.133747 Z"/></g><g id="g61" transform="matrix(0.8,0,0,0.8,30.413591,8.7169305)"><path id="path4250-71-6" fill="none" stroke="#2e2900" stroke-dasharray="none" stroke-miterlimit="4" stroke-opacity="1" stroke-width="2" d="M 30.970374,45.82823 A 8.993818,8.9934077 0.02042283 1 1 44.632785,57.527845 8.993818,8.9934077 0.02042283 1 1 30.970374,45.82823 Z"/><path id="path4250-7-3-2" fill="url(#linearGradient5064)" fill-opacity="1" stroke="#729fcf" stroke-dasharray="none" stroke-miterlimit="4" stroke-opacity="1" stroke-width="2" d="M 32.49299,47.139192 A 6.9999997,7.0000001 0 1 1 43.126578,56.245604 6.9999997,7.0000001 0 0 1 32.49299,47.139192 Z"/></g></g></g><g id="g143" transform="translate(-50.299468,3.6242958)"><g id="g129" transform="matrix(0.80580263,0,0,1.0043282,21.56152,-1.2500985)"><g id="g127" transform="rotate(-18.828224,43.203466,21.149696)"><path id="path123" fill="#d3d7cf" stroke="#2e3436" stroke-linecap="butt" stroke-linejoin="miter" stroke-opacity="1" stroke-width="2" d="M 40.599427,54.421192 34.803871,52.868278 50.204445,7.8977836 56,9.450698 Z"/><path id="path125" fill="none" stroke="#fff" stroke-linecap="butt" stroke-linejoin="miter" stroke-opacity="1" stroke-width="2" d="M 37.073312,52.126013 51.798712,9.675315"/></g></g><g id="g135" transform="matrix(0.8,0,0,0.8,19.213591,-2.6460262)"><path id="path131" fill="none" stroke="#2e2900" stroke-dasharray="none" stroke-miterlimit="4" stroke-opacity="1" stroke-width="2" d="M 44.970374,5.822785 A 8.993818,8.9934077 0.02042283 1 1 58.632785,17.5224 8.993818,8.9934077 0.02042283 1 1 44.970374,5.822785 Z"/><path id="path133" fill="url(#linearGradient145)" fill-opacity="1" stroke="#729fcf" stroke-dasharray="none" stroke-miterlimit="4" stroke-opacity="1" stroke-width="2" d="M 46.49299,7.133747 A 6.9999997,7.0000001 0 1 1 57.126578,16.240159 6.9999997,7.0000001 0 0 1 46.49299,7.133747 Z"/></g><g id="g141" transform="matrix(0.8,0,0,0.8,30.413591,8.7169305)"><path id="path137" fill="none" stroke="#2e2900" stroke-dasharray="none" stroke-miterlimit="4" stroke-opacity="1" stroke-width="2" d="M 30.970374,45.82823 A 8.993818,8.9934077 0.02042283 1 1 44.632785,57.527845 8.993818,8.9934077 0.02042283 1 1 30.970374,45.82823 Z"/><path id="path139" fill="url(#linearGradient147)" fill-opacity="1" stroke="#729fcf" stroke-dasharray="none" stroke-miterlimit="4" stroke-opacity="1" stroke-width="2" d="M 32.49299,47.139192 A 6.9999997,7.0000001 0 1 1 43.126578,56.245604 6.9999997,7.0000001 0 0 1 32.49299,47.139192 Z"/></g></g></g><g id="g1383" transform="translate(0.1279185,-0.12791885)"><path id="path1379" fill="none" fill-rule="evenodd" stroke="#d3d7cf" stroke-dasharray="8 4" stroke-dashoffset="0" stroke-linecap="butt" stroke-linejoin="miter" stroke-miterlimit="4" stroke-opacity="1" stroke-width="4" d="M 32.400348,3.4254362 V 61.358668"/><path id="path572" fill="none" fill-rule="evenodd" stroke="#000" stroke-dasharray="8 4" stroke-dashoffset="0" stroke-linecap="butt" stroke-linejoin="miter" stroke-miterlimit="4" stroke-opacity="1" stroke-width="4" d="M 31.343815,2.8971697 V 60.830401"/></g></svg>