<svg xmlns="http://www.w3.org/2000/svg" xmlns:osb="http://www.openswatchbook.org/uri/2009/osb" xmlns:svg="http://www.w3.org/2000/svg" xmlns:xlink="http://www.w3.org/1999/xlink" id="svg2943" width="64" height="64" version="1.1"><title id="title3265">Mesh_Cone</title><defs id="defs2945"><linearGradient id="linearGradient3811"><stop id="stop3813" offset="0" stop-color="#8ae234" stop-opacity="1"/><stop id="stop3815" offset="1" stop-color="#4e9a06" stop-opacity="1"/></linearGradient><linearGradient id="linearGradient3805" osb:paint="gradient"><stop id="stop3807" offset="0" stop-color="#8ae234" stop-opacity="1"/><stop id="stop3809" offset="1" stop-color="#4e9a06" stop-opacity="1"/></linearGradient><linearGradient id="linearGradient3377" osb:paint="gradient"><stop id="stop3379" offset="0" stop-color="#faff2b" stop-opacity="1"/><stop id="stop3381" offset="1" stop-color="#fa0" stop-opacity="1"/></linearGradient><linearGradient id="linearGradient4397" x1="72.474" x2="99.154" y1="98.786" y2="100.786" gradientUnits="userSpaceOnUse" xlink:href="#linearGradient4391"/><linearGradient id="linearGradient4391" osb:paint="gradient"><stop id="stop4393" offset="0" stop-color="#0f0" stop-opacity="1"/><stop id="stop4395" offset="1" stop-color="#0f7d0f" stop-opacity="1"/></linearGradient><linearGradient id="linearGradient4368" x1="277.251" x2="285.594" y1="94.014" y2="94.196" gradientUnits="userSpaceOnUse" xlink:href="#linearGradient4391"/><linearGradient id="linearGradient3825" x1="29" x2="36" y1="22" y2="23" gradientUnits="userSpaceOnUse" xlink:href="#linearGradient3811"/><radialGradient id="radialGradient3113" cx="25.188" cy="41.625" r="18.063" fx="25.188" fy="41.625" gradientTransform="matrix(1,0,0,0.32526,0,28.08607)" gradientUnits="userSpaceOnUse" xlink:href="#linearGradient2269"/><linearGradient id="linearGradient2269"><stop id="stop2271" offset="0" stop-color="#000" stop-opacity="1"/><stop id="stop2273" offset="1" stop-color="#000" stop-opacity="0"/></linearGradient><radialGradient id="radialGradient3043" cx="25.188" cy="41.625" r="18.063" fx="25.188" fy="41.625" gradientTransform="matrix(1,0,0,0.32526,0,28.08607)" gradientUnits="userSpaceOnUse" xlink:href="#linearGradient2269"/></defs><metadata id="metadata2948"/><g id="layer1"><path id="path2267" fill="url(#radialGradient3043)" fill-opacity="1" fill-rule="evenodd" stroke="none" stroke-width="1" d="m 43.25,41.625 a 18.0625,5.875 0 1 1 -36.125,0 18.0625,5.875 0 1 1 36.125,0 z" color="#000" display="inline" opacity=".267" overflow="visible" transform="matrix(1.652249,0,0,1.1276596,-9.6160217,10.436169)" visibility="visible" style="marker:none"/><path id="path2999-3" fill="url(#linearGradient3825)" fill-opacity="1" stroke="none" d="M 32,3 7,48 c 0,0 3,9 25,9 22,0 25,-9 25,-9 L 32,3"/><path id="path3795" fill="none" stroke="#8ae234" stroke-linecap="butt" stroke-linejoin="miter" stroke-opacity="1" stroke-width="2" d="m 56,46 c 0,0 -2,9 -24,9 C 10,55 8,46 8,46"/><path id="path3793" fill="none" stroke="#8ae234" stroke-linecap="butt" stroke-linejoin="miter" stroke-opacity="1" stroke-width="2" d="M 56,50 32,7"/><path id="path2999" fill="none" stroke="#172a04" stroke-linecap="round" stroke-linejoin="round" stroke-opacity="1" stroke-width="2" d="M 32,3 7,48 c 0,0 3,9 25,9 22,0 25,-9 25,-9 L 32,3"/><path id="path3771" fill="none" stroke="#172a04" stroke-dasharray="none" stroke-linecap="butt" stroke-linejoin="miter" stroke-miterlimit="4" stroke-opacity="1" stroke-width="2" d="M 49,54 32,4 39,56"/><path id="path3773" fill="none" stroke="#172a04" stroke-dasharray="none" stroke-linecap="butt" stroke-linejoin="miter" stroke-miterlimit="4" stroke-opacity="1" stroke-width="2" d="M 25,56 32,4 15,54"/></g></svg>