<svg xmlns="http://www.w3.org/2000/svg" xmlns:svg="http://www.w3.org/2000/svg" id="svg8" width="64" height="64" version="1.1" viewBox="0 0 64 64"><metadata id="metadata5"/><g id="layer1" transform="translate(0,-280.06665)"><flowRoot font-style="normal" style="line-height:1.25" id="flowRoot3725" fill="#000" fill-opacity="1" stroke="none" font-family="sans-serif" font-size="40" font-weight="normal" letter-spacing="0" word-spacing="0" xml:space="preserve"><flowRegion id="flowRegion3727"><rect id="rect3729" width="62.857" height="405.714" x="240" y="362.52"/></flowRegion><flowPara id="flowPara3731"/></flowRoot><flowRoot font-style="normal" style="line-height:1.25" id="flowRoot4572" fill="#000" fill-opacity="1" stroke="none" font-family="sans-serif" font-size="40" font-weight="normal" letter-spacing="0" word-spacing="0" xml:space="preserve"><flowRegion id="flowRegion4574"><rect id="rect4576" width="271.429" height="147.143" x="67.143" y="216.805"/></flowRegion><flowPara id="flowPara4578"/></flowRoot><rect id="rect834" width="64" height="64" x="0" y="280.067" fill="none" fill-opacity="1" stroke="none" stroke-dasharray="none" stroke-miterlimit="4" stroke-opacity="1" stroke-width="148.891"/><g id="g853" fill="#e5ff80" fill-opacity="1" stroke="none" stroke-dasharray="none" stroke-miterlimit="4" stroke-opacity="1" stroke-width="37.795"><path id="path855" fill="#353564" fill-rule="evenodd" stroke="none" stroke-linejoin="round" stroke-width="194.094" d="M 9.8014818,329.42585 30.160757,343.31602 57.128521,327.4728 39.071136,315.15311 Z" points="30.161 343.316 57.129 327.473 39.071 315.153 9.801 329.426"/><path id="path865" fill="#e9e9ff" fill-rule="evenodd" stroke="none" stroke-linejoin="round" stroke-width="194.094" d="m 39.071136,315.15311 0.874086,-34.41161 23.392499,15.95959 -6.2092,30.77171 z" points="39.945 280.741 63.338 296.701 57.129 327.473 39.071 315.153"/><path id="path857" fill="#4d4d9f" fill-rule="evenodd" stroke="none" stroke-linejoin="round" stroke-width="194.094" d="M 9.8014818,329.42585 0.69376043,294.04969 39.945222,280.7415 39.071136,315.15311 Z" points=".694 294.05 39.945 280.741 39.071 315.153 9.801 329.426"/><path id="path863" fill="#8ec98d" fill-opacity="1" fill-rule="evenodd" stroke="none" stroke-linejoin="round" stroke-width="194.094" d="m 30.160757,343.31602 -2.060281,-30.56804 35.237245,-16.04689 -6.2092,30.77171 z" points="28.1 312.748 63.338 296.701 57.129 327.473 30.161 343.316"/><path id="path861" fill="#ee9bfc" fill-opacity="1" fill-rule="evenodd" stroke="none" stroke-linejoin="round" stroke-width="194.094" d="M 0.69376043,294.04969 28.100476,312.74798 63.337721,296.70109 39.945222,280.7415 Z" points="28.1 312.748 63.338 296.701 39.945 280.741 .694 294.05"/><path id="path859" fill="#a7d9f0" fill-opacity="1" fill-rule="evenodd" stroke="none" stroke-linejoin="round" stroke-width="194.094" d="M 9.8014818,329.42585 0.69376043,294.04969 28.100476,312.74798 30.160757,343.31602 Z" points=".694 294.05 28.1 312.748 30.161 343.316 9.801 329.426"/></g><path id="path833" fill="none" stroke="#000" stroke-dasharray="none" stroke-linecap="butt" stroke-linejoin="miter" stroke-miterlimit="4" stroke-opacity="1" stroke-width="1.452" d="M 1.7257872,295.06561 28.19751,313.19314 30.187504,342.8281 10.522794,329.36192 Z"/><path id="path835" fill="none" stroke="#000" stroke-dasharray="none" stroke-linecap="butt" stroke-linejoin="miter" stroke-miterlimit="4" stroke-opacity="1" stroke-width="1.5" d="M 0.69376043,294.04969 39.945222,280.7415 63.337721,296.70109 28.100476,312.74798 v 0 0"/><path id="path837" fill="none" stroke="#000" stroke-dasharray="none" stroke-linecap="butt" stroke-linejoin="miter" stroke-miterlimit="4" stroke-opacity="1" stroke-width="1.5" d="m 57.128521,327.4728 6.2092,-30.77171"/><path id="path839" fill="none" stroke="#000" stroke-dasharray="none" stroke-linecap="butt" stroke-linejoin="miter" stroke-miterlimit="4" stroke-opacity="1" stroke-width="1.5" d="M 30.160757,343.31602 57.128521,327.4728"/><path id="path841" fill="none" stroke="#000" stroke-dasharray="none" stroke-linecap="butt" stroke-linejoin="miter" stroke-miterlimit="4" stroke-opacity="1" stroke-width="1.5" d="m 0.69376043,294.04969 62.64396057,2.6514"/><path id="path843" fill="none" stroke="#000" stroke-dasharray="none" stroke-linecap="butt" stroke-linejoin="miter" stroke-miterlimit="4" stroke-opacity="1" stroke-width="1.5" d="m 30.160757,343.31602 33.176964,-46.61493 v 0 0"/><path id="path845" fill="none" stroke="#000" stroke-dasharray="none" stroke-linecap="butt" stroke-linejoin="miter" stroke-miterlimit="4" stroke-opacity="1" stroke-width="1.472" d="M 30.709234,343.85948 1.9309977,295.29193"/></g></svg>