<svg xmlns="http://www.w3.org/2000/svg" xmlns:svg="http://www.w3.org/2000/svg" id="svg5495" width="101.031" height="92.128" version="1.1" viewBox="0 0 94.717 86.37"><metadata id="metadata5500"/><g id="layer1" transform="translate(-284.0703,-477.74859)"><path id="path4266" fill="#2980b9" fill-opacity="1" fill-rule="evenodd" stroke="#2980b9" stroke-linecap="butt" stroke-linejoin="round" stroke-opacity="1" stroke-width="3" d="m 285.5703,479.24859 91.71655,0 0,83.37009 -91.71655,0 z"/><g id="text4873" fill="#000" fill-opacity="1" stroke="none" stroke-linecap="butt" stroke-linejoin="miter" stroke-opacity="1" stroke-width="1" font-family="sans-serif" font-size="40" font-style="normal" font-weight="normal" letter-spacing="0" word-spacing="0" style="line-height:125%"><path id="path4241" fill="#fff" fill-opacity="1" d="m 313.43298,529.37701 q 2.73438,0 4.44336,-1.5039 1.70899,-1.50391 1.77735,-3.99903 l 9.26269,0 q -0.0342,3.75977 -2.05078,6.9043 -2.0166,3.11035 -5.53711,4.85352 -3.48633,1.70898 -7.72461,1.70898 -7.92969,0 -12.50976,-5.02441 -4.58008,-5.0586 -4.58008,-13.94532 l 0,-0.64941 q 0,-8.54492 4.5459,-13.63769 4.54589,-5.09278 12.47558,-5.09278 6.93848,0 11.1084,3.96485 4.2041,3.93066 4.27246,10.49316 l -9.26269,0 q -0.0684,-2.87109 -1.77735,-4.64844 -1.70898,-1.81152 -4.51172,-1.81152 -3.45214,0 -5.22949,2.5293 -1.74316,2.49511 -1.74316,8.13476 l 0,1.02539 q 0,5.70801 1.74316,8.20313 1.74317,2.49511 5.29785,2.49511 z" font-family="Roboto" font-size="70" font-stretch="normal" font-style="normal" font-variant="normal" font-weight="bold" style="-inkscape-font-specification:'Roboto Bold'"/><path id="path4243" fill="#fff" fill-opacity="1" d="m 333.01794,517.82428 q 0,-8.71582 3.86231,-13.77441 3.89648,-5.0586 10.66406,-5.0586 5.94727,0 9.46777,4.5459 l 0.64942,-3.8623 8.68164,0 0,51.20117 -9.91211,0 0,-17.39746 q -3.41797,3.8623 -8.95508,3.8623 -6.59668,0 -10.52734,-5.12695 -3.93067,-5.12695 -3.93067,-14.38965 z m 9.87793,0.71777 q 0,5.29785 1.84571,8.06641 1.87988,2.76855 5.26367,2.76855 4.5459,0 6.42578,-3.62304 l 0,-15.27832 q -1.8457,-3.48633 -6.35742,-3.48633 -3.41797,0 -5.29785,2.76855 -1.87989,2.76856 -1.87989,8.78418 z" font-family="Roboto" font-size="70" font-stretch="normal" font-style="normal" font-variant="normal" font-weight="bold" style="-inkscape-font-specification:'Roboto Bold'"/></g></g></svg>