<svg xmlns="http://www.w3.org/2000/svg" xmlns:svg="http://www.w3.org/2000/svg" id="svg235" width="64" height="64" version="1.2" viewBox="0 0 169.333 169.333"><metadata id="metadata239"/><title id="title2">FreeCAD SVG Export</title><desc id="desc4">Drawing page: Page exported from FreeCAD document: horten_wing</desc><g id="g52" fill="none" fill-opacity="1" fill-rule="evenodd" stroke="none" stroke-dasharray="none" stroke-linecap="square" stroke-linejoin="bevel" stroke-miterlimit="4" stroke-width="26.458" font-family="Noto Sans" font-size="31.75" font-style="normal" font-weight="400" transform="matrix(0.30578933,0,0,0.34026223,87.190451,78.565935)"><path id="path50" fill="none" fill-rule="evenodd" stroke-dasharray="none" stroke-miterlimit="4" stroke-width="26.458" d="m -265.5,169.083 c 325.6,38.71 414.65,34.617 464.342,29.766 49.691,-4.852 60.025,-10.462 65.041,-17.398 5.017,-6.936 4.717,-15.198 -57.808,-21.337 C 143.55,153.974 18.8,149.958 -265.5,169.083" vector-effect="non-scaling-stroke"/></g><g id="g148" fill="#fff" fill-opacity="1" fill-rule="evenodd" stroke="none" stroke-dasharray="none" stroke-linecap="square" stroke-linejoin="bevel" stroke-miterlimit="4" stroke-width="26.458" font-family="Noto Sans" font-size="31.75" font-style="normal" font-weight="400" transform="matrix(0.30578933,0,0,0.34026223,87.190451,78.565935)"><path id="path146" fill-rule="evenodd" stroke-dasharray="none" stroke-miterlimit="4" stroke-width="26.458" d="m 254.5,169.083 -71,-80.311 -213.1,-204.021 c -66.9,-72.515 -98.15,-82.53 -121.425,-86.829 -23.275,-4.298 -38.575,-2.881 -45.375,1.509 -6.8,4.39 -5.1,11.753 13.433,53.055 18.534,41.303 53.9,116.5453 65.809,171.2488 11.908,54.7035 0.358,88.8682 -152.042,145.3482 152.4,-56.48 163.95,-90.6447 152.042,-145.3482 -11.909,-54.7035 -47.275,-129.9458 -65.809,-171.2488 -18.533,-41.302 -20.233,-48.665 -13.433,-53.055 6.8,-4.39 22.1,-5.807 45.375,-1.509 23.275,4.299 54.525,14.314 121.425,86.829 l 213.1,204.021 71,80.311" vector-effect="non-scaling-stroke"/></g><g id="g204" fill="none" fill-rule="evenodd" stroke="#00f" stroke-dasharray="none" stroke-linecap="round" stroke-linejoin="bevel" stroke-miterlimit="4" stroke-opacity="1" stroke-width="26.458" font-family="Noto Sans" font-size="31.75" font-style="normal" font-weight="400" transform="translate(284.4786,-98.043685)"><path id="path202" fill-rule="evenodd" stroke="#00f" stroke-dasharray="none" stroke-miterlimit="4" stroke-width="8.535" d="m -280.17584,251.93025 c 99.565,13.17155 126.79554,11.77886 141.99082,10.12825 15.19498,-1.65096 18.35501,-3.55983 19.88885,-5.91989 1.53414,-2.36005 1.4424,-5.1713 -17.67707,-7.26017 -19.11948,-2.08921 -57.2667,-3.4557 -144.2026,3.05181" vector-effect="none"/></g><g id="g212" fill="none" fill-rule="evenodd" stroke="red" stroke-dasharray="none" stroke-linecap="round" stroke-linejoin="bevel" stroke-miterlimit="4" stroke-opacity="1" stroke-width="26.458" font-family="Noto Sans" font-size="31.75" font-style="normal" font-weight="400" transform="matrix(0.30578933,0,0,0.34026223,87.190451,78.565935)"><path id="path210" fill-rule="evenodd" stroke="red" stroke-dasharray="none" stroke-miterlimit="4" stroke-width="26.458" d="m 254.5,169.083 -71,-80.311" vector-effect="none"/></g><g id="g220" fill="none" fill-rule="evenodd" stroke="red" stroke-dasharray="none" stroke-linecap="round" stroke-linejoin="bevel" stroke-miterlimit="4" stroke-opacity="1" stroke-width="26.458" font-family="Noto Sans" font-size="31.75" font-style="normal" font-weight="400" transform="matrix(0.30578933,0,0,0.34026223,87.190451,78.565935)"><path id="path218" fill-rule="evenodd" stroke="red" stroke-dasharray="none" stroke-miterlimit="4" stroke-width="26.458" d="M 183.5,88.772 -29.6,-115.249" vector-effect="none"/></g><g id="g228" fill="none" fill-rule="evenodd" stroke="red" stroke-dasharray="none" stroke-linecap="round" stroke-linejoin="bevel" stroke-miterlimit="4" stroke-opacity="1" stroke-width="26.458" font-family="Noto Sans" font-size="31.75" font-style="normal" font-weight="400" transform="matrix(0.30578933,0,0,0.34026223,87.190451,78.565935)"><path id="path226" fill-rule="evenodd" stroke="red" stroke-dasharray="none" stroke-miterlimit="4" stroke-width="26.458" d="m -29.6,-115.249 c -66.9,-72.515 -98.15,-82.53 -121.425,-86.829 -23.275,-4.298 -38.575,-2.881 -45.375,1.509 -6.8,4.39 -5.1,11.753 13.433,53.055 18.534,41.303 53.9,116.5453 65.809,171.2488 11.908,54.7035 0.358,88.8682 -152.042,145.3482" vector-effect="none"/></g><g id="g196" fill="none" fill-rule="evenodd" stroke="#00f" stroke-dasharray="none" stroke-linecap="round" stroke-linejoin="bevel" stroke-miterlimit="4" stroke-opacity="1" stroke-width="26.458" font-family="Noto Sans" font-size="31.75" font-style="normal" font-weight="400" transform="matrix(0.32482554,0,0,0.35605567,93.303663,90.107786)"><path id="path194" fill-rule="evenodd" stroke="#00f" stroke-dasharray="none" stroke-miterlimit="4" stroke-width="26.458" d="m -191.794,-181.122 c 66.102,6.178 84.181,5.525 94.2687,4.751 10.0881,-0.775 12.1859,-1.67 13.2044,-2.777 1.0184,-1.107 0.9575,-2.426 -11.736,-3.406 -12.6931,-0.98 -38.0191,-1.621 -95.7371,1.432" vector-effect="none"/></g><g id="g180" fill="none" fill-rule="evenodd" stroke="#00f" stroke-dasharray="none" stroke-linecap="round" stroke-linejoin="bevel" stroke-miterlimit="4" stroke-opacity="1" stroke-width="26.458" font-family="Noto Sans" font-size="31.75" font-style="normal" font-weight="400" transform="matrix(0.28272094,0,0,0.35236124,81.722797,73.941116)"><path id="path178" fill-rule="evenodd" stroke="#00f" stroke-dasharray="none" stroke-miterlimit="4" stroke-width="26.458" d="m -130.057,-27.5659 c 121.99222,13.0919 155.3566,11.7077 173.9746,10.0669 18.618,-1.6408 22.4896,-3.5382 24.3692,-5.884 1.8796,-2.3459 1.7672,-5.1402 -21.6591,-7.2165 -23.4262,-2.0763 -70.1664,-3.4347 -176.6847,3.0336" vector-effect="none"/></g><g id="g164" fill="none" fill-rule="evenodd" stroke="#00f" stroke-dasharray="none" stroke-linecap="round" stroke-linejoin="bevel" stroke-miterlimit="4" stroke-opacity="1" stroke-width="26.458" font-family="Noto Sans" font-size="31.75" font-style="normal" font-weight="400" transform="matrix(0.24458801,0,0,0.34533802,90.650558,67.711194)"><path id="path162" fill-rule="evenodd" stroke="#00f" stroke-dasharray="none" stroke-miterlimit="4" stroke-width="26.458" d="m -171.682,117.368 c 237.8271,32.871 302.872,29.396 339.168,25.276 36.296,-4.12 43.844,-8.884 47.508,-14.773 3.664,-5.89 3.445,-12.906 -42.225,-18.119 -45.67,-5.213 -136.7906,-8.624 -344.451,7.616" vector-effect="none"/></g></svg>