<svg xmlns="http://www.w3.org/2000/svg" xmlns:svg="http://www.w3.org/2000/svg" xmlns:xlink="http://www.w3.org/1999/xlink" id="svg2816" width="68" height="68" version="1.1"><defs id="defs2818"><linearGradient id="linearGradient3602"><stop id="stop3604" offset="0" stop-color="#ff2600" stop-opacity="1"/><stop id="stop3606" offset="1" stop-color="#ff5f00" stop-opacity="1"/></linearGradient><linearGradient id="linearGradient3608-5" x1="3.909" x2="24.818" y1="14.364" y2="14.364" gradientUnits="userSpaceOnUse" xlink:href="#linearGradient3602-7"/><linearGradient id="linearGradient3602-7"><stop id="stop3604-1" offset="0" stop-color="#c51900" stop-opacity="1"/><stop id="stop3606-3" offset="1" stop-color="#ff5f00" stop-opacity="1"/></linearGradient><linearGradient id="linearGradient3608-1" x1="3.909" x2="24.818" y1="14.364" y2="14.364" gradientUnits="userSpaceOnUse" xlink:href="#linearGradient3602-5"/><linearGradient id="linearGradient3602-5"><stop id="stop3604-9" offset="0" stop-color="#c51900" stop-opacity="1"/><stop id="stop3606-9" offset="1" stop-color="#ff5f00" stop-opacity="1"/></linearGradient><linearGradient id="linearGradient3686" x1="3.909" x2="24.818" y1="14.364" y2="14.364" gradientUnits="userSpaceOnUse" xlink:href="#linearGradient3602-5"/><linearGradient id="linearGradient3608-8" x1="3.909" x2="24.818" y1="14.364" y2="14.364" gradientUnits="userSpaceOnUse" xlink:href="#linearGradient3602-58"/><linearGradient id="linearGradient3602-58"><stop id="stop3604-2" offset="0" stop-color="#c51900" stop-opacity="1"/><stop id="stop3606-2" offset="1" stop-color="#ff5f00" stop-opacity="1"/></linearGradient><linearGradient id="linearGradient3726" x1="3.909" x2="24.818" y1="14.364" y2="14.364" gradientUnits="userSpaceOnUse" xlink:href="#linearGradient3602-58"/><filter id="filter878" width="1.108" height="1.072" x="-.054" y="-.036" color-interpolation-filters="sRGB"><feGaussianBlur id="feGaussianBlur880" stdDeviation=".945"/></filter></defs><metadata id="metadata2821"/><g id="layer1" stroke-width="1.842" transform="matrix(0.53992752,0,0,0.54612395,15.182416,15.213398)"><g id="g3755" transform="translate(-2.1886387,-1.8655814)"><path id="path6342" fill="#cd4500" fill-opacity="1" fill-rule="evenodd" stroke="none" stroke-linecap="butt" stroke-linejoin="miter" stroke-opacity="1" stroke-width="3.352" d="m 18.836744,-24.017438 52.79118,-0.683828 V 4.374427 H 49.783297 v 56.431952 h 21.844627 c 0.02649,11.584862 -2.760418,24.960305 -3.640771,27.305783 -4.674513,0.606794 -22.603238,2.018094 -49.160272,1.820385 z" opacity=".988"/><path id="polygon49" fill="#ff6000" fill-opacity="1" fill-rule="evenodd" stroke="none" stroke-linecap="butt" stroke-linejoin="miter" stroke-opacity="1" stroke-width="3.352" d="m -3.0078826,4.374427 7.281542,-29.126169 H 18.836744 L 49.783297,4.374427 Z" opacity=".8"/><path id="polygon51" fill="#ff6000" fill-opacity="1" fill-rule="evenodd" stroke="none" stroke-linecap="butt" stroke-linejoin="miter" stroke-opacity="1" stroke-width="3.352" d="M -4.8282686,60.806379 H 49.783297 L 18.826881,89.932547 H -4.8282686 Z" opacity=".8"/><path id="path58" fill="#000" fill-opacity="1" fill-rule="evenodd" stroke="none" stroke-linecap="butt" stroke-linejoin="miter" stroke-opacity="1" stroke-width="1.842" d="m 16.726477,-24.752292 -2,0.02539 v 13.947265 H 2.7264767 v 31 h 2 V -8.7796363 H 16.726477 Z m -40.5,13.972656 -0.5,1.9999997 h 9.998047 v -1.9999997 z m 38.449219,33 c -0.248643,5.820848 -1.515612,11.844764 -1.949219,13 -2.56787,0.333333 -12.41717232,1.108608 -27.005859,1 h -10.994141 v 2 h 12.994141 c 14.5886867,0.108608 24.437989,-0.666667 27.005859,-1 0.483608,-1.288451 2.01455,-8.636039 2,-15 z" filter="url(#filter878)" opacity=".221" transform="matrix(1.8203855,0,0,1.8203855,44.820058,23.99752)"/></g></g></svg>