<svg xmlns="http://www.w3.org/2000/svg" xmlns:osb="http://www.openswatchbook.org/uri/2009/osb" xmlns:svg="http://www.w3.org/2000/svg" xmlns:xlink="http://www.w3.org/1999/xlink" id="svg2" width="64" height="64" version="1.1"><metadata id="metadata28"/><defs id="defs4"><linearGradient id="linearGradient4537"><stop id="stop4533" offset="0" stop-color="#250" stop-opacity="1"/><stop id="stop4535" offset="1" stop-color="#250" stop-opacity="0"/></linearGradient><linearGradient id="linearGradient4543"><stop id="stop4539" offset="0" stop-color="#000" stop-opacity="1"/><stop id="stop4541" offset="1" stop-color="#000" stop-opacity="0"/></linearGradient><linearGradient id="linearGradient3866" x1="81.898" x2="3.046" y1="17.729" y2="17.729" gradientTransform="matrix(0.73873,0,0,1.3537,0,2.0000917)" gradientUnits="userSpaceOnUse" osb:paint="gradient"><stop id="stop3868" offset="0" stop-color="#cc8000"/><stop id="stop3870" offset="1" stop-color="#ffed00"/></linearGradient><linearGradient id="c" x1="81.898" x2="3.046" y1="17.729" y2="17.729" gradientTransform="matrix(0.73873,0,0,1.3537,0,2.0000917)" gradientUnits="userSpaceOnUse"><stop id="stop7" offset="0" stop-color="#cc8000"/><stop id="stop9" offset="1" stop-color="#ffed00"/></linearGradient><linearGradient id="d" x1="34.29" x2="48.26" y1="33.612" y2="1.847" gradientTransform="matrix(1.0000188,0,0,1.0000188,0,2.0000917)" gradientUnits="userSpaceOnUse"><stop id="stop12" offset="0" stop-color="#af7d00"/><stop id="stop14" offset="1" stop-color="#ff7c00" stop-opacity="1"/></linearGradient><linearGradient id="linearGradient2997-1" x1="81.898" x2="3.046" y1="17.729" y2="17.729" gradientTransform="matrix(0.73873,0,0,1.3537,0,10.000092)" gradientUnits="userSpaceOnUse" xlink:href="#c-7"/><linearGradient id="c-7" x1="81.898" x2="3.046" y1="17.729" y2="17.729" gradientTransform="matrix(0.73873,0,0,1.3537,0,2.0000917)" gradientUnits="userSpaceOnUse"><stop id="stop7-4" offset="0" stop-color="#cc8000"/><stop id="stop9-0" offset="1" stop-color="#ffed00"/></linearGradient><linearGradient id="linearGradient2993-9" x1="34.29" x2="48.26" y1="33.612" y2="1.847" gradientTransform="matrix(1.0000188,0,0,1.0000188,0,10.000092)" gradientUnits="userSpaceOnUse" xlink:href="#d-4"/><linearGradient id="d-4" x1="34.29" x2="48.26" y1="33.612" y2="1.847" gradientTransform="matrix(1.0000188,0,0,1.0000188,0,2.0000917)" gradientUnits="userSpaceOnUse"><stop id="stop12-8" offset="0" stop-color="#af7d00"/><stop id="stop14-8" offset="1" stop-color="#ffed00"/></linearGradient><linearGradient id="linearGradient3027" x1="34.29" x2="48.26" y1="33.612" y2="1.847" gradientTransform="matrix(1.0000188,0,0,1.0000188,0,10.000092)" gradientUnits="userSpaceOnUse" xlink:href="#d-4"/><linearGradient id="linearGradient2997-17" x1="81.898" x2="3.046" y1="17.729" y2="17.729" gradientTransform="matrix(0.73873,0,0,1.3537,0,10.000092)" gradientUnits="userSpaceOnUse" xlink:href="#c-1"/><linearGradient id="c-1" x1="81.898" x2="3.046" y1="17.729" y2="17.729" gradientTransform="matrix(0.73873,0,0,1.3537,0,2.0000917)" gradientUnits="userSpaceOnUse"><stop id="stop7-1" offset="0" stop-color="#cc8000"/><stop id="stop9-5" offset="1" stop-color="#ffed00"/></linearGradient><linearGradient id="linearGradient2993-2" x1="34.29" x2="48.26" y1="33.612" y2="1.847" gradientTransform="matrix(1.0000188,0,0,1.0000188,0,10.000092)" gradientUnits="userSpaceOnUse" xlink:href="#d-7"/><linearGradient id="d-7" x1="34.29" x2="48.26" y1="33.612" y2="1.847" gradientTransform="matrix(1.0000188,0,0,1.0000188,0,2.0000917)" gradientUnits="userSpaceOnUse"><stop id="stop12-6" offset="0" stop-color="#af7d00"/><stop id="stop14-1" offset="1" stop-color="#ffed00"/></linearGradient><linearGradient id="linearGradient3027-4" x1="34.29" x2="48.26" y1="33.612" y2="1.847" gradientTransform="matrix(1.0000188,0,0,1.0000188,0,10.000092)" gradientUnits="userSpaceOnUse" xlink:href="#d-7"/><linearGradient id="linearGradient3092" x1="34.29" x2="48.26" y1="33.612" y2="1.847" gradientTransform="matrix(0.19457938,0,0,0.19457938,11.929163,22.541331)" gradientUnits="userSpaceOnUse" xlink:href="#d-4"/><linearGradient id="linearGradient3096" x1="81.898" x2="3.046" y1="17.729" y2="17.729" gradientTransform="matrix(0.14373892,0,0,0.26339715,11.929163,22.541331)" gradientUnits="userSpaceOnUse" xlink:href="#d-7"/><linearGradient id="linearGradient3877" x1="81.898" x2="-128.796" y1="17.729" y2="133.697" gradientTransform="matrix(-0.15632538,0,0,0.28646144,22.655754,20.86386)" gradientUnits="userSpaceOnUse" xlink:href="#d-7"/><linearGradient id="linearGradient3879" x1="34.29" x2="48.26" y1="33.612" y2="1.847" gradientTransform="matrix(-0.21161767,0,0,0.21161767,22.655754,20.86386)" gradientUnits="userSpaceOnUse" xlink:href="#d-4"/><linearGradient id="linearGradient3886" x1="81.898" x2="-136.4" y1="17.729" y2="71.87" gradientTransform="matrix(0.29657325,0,0,0.54346136,26.645962,12.572833)" gradientUnits="userSpaceOnUse" xlink:href="#d"/><linearGradient id="linearGradient4549" x1="2.25" x2="-13.808" y1="34.001" y2="33.378" gradientTransform="matrix(1.1075484,0,0,1.0985373,-2.2102423,-5.3068967)" gradientUnits="userSpaceOnUse" xlink:href="#linearGradient4543"/><linearGradient id="linearGradient4551" x1="2.25" x2="-13.808" y1="34.001" y2="33.378" gradientTransform="matrix(1.0827542,0,0,1.0919246,-1.8368891,-5.0880421)" gradientUnits="userSpaceOnUse" xlink:href="#linearGradient4543"/><linearGradient id="linearGradient4538" x1="15.603" x2="199.603" y1="46.528" y2="17.214" gradientUnits="userSpaceOnUse" xlink:href="#linearGradient4537"/><linearGradient id="linearGradient4539" x1="1.518" x2="26.193" y1="39.037" y2="39.037" gradientTransform="matrix(1.017432,0,0,1.047188,-0.03628503,-1.201084)" gradientUnits="userSpaceOnUse" xlink:href="#linearGradient4537"/></defs><g id="g4534" stroke-dasharray="none" stroke-miterlimit="4" stroke-width="1.3"><path id="path20" fill="url(#linearGradient4538)" fill-opacity="1" stroke="#000" stroke-dasharray="none" stroke-linejoin="round" stroke-miterlimit="4" stroke-opacity="1" stroke-width="1.3" d="M 61.773016,33.902869 43.556346,44.370469 25.339677,54.839542 1.9562346,39.339837 1.4127232,25.474315 c 0,0 11.8728918,-5.437852 17.8085338,-8.156924 5.936285,-2.718927 17.808534,-8.1569261 17.808534,-8.1569261 l 25.557488,13.3228561 -0.81571,11.419548 z" color="#000"/></g><path id="path22" fill="url(#linearGradient4539)" fill-opacity="1" stroke="url(#linearGradient4549)" stroke-dasharray="none" stroke-linejoin="round" stroke-miterlimit="4" stroke-width="1.548" d="m 2.081517,25.453156 c 0,0 7.8148395,4.992458 11.722054,7.488836 3.907461,2.49623 11.722055,7.488837 11.722055,7.488837 l -0.185949,14.408713" color="#000"/><path id="path24" fill="#784421" stroke="url(#linearGradient4551)" stroke-dasharray="none" stroke-linejoin="round" stroke-miterlimit="4" stroke-width="1.5" d="m 25.525626,40.430829 c 0,0 12.2635,-6.0277 18.39525,-9.041624 6.131749,-3.013924 18.39525,-9.041625 18.39525,-9.041625" color="#000"/><path id="path20-4" fill="url(#linearGradient3877)" fill-opacity="1" stroke="#000" stroke-linejoin="round" stroke-width=".423" d="m 10.223353,26.313072 3.544523,2.036741 3.544521,2.037027 4.54985,-3.015865 0.105754,-2.697894 c 0,0 -2.310176,-1.058074 -3.465108,-1.58714 -1.155057,-0.529037 -3.465108,-1.587139 -3.465108,-1.587139 l -4.972867,2.592304 0.158717,2.221966 z" color="#000"/><path id="path22-5" fill="none" stroke="#000" stroke-linejoin="round" stroke-width=".423" d="m 21.835749,24.673081 c 0,0 -1.493141,0.961709 -2.239673,1.44259 -0.746578,0.480855 -2.239674,1.442592 -2.239674,1.442592 l 0.03553,2.775583" color="#000"/><path id="path24-5" fill="url(#linearGradient3879)" stroke="#000" stroke-linejoin="round" stroke-width=".423" d="m 17.308019,27.569206 c 0,0 -2.39678,-1.168161 -3.59517,-1.752256 -1.198391,-0.584095 -3.595171,-1.752256 -3.595171,-1.752256" color="#000"/><path id="path20-2" fill="url(#linearGradient3886)" fill-opacity="1" stroke="#000" stroke-dasharray="none" stroke-linejoin="round" stroke-miterlimit="4" stroke-width=".803" d="m 50.232135,22.910826 -6.724502,3.864011 -6.724502,3.864553 -8.631764,-5.721561 -0.200631,-5.118319 c 0,0 4.382759,-2.007329 6.573842,-3.011047 2.19132,-1.003665 6.573843,-3.011048 6.573843,-3.011048 l 9.434291,4.917999 -0.301111,4.215412 z" color="#000"/><path id="path22-2" fill="none" stroke="#000" stroke-linejoin="round" stroke-width=".803" d="m 28.201637,19.79951 c 0,0 2.832719,1.824508 4.249004,2.736817 1.416375,0.912254 4.249006,2.736817 4.249006,2.736817 l -0.06741,5.265706" color="#000"/><path id="path24-1" fill="#000" stroke="#000" stroke-linejoin="round" stroke-width=".803" d="m 36.791436,25.293904 c 0,0 4.54706,-2.21618 6.820591,-3.324298 2.27353,-1.108117 6.820592,-3.324299 6.820592,-3.324299" color="#000"/></svg>