<svg xmlns="http://www.w3.org/2000/svg" xmlns:svg="http://www.w3.org/2000/svg" id="svg8" width="64" height="64" version="1.1" viewBox="0 0 16.933 16.933"><metadata id="metadata5"/><g id="layer1" transform="translate(0,-280.06663)"><path id="path4555-1" fill="#666" stroke="none" stroke-linecap="butt" stroke-linejoin="miter" stroke-opacity="1" stroke-width=".265" d="m 16.66875,280.33122 v 15.875 H 9.7895829 v -2.64584 H 11.90625 V 290.1208 H 9.7895829 v -3.70417 H 11.90625 v -3.175 H 9.7895829 v -2.91041 z"/><path id="path4555-4-0" fill="#666" stroke="none" stroke-linecap="butt" stroke-linejoin="miter" stroke-opacity="1" stroke-width=".265" d="m 1.3229167,280.33121 v 15.875 H 7.408334 v -2.91042 h 1.8520833 l -5e-7,-2.91042 H 7.408334 v -4.23333 h 1.8520833 v -2.64583 H 7.408334 v -3.175 z"/><path id="path4555" fill="#005bff" fill-opacity="1" stroke="#000" stroke-linecap="butt" stroke-linejoin="miter" stroke-opacity="1" stroke-width=".265" d="m 15.875001,281.12496 0,15.61042 H 8.9958335 l 10e-8,-2.38126 h 2.1166674 v -3.43958 H 8.9958336 v -3.70417 h 2.1166674 v -3.175 H 8.9958336 v -2.91041 z"/><path id="path4555-4" fill="#ff2124" fill-opacity="1" stroke="#000" stroke-linecap="butt" stroke-linejoin="miter" stroke-opacity="1" stroke-width=".265" d="m 0.52916686,281.12496 3.4e-7,15.61042 h 6.0854167 v -2.64584 h 1.8520834 l -4e-7,-2.91042 h -1.852083 v -4.23333 h 1.8520834 v -2.64583 H 6.6145839 v -3.175 z"/></g></svg>