<svg xmlns="http://www.w3.org/2000/svg" xmlns:svg="http://www.w3.org/2000/svg" xmlns:xlink="http://www.w3.org/1999/xlink" id="svg8" width="64" height="64" version="1.1" viewBox="0 0 16.933 16.933"><defs id="defs2"><linearGradient id="linearGradient4536"><stop id="stop4532" offset="0" stop-color="#75507b" stop-opacity="1"/><stop id="stop4534" offset="1" stop-color="#ad7fa8" stop-opacity="1"/></linearGradient><linearGradient id="linearGradient4538" x1="15.346" x2="1.587" y1="294.883" y2="282.183" gradientUnits="userSpaceOnUse" xlink:href="#linearGradient4536"/></defs><metadata id="metadata5"/><g id="layer1" transform="translate(0,-280.06665)"><path id="path4487" fill="none" stroke="#171018" stroke-dasharray="none" stroke-linecap="round" stroke-linejoin="round" stroke-miterlimit="4" stroke-opacity="1" stroke-width=".529" d="m 0.79375,295.67707 4.9e-7,-14.2875 H 16.139583 v 14.2875 z" paint-order="normal"/><path id="path4530" fill="url(#linearGradient4538)" fill-opacity="1" stroke="#ad7fa8" stroke-dasharray="none" stroke-linecap="butt" stroke-linejoin="miter" stroke-miterlimit="4" stroke-opacity="1" stroke-width=".529" d="M 1.3229166,295.1479 V 281.91873 H 15.610416 v 13.22917 z"/><path id="path4542" fill="#ad7fa8" fill-opacity="1" stroke="#171018" stroke-dasharray="none" stroke-dashoffset="0" stroke-linecap="round" stroke-linejoin="miter" stroke-miterlimit="4" stroke-opacity="1" stroke-width=".529" d="m 5.55625,284.56458 a 1.5875,1.5875 0 0 1 -1.5848886,1.58749 1.5875,1.5875 0 0 1 -1.5901028,-1.58227 1.5875,1.5875 0 0 1 1.5796572,-1.59271 1.5875,1.5875 0 0 1 1.5952998,1.57704" opacity="1" vector-effect="none"/><path id="path4546" fill="none" stroke="#171018" stroke-dasharray="none" stroke-linecap="round" stroke-linejoin="round" stroke-miterlimit="4" stroke-opacity="1" stroke-width=".529" d="m 6.6145832,292.50207 5.2916668,-5.29167 2.645833,2.64583 m -12.170833,2.64584 4.2333332,-4.23334 2.1166667,2.11667"/></g></svg>