<svg xmlns="http://www.w3.org/2000/svg" xmlns:svg="http://www.w3.org/2000/svg" id="svg2" width="210mm" height="297mm" version="1.1"><metadata id="metadata7"/><g id="layer3"><rect id="rect3020" width="377.143" height="88.571" x="31.429" y="260.934" fill="#a40000"/><rect id="rect3022" width="374.286" height="85.714" x="37.143" y="523.791" fill="#a40000"/><rect id="rect3024" width="357.143" height="82.857" x="37.143" y="783.791" fill="#a40000"/><rect id="rect3032" width="425.714" height="68.571" x="469.087" y="-30.615" fill="#a40000" transform="matrix(0.80236205,0.59683762,-0.59683762,0.80236205,0,0)"/><rect id="rect3034" width="311.429" height="74.286" x="402.857" y="532.362" fill="#a40000"/><rect id="rect3036" width="434.286" height="60" x="-272.413" y="873.359" fill="#a40000" transform="matrix(0.73269987,-0.68055191,0.68055191,0.73269987,0,0)"/><rect id="rect3038" width="20" height="2.857" x="588.571" y="409.505" fill="#a40000"/><rect id="rect3044" width="398.061" height="36.035" x="-271.703" y="882.849" fill="#ef2929" transform="matrix(0.7203481,-0.69361273,0.67656247,0.73638524,0,0)"/><rect id="rect3044-1" width="397.143" height="45.714" x="509.983" y="-19.349" fill="#ef2929" transform="matrix(0.80136806,0.59817157,-0.59817157,0.80136806,0,0)"/><rect id="rect3044-5" width="302.857" height="45.714" x="427.143" y="546.648" fill="#ef2929"/></g><g id="layer1"><path id="path3011" fill="#204a87" d="m 482.85715,563.79077 a 87.14286,328.57144 0 1 1 -174.28572,0 87.14286,328.57144 0 1 1 174.28572,0 z"/><rect id="rect3026" width="277.143" height="51.429" x="51.429" y="280.934" fill="#ef2929"/><rect id="rect3028" width="237.143" height="45.714" x="57.143" y="549.505" fill="#ef2929"/><rect id="rect3030" width="257.143" height="42.857" x="54.286" y="798.076" fill="#ef2929"/></g><g id="layer2"><path id="path3015" fill="#729fcf" d="m 457.14286,563.79077 a 64.285713,288.57144 0 1 1 -128.57143,0 64.285713,288.57144 0 1 1 128.57143,0 z"/></g></svg>