<svg xmlns="http://www.w3.org/2000/svg" xmlns:svg="http://www.w3.org/2000/svg" xmlns:xlink="http://www.w3.org/1999/xlink" id="svg2980" width="64" height="64" version="1.1"><title id="title3926">WebTool Addon Logo</title><defs id="defs2982"><linearGradient id="linearGradient970"><stop id="stop966" offset="0" stop-color="#8ae234" stop-opacity="1"/><stop id="stop968" offset="1" stop-color="#4e9a06" stop-opacity="1"/></linearGradient><linearGradient id="linearGradient3794"><stop id="stop3796" offset="0" stop-color="#000" stop-opacity="1"/><stop id="stop3798" offset="1" stop-color="#000" stop-opacity="0"/></linearGradient><linearGradient id="linearGradient3864"><stop id="stop3866" offset="0" stop-color="#71b2f8" stop-opacity="1"/><stop id="stop3868" offset="1" stop-color="#002795" stop-opacity="1"/></linearGradient><radialGradient id="radialGradient3800" cx="1" cy="45" r="41" fx="1" fy="45" gradientTransform="matrix(0.93348213,-2.2905276e-8,0,0.28687573,0.06651751,32.090592)" gradientUnits="userSpaceOnUse" xlink:href="#linearGradient3794"/><linearGradient id="linearGradient886-7" x1="214.268" x2="229.931" y1="128.953" y2="162.908" gradientTransform="translate(-191.65608,-118.94165)" gradientUnits="userSpaceOnUse" xlink:href="#linearGradient970"/></defs><metadata id="metadata2985"/><g id="layer1"><g id="g5188" transform="matrix(0.83253812,0,0,0.83253812,4.9744737,6.5369495)"><circle id="path3939-3-4-8-7" cx="11.571" cy="43.207" r="33.89" fill="#acf" stroke="#0b1521" stroke-dasharray="none" stroke-miterlimit="4" stroke-width="4.3" transform="rotate(-31.57736)"/><g id="g4859-5-4-2" fill="#204a87" stroke="#729fcf" stroke-dasharray="none" stroke-miterlimit="4" stroke-width="3.7" transform="rotate(-31.57736,32.89328,48.441694)"><circle id="path3939-4-7-3" cx="41.774" cy="33.145" r="29.962" fill="#204a87" stroke="#729fcf" stroke-dasharray="none" stroke-miterlimit="4" stroke-width="3.7"/><path id="path3979-9-7-9" fill="#204a87" stroke="#729fcf" stroke-dasharray="none" stroke-linecap="butt" stroke-linejoin="miter" stroke-miterlimit="4" stroke-opacity="1" stroke-width="3.7" d="M 41.75544,63.496922 V 3.1276113"/><path id="path3979-7-5-9-9" fill="#204a87" stroke="#729fcf" stroke-dasharray="none" stroke-linecap="butt" stroke-linejoin="miter" stroke-miterlimit="4" stroke-opacity="1" stroke-width="3.7" d="m 43.869238,63.780061 c 16.83797,-15.87814 21.846462,-40.087909 0,-60.3693114"/><path id="path3979-7-0-58-6-9" fill="#204a87" stroke="#729fcf" stroke-dasharray="none" stroke-linecap="butt" stroke-linejoin="miter" stroke-miterlimit="4" stroke-opacity="1" stroke-width="3.7" d="m 39.777161,63.471623 c -16.83797,-15.87814 -21.846462,-40.087909 0,-60.369311"/><path id="path3983-3-3-9" fill="#204a87" stroke="#729fcf" stroke-dasharray="none" stroke-linecap="butt" stroke-linejoin="miter" stroke-miterlimit="4" stroke-opacity="1" stroke-width="3.7" d="M 71.604711,32.138419 H 11.570785"/><path id="path3981-3-8-9" fill="#204a87" stroke="#729fcf" stroke-dasharray="none" stroke-linecap="butt" stroke-linejoin="miter" stroke-miterlimit="4" stroke-opacity="1" stroke-width="3.7" d="M 67.747782,18.639171 H 14.58925"/><path id="path3985-85-8-5" fill="#204a87" stroke="#729fcf" stroke-dasharray="none" stroke-linecap="butt" stroke-linejoin="miter" stroke-miterlimit="4" stroke-opacity="1" stroke-width="3.7" d="M 67.915475,47.566132 H 15.763098"/></g><path id="path3939-8-5-0-4" fill="url(#linearGradient886-7)" fill-opacity="1" stroke="#0b1521" stroke-dasharray="none" stroke-linejoin="round" stroke-miterlimit="4" stroke-width="2.968" d="m 41.031575,-1.3427201 a 16.655753,16.273209 0 0 0 -2.06453,-0.906 l 0.023,15.8852101 -11.62199,0.016 -0.0238,-15.9697601 a 16.655753,16.273209 0 0 0 -10.93365,15.2909401 16.655753,16.273209 0 0 0 8.1554,13.95151 l 0.0468,29.54739 c 0.007,4.55859 3.76776,8.22413 8.43349,8.21744 4.66576,-0.007 8.41566,-3.68226 8.40879,-8.24086 l -0.0426,-29.43198 a 16.655753,16.273209 0 0 0 8.30916,-14.09119 16.655753,16.273209 0 0 0 -8.69013,-14.2686001 z"/><path id="path964-3" fill="none" stroke="#8ae234" stroke-dasharray="none" stroke-linecap="butt" stroke-linejoin="round" stroke-miterlimit="4" stroke-opacity="1" stroke-width="2" d="m 38.460765,25.84553 c 8.98434,-4.48263 12.79738,-16.4108101 3.01942,-23.8205901 l 0.11858,14.1579301 -16.81379,-0.0148 0.008,-14.4925101"/><path id="path972-4" fill="none" stroke="#8ae234" stroke-dasharray="none" stroke-linecap="round" stroke-linejoin="round" stroke-miterlimit="4" stroke-opacity="1" stroke-width="2" d="M 38.921135,25.4669 V 56.90926"/><path id="path974-4" fill="none" stroke="#8ae234" stroke-dasharray="none" stroke-linecap="round" stroke-linejoin="round" stroke-miterlimit="4" stroke-opacity="1" stroke-width="2" d="m 38.945605,57.25927 c -1.30116,6.3107 -9.99673,6.67916 -11.70943,0.26892"/><path id="path972-7-4" fill="none" stroke="#8ae234" stroke-dasharray="none" stroke-linecap="round" stroke-linejoin="round" stroke-miterlimit="4" stroke-opacity="1" stroke-width="1.989" d="m 27.182665,25.57127 v 31.6843"/><path id="path964-9-7" fill="none" stroke="#8ae234" stroke-dasharray="none" stroke-linecap="round" stroke-linejoin="miter" stroke-miterlimit="4" stroke-opacity="1" stroke-width="2" d="m 24.833745,1.7951199 c -10.29881,7.52553 -6.77966,19.3559701 2.34852,23.8066401"/></g></g></svg>